<svg xmlns="http://www.w3.org/2000/svg" width="118" height="49" viewBox="0 0 118 49">
    <path fill="#FFF" d="M33.056 0v29.32h16.672v19.546H30.182v-15.81H0V0h33.056zm13.51 32.481H33.344v13.223h13.222V32.481zM29.894 3.161H3.162v26.733h26.732V3.162zm32.37 5.28c3.773 0 6.139 2.635 6.186 6.728v1.091h-9.698v.17c0 2.388 1.436 3.968 3.694 3.968 1.573 0 2.745-.777 3.148-1.938l.024-.073h2.676c-.392 2.507-2.767 4.295-5.913 4.295-4.034 0-6.474-2.728-6.474-7.062 0-4.307 2.48-7.179 6.356-7.179zm13.8 0c3.16 0 5.224 1.734 5.36 4.219l.005.089h-2.65c-.157-1.332-1.136-2.167-2.715-2.167-1.527 0-2.546.744-2.546 1.84 0 .843.6 1.423 2.017 1.766l.098.022 2.232.51c2.806.652 3.877 1.749 3.877 3.733 0 2.506-2.337 4.229-5.574 4.229-3.392 0-5.446-1.645-5.746-4.203l-.01-.092h2.793c.261 1.436 1.24 2.141 2.963 2.141 1.697 0 2.741-.705 2.741-1.827 0-.869-.487-1.387-1.913-1.727l-2.329-.544c-2.61-.6-3.903-1.854-3.903-3.851 0-2.454 2.14-4.138 5.3-4.138zm35.749 0c3.773 0 6.14 2.635 6.186 6.728l.001.125v.966h-9.698v.17c0 2.388 1.435 3.968 3.694 3.968 1.572 0 2.744-.777 3.147-1.938l.025-.073h2.675c-.391 2.507-2.767 4.295-5.913 4.295-4.033 0-6.474-2.728-6.474-7.062 0-4.307 2.48-7.179 6.357-7.179zm-9.01-4.856v18.836h-2.741v-2.337h-.052c-.81 1.567-2.376 2.572-4.373 2.572-3.472 0-5.77-2.767-5.77-7.101s2.298-7.088 5.744-7.088c1.934 0 3.478.955 4.263 2.421l.044.085h.052V3.585h2.833zm-55.306 0c3.342 0 5.535 1.854 5.535 4.7 0 1.965-1.43 3.729-3.267 4.082l-.088.016v.105c2.558.287 4.281 2.101 4.281 4.607 0 3.282-2.365 5.285-6.3 5.325H39.98V3.586h7.518zM87.214 8.69v13.732h-2.82V8.689h2.82zm9.167 2.154c-2.232 0-3.629 1.827-3.629 4.712 0 2.898 1.397 4.712 3.629 4.712 2.167 0 3.616-1.84 3.616-4.712 0-2.846-1.45-4.712-3.616-4.712zm-49.615 2.989h-3.864v6.2h4.034c2.637 0 4.033-1.083 4.033-3.12 0-2.006-1.394-3.05-4.083-3.08h-.12zm15.497-3.12c-1.94 0-3.312 1.456-3.49 3.481l-.008.096h6.866c-.065-2.102-1.397-3.577-3.368-3.577zm49.55 0c-1.94 0-3.312 1.456-3.49 3.481l-.008.096h6.866c-.066-2.102-1.397-3.577-3.368-3.577zm-65.02-4.738h-3.89V11.6h3.276c2.532 0 3.929-1.044 3.929-2.91 0-1.721-1.162-2.684-3.213-2.715h-.103zm39.012-2.741c.9 0 1.618.718 1.618 1.619 0 .887-.718 1.618-1.618 1.618-.901 0-1.632-.73-1.632-1.618 0-.901.731-1.62 1.632-1.62z"/>
</svg>
