<svg xmlns="http://www.w3.org/2000/svg" width="20" height="20" viewBox="0 0 20 20">
    <g fill="none" fill-rule="evenodd" opacity=".8">
        <g fill="#151A3B">
            <g>
                <g>
                    <g>
                        <path d="M10 1.667c.831 0 1.537.554 1.775 1.317l.007.023h1.7c.293 0 .53.238.536.533v.302h2.112c.293 0 .531.238.537.533V17.79c0 .297-.235.538-.527.543H3.87c-.293 0-.531-.237-.537-.533V4.386c0-.297.235-.538.527-.543h2.122V3.55c0-.297.234-.538.526-.544h1.71c.23-.775.942-1.34 1.782-1.34zM5.982 4.929H4.407v12.317h11.186V4.93h-1.575v.56c0 .297-.234.538-.526.544H6.518c-.293 0-.53-.238-.536-.533V4.93zm6.978 9.054c.297 0 .537.244.537.544 0 .297-.235.538-.526.543H7.04c-.297 0-.537-.243-.537-.543 0-.297.235-.538.526-.543h5.931zm0-2.887c.297 0 .537.243.537.544 0 .296-.235.537-.526.543H7.04c-.297 0-.537-.243-.537-.543 0-.297.235-.538.526-.544h5.931zm0-2.887c.297 0 .537.243.537.543 0 .297-.235.538-.526.544H7.04c-.297 0-.537-.244-.537-.544 0-.296.235-.537.526-.543h5.931zM10 2.754c-.43 0-.78.35-.787.783v.014c0 .296-.235.537-.527.543H7.056v.852h5.889v-.852h-1.62c-.294 0-.532-.238-.538-.533v-.01c0-.44-.353-.797-.787-.797z" transform="translate(-577 -508) translate(460 159) translate(60 303) translate(57 46)"/>
                    </g>
                </g>
            </g>
        </g>
    </g>
</svg>
