<svg xmlns="http://www.w3.org/2000/svg" width="20" height="20" viewBox="0 0 20 20">
    <g fill="none" fill-rule="evenodd" opacity=".8">
        <g fill="#151A3B">
            <g>
                <g>
                    <g>
                        <path d="M10 1.667c4.6.005 8.328 3.733 8.333 8.333 0 4.602-3.73 8.333-8.333 8.333-4.602 0-8.333-3.73-8.333-8.333 0-4.602 3.73-8.333 8.333-8.333zm0 1.19c-3.945 0-7.143 3.198-7.143 7.143S6.055 17.143 10 17.143c3.943-.004 7.139-3.2 7.143-7.143 0-3.945-3.198-7.143-7.143-7.143zm1.446 9.034c.264-.197.637-.143.833.12.197.264.143.637-.12.834-1.275.974-3.043.974-4.317 0l-.034-.027c-.248-.215-.276-.59-.06-.84.214-.248.59-.276.839-.06.833.608 1.962.614 2.8.018l.026-.019.011-.009.022-.017zM7.024 7.619c.657 0 1.19.533 1.19 1.19 0 .658-.533 1.191-1.19 1.191-.658 0-1.19-.533-1.19-1.19 0-.658.532-1.19 1.19-1.19zm5.952 0c.658 0 1.19.533 1.19 1.19 0 .658-.532 1.191-1.19 1.191-.657 0-1.19-.533-1.19-1.19 0-.658.533-1.19 1.19-1.19z" transform="translate(-710 -508) translate(460 159) translate(194 303) translate(56 46)"/>
                    </g>
                </g>
            </g>
        </g>
    </g>
</svg>
