<svg xmlns="http://www.w3.org/2000/svg" width="24" height="24" viewBox="0 0 24 24">
    <defs>
        <linearGradient id="8jk5efnhka" x1="50%" x2="50%" y1="100%" y2="0%">
            <stop offset="0%" stop-color="#54B478"/>
            <stop offset="100%" stop-color="#87D8A5"/>
        </linearGradient>
    </defs>
    <g fill="none" fill-rule="evenodd">
        <g fill="url(#8jk5efnhka)" fill-rule="nonzero">
            <path d="M3.25 21C2.56 21 2 20.44 2 19.75V4.25C2 3.56 2.56 3 3.25 3h17.5c.69 0 1.25.56 1.25 1.25v15.5c0 .69-.56 1.25-1.25 1.25H3.25zm17.5-14.25H3.25v13H4.5v-2.5c0-.69.56-1.25 1.25-1.25h12.5c.69 0 1.25.56 1.25 1.25v2.5h1.25v-13zm-2.5 10.5H5.75v2.5h12.5v-2.5zm0-8.75c.69 0 1.25.56 1.25 1.25v3.75c0 .69-.56 1.25-1.25 1.25H5.75c-.69 0-1.25-.56-1.25-1.25V9.75c0-.69.56-1.25 1.25-1.25h12.5zm0 1.25H5.75v3.75h12.5V9.75zm2.5-5.5H3.25V5.5h17.5V4.25z"/>
        </g>
    </g>
</svg>
