<?xml version="1.0" encoding="UTF-8"?>
<svg width="24px" height="24px" viewBox="0 0 24 24" version="1.1" xmlns="http://www.w3.org/2000/svg" xmlns:xlink="http://www.w3.org/1999/xlink">
    <title>Icons/Staff Active</title>
    <defs>
        <linearGradient x1="50%" y1="100%" x2="50%" y2="3.061617e-15%" id="linearGradient-1">
            <stop stop-color="#54B478" offset="0%"></stop>
            <stop stop-color="#87D8A5" offset="100%"></stop>
        </linearGradient>
    </defs>
    <g id="Icons/Staff-Active" stroke="none" stroke-width="1" fill="none" fill-rule="evenodd">
        <path d="M13,2 C13.5522847,2 14,2.44771525 14,3 L14,4.47 L20.3571426,4.47044968 C20.7453784,4.47044968 21.0042763,4.72934753 21.0042763,5.11758338 L21.0042763,21.3530829 C21.0042763,21.7413188 20.7453784,22.0002166 20.3571426,22.0002166 L3.64713371,22.0002166 C3.25889785,22.0002166 3,21.7413188 3,21.3530829 L3,5.11758338 C3,4.72934753 3.25889785,4.47044968 3.64713371,4.47044968 L10,4.47 L10,3 C10,2.44771525 10.4477153,2 11,2 L13,2 Z M13.855,5.746 C13.5625294,6.47963983 12.842033,7 12,7 C11.2141025,7 10.5340769,6.54670848 10.2071111,5.88731332 L10.144,5.746 L10.1515288,5.76501529 L4.29404557,5.76471709 L4.29404557,20.7057274 L19.710014,20.7057274 L19.7102307,5.76471709 L13.8484712,5.76501529 L13.855,5.746 Z M7.88235855,7.47044968 C8.2705944,7.47044968 8.52949225,7.72934753 8.52949225,8.11758338 C8.52949225,8.50581924 8.2705944,8.76471709 7.88235855,8.76471709 L7.29404557,8.76471709 L7.29320728,17.2817422 C7.98090102,15.3503194 9.80640215,14 12,14 C14.1946267,14 16.0204802,15.3514659 16.7075449,17.2838867 L16.7071852,8.76471709 L16.1188722,8.76471709 C15.7306363,8.76471709 15.4717385,8.50581924 15.4717385,8.11758338 C15.4717385,7.72934753 15.7306363,7.47044968 16.1188722,7.47044968 L17.354097,7.47044968 C17.7423329,7.47044968 18.0012302,7.72934753 18.0012302,8.11758338 L18.0012302,18.3530829 C18.0012302,18.7413188 17.7423329,19.0002166 17.354097,19.0002166 L6.64713371,19.0002166 C6.25889785,19.0002166 6,18.7413188 6,18.3530829 L6,8.11758338 C6,7.72934753 6.25889785,7.47044968 6.64713371,7.47044968 L7.88235855,7.47044968 Z M12.0440456,15.2940456 C10.3947413,15.2940456 9.04650451,16.2731604 8.52563243,17.7050929 L15.5624587,17.7049195 C15.0415866,16.2729022 13.6933498,15.2940456 12.0440456,15.2940456 Z M12,8 C13.680107,8 15,9.32009875 15,11 C15,12.6799013 13.680107,14 12,14 C10.319893,14 9,12.6799013 9,11 C9,9.31989303 10.3200987,8 12,8 Z M12.0440456,9.29404557 C11.0524456,9.29404557 10.2940456,10.0524456 10.2940456,11.0440456 C10.2940456,12.0356456 11.0524456,12.7940456 12.0440456,12.7940456 C13.0356456,12.7940456 13.7940456,12.0356456 13.7940456,11.0440456 C13.7940456,10.0522456 13.0356456,9.29404557 12.0440456,9.29404557 Z M12.5,3.2 L11.5,3.2 C11.3579839,3.2 11.2390158,3.2986801 11.2079232,3.43121275 L11.2,3.5 L11.2,5 C11.2,5.4418278 11.5581722,5.8 12,5.8 C12.407841,5.8 12.7444016,5.49481185 12.7937669,5.1003503 L12.8,5 L12.8,3.5 C12.8,3.33431458 12.6656854,3.2 12.5,3.2 Z" id="Combined-Shape" fill="url(#linearGradient-1)" fill-rule="nonzero"></path>
    </g>
</svg>