<svg xmlns="http://www.w3.org/2000/svg" width="24" height="24" viewBox="0 0 24 24">
    <g fill="none" fill-rule="evenodd">
        <g fill="#8F8DA1">
            <path d="M15.496 1c.2 0 .394.078.54.218l.014.014 4.72 4.8c.142.144.224.338.23.54v13.009c0 1.594-1.268 2.893-2.837 2.919H5.884C4.31 22.5 3.026 21.217 3 19.63V3.919C3 2.325 4.268 1.026 5.837 1h9.659zm-.28 1.375H5.718c-.733 0-1.33.596-1.343 1.332V19.77c0 .74.59 1.343 1.32 1.355h12.587c.733 0 1.33-.596 1.343-1.332V6.812l-4.41-4.437zm.037 13.875c.413 0 .747.308.747.688 0 .374-.326.68-.731.687H7.747c-.413 0-.747-.308-.747-.688 0-.374.326-.68.731-.687h7.522zm.125-3.25c.413 0 .747.308.747.688 0 .374-.326.68-.731.687H7.872c-.413 0-.747-.308-.747-.688 0-.374.326-.68.731-.687h7.522zm-.125-3c.413 0 .747.308.747.688 0 .374-.326.68-.731.687H7.747c-.413 0-.747-.308-.747-.688 0-.374.326-.68.731-.687h7.522zm-4-4c.413 0 .747.308.747.688 0 .374-.326.68-.731.687H7.747c-.413 0-.747-.308-.747-.688 0-.374.326-.68.731-.687h3.522z"/>
        </g>
    </g>
</svg>
