<svg xmlns="http://www.w3.org/2000/svg" width="24" height="24" viewBox="0 0 24 24">
    <g fill="none" fill-rule="evenodd">
        <g fill="#8F8DA1">
            <path d="M17.69 3.5c.983 0 1.783.781 1.783 1.742v2.301h.243c.983 0 1.782.782 1.782 1.742v9.473c0 .96-.8 1.742-1.782 1.742H5.253c-1.518 0-2.753-1.206-2.753-2.69.008-3.02.013-5.473.016-7.357v-.549l.001-.261V8.91l.001-.227V7.17 6.62l-.002-.324-.001-.174-.002-.196C2.5 4.69 3.826 3.5 5.253 3.5zM3.725 8.286v9.525c0 .823.685 1.493 1.528 1.493h14.463c.307 0 .558-.245.558-.546v-2.192h-4.608c-1.57 0-2.846-1.247-2.846-2.78 0-1.534 1.277-2.781 2.846-2.781h4.608v-1.72c0-.3-.25-.545-.558-.545H5.253c-.565 0-1.09-.167-1.528-.454zm16.549 3.915h-4.608c-.894 0-1.621.711-1.621 1.585 0 .873.727 1.584 1.62 1.584h4.609V12.2zm-4.382.718c.49 0 .887.388.887.867 0 .478-.397.867-.887.867s-.887-.389-.887-.867c0-.48.397-.867.887-.867zm1.798-8.223H5.253c-.819 0-1.49.633-1.527 1.424.038.79.708 1.423 1.527 1.423h12.995V5.242c0-.3-.25-.546-.558-.546z"/>
        </g>
    </g>
</svg>
