<svg xmlns="http://www.w3.org/2000/svg" width="24" height="24" viewBox="0 0 24 24">
    <g fill="none" fill-rule="evenodd">
        <g fill="#8F8DA1">
            <path d="M21.816 17.04l-5.174-5.161 4.42-4.414c.605-.605.938-1.409.938-2.264 0-.855-.333-1.659-.938-2.263C20.458 2.333 19.654 2 18.8 2s-1.66.333-2.264.938l-4.408 4.408-5.176-5.164C6.833 2.065 6.673 2 6.508 2c-.167 0-.326.067-.442.185L2.18 6.108c-.242.245-.241.64.003.883l5.155 5.142-3.75 3.751c-.077.077-.132.171-.16.275l-1.406 5.048c-.06.218.001.452.161.611.119.118.278.182.441.182.057 0 .114-.008.17-.024l5.05-1.434c.212-.06.378-.23.433-.443.056-.215-.005-.443-.162-.6l-3.183-3.192L16.35 4.891l2.759 2.758-7.678 7.662c-.118.117-.184.277-.183.443 0 .166.066.326.184.443l5.649 5.622c.117.116.275.181.44.181.169 0 .328-.067.444-.185l3.855-3.893c.242-.244.241-.64-.003-.882zM6.481 19.63l-2.955.84.827-2.974 2.128 2.134zm1.742-8.38L3.508 6.544 6.513 3.51l4.73 4.72-3.02 3.02zm9.01-7.243l.186-.185c.368-.369.858-.572 1.38-.572.52 0 1.01.203 1.38.572.368.368.571.858.571 1.38 0 .52-.203 1.01-.571 1.378l-.186.186-2.76-2.759zm.284 16.484l-4.76-4.739 3-2.99 4.735 4.724-2.975 3.005z"/>
        </g>
    </g>
</svg>
