<?xml version="1.0" encoding="UTF-8"?>
<svg width="24px" height="24px" viewBox="0 0 24 24" version="1.1" xmlns="http://www.w3.org/2000/svg" xmlns:xlink="http://www.w3.org/1999/xlink">
    <title>Icons/Inbox</title>
    <g id="Icons/Inbox" stroke="none" stroke-width="1" fill="none" fill-rule="evenodd">
        <path d="M17.3125,19.78125 L6.6875,19.78125 C4.1028125,19.78125 2,17.6784375 2,15.09375 L2,8.6875 C2,6.1028125 4.1028125,4 6.6875,4 L17.3125,4 C19.8971875,4 22,6.1028125 22,8.6875 L22,15.09375 C22,17.6784375 19.8971875,19.78125 17.3125,19.78125 Z M6.6875,5.5625 C4.964375,5.5625 3.5625,6.964375 3.5625,8.6875 L3.5625,15.09375 C3.5625,16.816875 4.964375,18.21875 6.6875,18.21875 L17.3125,18.21875 C19.035625,18.21875 20.4375,16.816875 20.4375,15.09375 L20.4375,8.6875 C20.4375,6.964375 19.035625,5.5625 17.3125,5.5625 L6.6875,5.5625 Z M14.8627344,13.2736719 L18.7242578,10.3239844 C19.0671484,10.0620703 19.1327734,9.57179687 18.8708594,9.22890625 C18.6089062,8.88601562 18.1186719,8.82039062 17.7757812,9.08230469 L13.9147266,12.0316406 C12.7998437,12.8819922 11.2428516,12.8826172 10.1272266,12.0337891 L6.38578125,9.12539062 C6.04511719,8.86054687 5.55425781,8.92207031 5.28949219,9.26273437 C5.0246875,9.60339844 5.08617188,10.0942187 5.42683594,10.3590234 L9.17117188,13.2696484 C9.17304688,13.2711328 9.17496094,13.2725781 9.176875,13.2740234 C10.01375,13.9123047 11.0164844,14.2314062 12.0194531,14.2314062 C13.0224219,14.2314062 14.0255859,13.9121094 14.8627344,13.2736719 L14.8627344,13.2736719 Z" id="Shape" fill="#8F8DA1"></path>
    </g>
</svg>