<svg xmlns="http://www.w3.org/2000/svg" width="24" height="24" viewBox="0 0 24 24">
    <defs>
        <linearGradient id="rnjh3b019a" x1="50%" x2="50%" y1="100%" y2="0%">
            <stop offset="0%" stop-color="#54B478"/>
            <stop offset="100%" stop-color="#87D8A5"/>
        </linearGradient>
    </defs>
    <g fill="none" fill-rule="evenodd">
        <g fill="url(#rnjh3b019a)" fill-rule="nonzero" transform="translate(-24 -328)">
            <g>
                <g>
                    <g>
                        <path d="M15.013 3c1.341 0 2.586.661 3.318 1.749l.123.196 3.014 5.11c.668 1.133.707 2.513.118 3.675l-.118.215-3.014 5.11c-.67 1.137-1.877 1.861-3.205 1.938l-.236.007H8.987c-1.341 0-2.586-.661-3.318-1.749l-.123-.196-3.014-5.11c-.668-1.133-.707-2.513-.118-3.675l.118-.215 3.014-5.11c.67-1.137 1.877-1.861 3.205-1.938L8.987 3h6.026zm0 1.3H9.024l-.198.005c-.836.048-1.597.474-2.06 1.142l-.1.158-2.994 5.074-.098.18c-.36.71-.364 1.54-.016 2.25l.094.176 2.993 5.076.103.164c.456.678 1.214 1.11 2.046 1.168l.193.007h5.989l.198-.005c.836-.048 1.597-.474 2.06-1.142l.1-.158 2.994-5.074.098-.18c.36-.71.364-1.54.016-2.25l-.094-.176-2.993-5.076-.103-.164c-.456-.678-1.214-1.11-2.046-1.168l-.193-.007zM12 7.044c2.792 0 5.062 2.223 5.062 4.956 0 2.733-2.27 4.956-5.062 4.956-2.792 0-5.062-2.223-5.062-4.956 0-2.733 2.27-4.956 5.062-4.956zm0 1.3c-2.08 0-3.762 1.647-3.762 3.656 0 2.01 1.682 3.656 3.762 3.656s3.762-1.647 3.762-3.656c0-2.01-1.682-3.656-3.762-3.656z" transform="translate(-220) translate(236 320) translate(8 8)"/>
                    </g>
                </g>
            </g>
        </g>
    </g>
</svg>
