<svg xmlns="http://www.w3.org/2000/svg" width="24" height="24" viewBox="0 0 24 24">
    <defs>
        <linearGradient id="f1z1t2t2da" x1="50%" x2="50%" y1="100%" y2="0%">
            <stop offset="0%" stop-color="#54B478"/>
            <stop offset="100%" stop-color="#87D8A5"/>
        </linearGradient>
    </defs>
    <g fill="none" fill-rule="evenodd">
        <g fill="url(#f1z1t2t2da)" fill-rule="nonzero">
            <path d="M19.875 11.476c0-6.595.018-6.175-.041-6.327.126-.325-.048-.688-.367-.783l-7.875-2.343c-.101-.03-.208-.03-.309 0L3.408 4.366C3.166 4.438 3 4.668 3 4.93c0 .261.166.491.408.563l2.967.883V9.031c0 2.277 1.128 4.254 2.77 5.224l-.31.646c-1.518.09-2.937.764-4.026 1.92C3.642 18.06 3 19.69 3 21.414c0 .324.252.586.563.586h15.75c.31 0 .562-.262.562-.586 0-1.724-.642-3.355-1.809-4.593-1.09-1.156-2.508-1.829-4.026-1.92l-.31-.646c1.642-.97 2.77-2.947 2.77-5.224V6.376l2.25-.67v5.77c-.655.242-1.125.893-1.125 1.657v1.172c0 .323.252.586.563.586h2.25c.31 0 .562-.263.562-.586v-1.172c0-.764-.47-1.415-1.125-1.657zm-9 9.352h-6.72c.267-2.574 2.267-4.605 4.737-4.756l1.983 3.098v1.658zm-1.038-5.394l.348-.725c.4.118.82.182 1.252.182.433 0 .852-.064 1.253-.182l.348.725-1.6 2.502-1.601-2.502zm4.146.638c2.47.15 4.47 2.182 4.737 4.756H12V19.17l1.983-3.098zm-2.546-2.353c-1.908 0-3.503-1.625-3.862-3.773 1.188.552 2.516.843 3.862.843 1.347 0 2.675-.291 3.863-.843-.359 2.148-1.954 3.773-3.863 3.773zm3.926-5.35c-.033.17-.13.313-.264.382-1.108.567-2.374.866-3.662.866-1.287 0-2.553-.3-3.66-.866-.184-.094-.277-.312-.277-.51v-1.53c4.082 1.215 3.825 1.148 3.938 1.148.112 0-.146.067 3.937-1.148 0 1.682.004 1.573-.012 1.659zm-3.925-1.705L5.61 4.93l5.827-1.735 5.828 1.735-5.828 1.734zm8.437 7.055H18.75v-.586c0-.323.252-.586.563-.586.31 0 .562.263.562.586v.586z"/>
        </g>
    </g>
</svg>
