<svg xmlns="http://www.w3.org/2000/svg" width="24" height="24" viewBox="0 0 24 24">
    <g fill="none" fill-rule="evenodd">
        <g fill="#8F8DA1">
            <path d="M20.246 18.266c-.334-1.658-1.664-2.92-3.294-3.226 1.045-1.215 1.553-2.702 1.553-4.173V8.445C18.505 4.891 15.587 2 12 2 8.413 2 5.495 4.891 5.495 8.445v2.16c0 1.632.589 3.206 1.618 4.423-1.66.284-3.02 1.558-3.36 3.238L3 22h18l-.754-3.734zm-2.924-9.82v2.421c0 1.61-.72 3.093-1.981 4.102h-.774c-.31 0-.58-.179-.71-.437 1.353-.676 2.282-2.065 2.282-3.665v-4.18h-.591c-1.63 0-2.957-1.314-2.957-2.93v-.552c2.658.292 4.731 2.53 4.731 5.24zM12 18.018l-1.488-2.198c.339-.22.605-.54.757-.916.237.042.482.064.731.064.25 0 .494-.022.731-.064.152.377.418.697.757.916L12 18.02zm0-4.222c-1.63 0-2.957-1.314-2.957-2.93v-3.05c.88-.124 1.693-.525 2.334-1.16.243-.24.451-.505.624-.788.628 1.033 1.702 1.77 2.956 1.949v3.05c0 1.615-1.327 2.929-2.957 2.929zM6.678 8.445c0-2.71 2.073-4.948 4.73-5.24v.553c0 .78-.307 1.515-.867 2.07-.56.554-1.301.86-2.089.86h-.591v4.18c0 1.6.93 2.988 2.281 3.664-.13.258-.398.437-.71.437h-.711c-1.283-1.055-2.043-2.67-2.043-4.363v-2.16zm-1.765 10.05c.276-1.364 1.495-2.354 2.9-2.354h1.491l2.105 3.108v1.58H4.443l.47-2.333zm7.678 2.333v-1.58l2.105-3.107h1.491c1.405 0 2.624.99 2.9 2.355l.47 2.332h-6.966z"/>
        </g>
    </g>
</svg>
