<svg xmlns="http://www.w3.org/2000/svg" width="24" height="24" viewBox="0 0 24 24">
    <defs>
        <linearGradient id="w5kwe152ja" x1="50%" x2="50%" y1="100%" y2="0%">
            <stop offset="0%" stop-color="#54B478"/>
            <stop offset="100%" stop-color="#87D8A5"/>
        </linearGradient>
    </defs>
    <path fill="url(#w5kwe152ja)" d="M8.375 13.574v5.88c0 .301-.245.546-.547.546-.302 0-.547-.245-.547-.547v-5.879c0-.302.245-.547.547-.547.302 0 .547.245.547.547zm1.504-7.386h6.84c.603 0 1.093.49 1.093 1.093v3.461c0 .302.245.547.547.547.302 0 .547-.245.547-.547v-3.46c0-1.207-.981-2.188-2.187-2.188h-6.84c-.302 0-.547.245-.547.547 0 .302.245.546.547.546zm-5.238 7.78c-.302 0-.547-.245-.547-.546v-2.375V9.44c0-.301.245-.546.547-.546H7.79c.173 0 .335.081.438.22l1.517 3.032c.135.27.464.38.734.244.27-.135.38-.463.244-.733L9.19 8.59c-.01-.02-.022-.04-.034-.059-.288-.432-.76-.7-1.274-.728l-3.24-.002C3.736 7.8 3 8.537 3 9.44v3.98c0 .714.457 1.322 1.094 1.548v4.484c0 .302.245.547.547.547.302 0 .546-.245.546-.547v-4.937c0-.302-.244-.547-.546-.547zm-.047-8.327C4.594 4.736 5.33 4 6.234 4c.905 0 1.641.736 1.641 1.64 0 .905-.736 1.641-1.64 1.641-.905 0-1.641-.736-1.641-1.64zm1.093 0c0 .301.246.546.547.546.302 0 .547-.245.547-.546 0-.302-.245-.547-.547-.547-.301 0-.546.245-.546.547zm13.766 8.656h-.547v-.82c0-.302-.245-.547-.547-.547-.302 0-.547.245-.547.547v.82h-7.796c-.302 0-.547.245-.547.547 0 .302.245.547.547.547h9.437c.302 0 .547-.245.547-.547 0-.302-.245-.547-.547-.547z"/>
</svg>
