<svg xmlns="http://www.w3.org/2000/svg" width="24" height="24" viewBox="0 0 24 24">
    <defs>
        <linearGradient id="4q20ztpeya" x1="50%" x2="50%" y1="100%" y2="0%">
            <stop offset="0%" stop-color="#54B478"/>
            <stop offset="100%" stop-color="#87D8A5"/>
        </linearGradient>
    </defs>
    <path fill="url(#4q20ztpeya)" d="M12.953 3c.667 0 1.319.271 1.787.745l.003.003 2.033 2.09c.462.468.717 1.087.717 1.743v5.547c1.974.244 3.507 1.91 3.507 3.92C21 19.229 19.202 21 16.992 21c-1.064 0-2.03-.417-2.745-1.096H5.503c-.829 0-1.503-.67-1.503-1.494V4.494C4 3.67 4.674 3 5.503 3zm4.039 11.094c-1.64 0-2.973 1.325-2.973 2.955 0 1.63 1.333 2.955 2.973 2.955 1.657 0 3.006-1.326 3.006-2.955 0-1.63-1.349-2.955-3.006-2.955zm-4.04-10.098H5.504c-.276 0-.5.224-.5.498V18.41c0 .275.224.498.5.498h7.982c-.299-.554-.468-1.187-.468-1.86 0-2.01 1.517-3.673 3.474-3.919V7.581c0-.394-.154-.766-.432-1.047l-.002-.003-2.033-2.09c-.28-.283-.671-.445-1.071-.445zm4.49 11.937c.177-.211.493-.24.705-.064.213.176.242.49.065.702l-1.336 1.594c-.096.114-.238.179-.385.179-.02 0-.039-.001-.058-.004-.168-.019-.315-.121-.39-.272l-.535-1.062c-.124-.246-.023-.545.224-.668.248-.123.549-.024.672.223l.192.38zm-6.87-4.431c.236 0 .428.223.428.498s-.192.498-.429.498H7.43C7.192 12.498 7 12.275 7 12s.192-.498.429-.498zm2.463 0c.277 0 .502.223.502.498s-.225.498-.502.498h-.534c-.277 0-.501-.223-.501-.498s.224-.498.501-.498zm-2.464-2.5c.237 0 .429.223.429.498s-.192.498-.429.498H7.43C7.192 9.998 7 9.775 7 9.5s.192-.498.429-.498zm2.464 0c.277 0 .502.223.502.498s-.225.498-.502.498h-.534c-.277 0-.501-.223-.501-.498s.224-.498.501-.498zm-2.464-2.5c.237 0 .429.223.429.498s-.192.498-.429.498H7.43C7.192 7.498 7 7.275 7 7s.192-.498.429-.498zm2.464 0c.277 0 .502.223.502.498s-.225.498-.502.498h-.534C12.224 7.498 12 7.275 12 7s.224-.498.501-.498z"/>
</svg>
