<svg xmlns="http://www.w3.org/2000/svg" width="20" height="20" viewBox="0 0 20 20">
    <g fill="none" fill-rule="evenodd" opacity=".8">
        <g fill="#151A3B">
            <g>
                <g>
                    <path d="M12.913.833c.168 0 .329.065.45.182l.012.012 3.934 4c.118.12.186.281.19.45l.001.018v10.823c0 1.327-1.057 2.41-2.364 2.432H4.903c-1.312 0-2.381-1.07-2.403-2.392V3.265C2.5 1.938 3.557.855 4.864.834H12.914zM12.68 1.98H4.765c-.611 0-1.11.497-1.119 1.11V16.475c0 .617.492 1.119 1.1 1.13h10.489c.611 0 1.11-.497 1.119-1.111V5.676L12.68 1.98zm.03 11.563c.345 0 .623.256.623.573 0 .312-.271.566-.61.572H6.457c-.344 0-.623-.256-.623-.572 0-.313.272-.567.61-.573h6.268zm.105-2.709c.344 0 .623.257.623.573 0 .313-.272.567-.61.573H6.56c-.344 0-.622-.256-.622-.573 0-.312.271-.566.609-.573h6.268zm-.104-2.5c.344 0 .622.257.622.573 0 .313-.271.567-.61.573H6.457c-.344 0-.623-.256-.623-.573 0-.312.272-.566.61-.573h6.268zM9.377 5c.344 0 .623.257.623.573 0 .312-.272.566-.61.573H6.456c-.344 0-.623-.257-.623-.573 0-.312.272-.566.61-.573H9.377z" transform="translate(-577 -368) translate(460 159) translate(117 209)"/>
                </g>
            </g>
        </g>
    </g>
</svg>
