<?xml version="1.0" encoding="UTF-8"?>
<svg width="24px" height="24px" viewBox="0 0 24 24" version="1.1" xmlns="http://www.w3.org/2000/svg" xmlns:xlink="http://www.w3.org/1999/xlink">
    <title>Icons/Expances</title>
    <g id="Icons/Expances" stroke="none" stroke-width="1" fill="none" fill-rule="evenodd">
        <path d="M14.3409057,17.4097179 C14.6386272,17.1195883 15.1136291,17.1272314 15.4021498,17.4265827 C15.6901475,17.72644 15.6825605,18.205004 15.385147,18.4948705 L15.385147,18.4948705 L12.521904,21.2870845 C12.3762039,21.4291136 12.1883902,21.5 12.0000542,21.5 C11.8117182,21.5 11.6239046,21.4291204 11.4782045,21.2870845 L11.4782045,21.2870845 L8.61522938,18.4948705 C8.31755403,18.2049973 8.30996702,17.7264602 8.59796541,17.4265827 C8.88651291,17.1272307 9.36151472,17.1198507 9.65840592,17.4094541 L9.65840592,17.4094541 L11.9997991,19.6928215 Z M11.9997991,14.4308606 C12.4138638,14.4308606 12.749728,14.7691967 12.749728,15.1863389 L12.749728,15.1863389 L12.749728,17.9664479 C12.749728,18.3835766 12.4138638,18.7219262 11.9997991,18.7219262 C11.5857345,18.7219262 11.2498703,18.3835901 11.2498703,17.9664479 L11.2498703,17.9664479 L11.2498703,15.1863389 C11.2498703,14.7692102 11.5857345,14.4308606 11.9997991,14.4308606 Z M21.2500711,2.5 C21.6641358,2.5 22,2.83833611 22,3.25547835 L22,3.25547835 L22,15.1865288 C22,15.6036575 21.6641492,15.9420134 21.2500711,15.9420134 L21.2500711,15.9420134 L16.2419071,15.9417436 L14.750113,15.9417436 C14.3360483,15.9417436 14.0001842,15.6034074 14.0001842,15.1862652 C14.0001842,14.7691365 14.336035,14.4307869 14.750113,14.4307869 L14.750113,14.4307869 L15.5479601,14.4307869 C15.8898109,11.8815618 17.928795,9.86169779 20.4998744,9.5275644 L20.4998744,9.5275644 L20.4998744,8.92302261 C17.9283263,8.58835629 15.889322,6.5650451 15.5479601,4.01136773 L15.5479601,4.01136773 L8.45203989,4.01136773 C8.11065786,6.56511256 6.07167371,8.58862613 3.4998577,8.92302261 L3.4998577,8.92302261 L3.4998577,9.5275644 C6.071138,9.86148867 8.11015564,11.881292 8.45203989,14.4310567 L8.45203989,14.4310567 L9.249887,14.4310567 C9.66395165,14.4310567 9.99981585,14.7693928 9.99981585,15.186535 C9.99981585,15.6036638 9.66396504,15.9420134 9.249887,15.9420134 L9.249887,15.9420134 L7.75836072,15.9417498 L2.74992885,15.9417498 C2.3358642,15.9417498 2,15.6034137 2,15.1862715 L2,15.1862715 L2,3.25589565 C2,2.83876691 2.3358508,2.5004173 2.74992885,2.5004173 L2.74992885,2.5004173 Z M3.49972377,11.0496582 L3.49972377,14.4307931 L6.93919119,14.4307931 C6.62191617,12.7132081 5.24286137,11.3563895 3.49972377,11.0496582 L3.49972377,11.0496582 Z M20.4998075,11.0493209 C18.7569377,11.356059 17.3778963,12.7128708 17.0603401,14.4304558 L17.0603401,14.4304558 L20.4998075,14.4304558 Z M11.9995313,5.90612633 C13.810972,5.90612633 15.284446,7.39340476 15.284446,9.22115102 C15.284446,11.0491671 13.8107042,12.5359059 11.9995313,12.5359059 C10.1883583,12.5359059 8.71461655,11.0491671 8.71461655,9.22115102 C8.71461655,7.39313493 10.1880905,5.90612633 11.9995313,5.90612633 Z M11.9995313,7.41742033 C11.0154966,7.41742033 10.2148091,8.22639402 10.2148091,9.22115102 C10.2148091,10.215908 11.0154966,11.0248817 11.9995313,11.0248817 C12.9838338,11.0248817 13.7845213,10.215908 13.7845213,9.22115102 C13.7845213,8.22666385 12.9838338,7.41742033 11.9995313,7.41742033 Z M6.93945904,4.01110416 L3.49972377,4.01110416 L3.49972377,7.40067154 C5.24312922,7.09292154 6.62268626,5.73266925 6.93945904,4.01110416 L6.93945904,4.01110416 Z M20.4998075,4.01110416 L17.0603401,4.01110416 C17.3770794,5.73260179 18.7561342,7.09288107 20.4998075,7.4004017 L20.4998075,7.4004017 L20.4998075,4.01110416 Z" id="Combined-Shape" fill="#151a3b"></path>
    </g>
</svg>