<svg xmlns="http://www.w3.org/2000/svg" width="20" height="20" viewBox="0 0 20 20">
    <g fill="none" fill-rule="evenodd" opacity=".8">
        <g fill="#151A3B">
            <g>
                <g>
                    <g>
                        <path d="M14.742 2.917c.82 0 1.486.65 1.486 1.451v1.918h.202c.819 0 1.485.651 1.485 1.452v7.894c0 .8-.666 1.451-1.485 1.451H4.377c-1.265 0-2.294-1.005-2.294-2.24.007-2.395.011-4.361.013-5.9l.001-.524v-.25l.001-.693v-1.46V5.5v-.107l-.002-.187c0-.113 0-.202-.002-.267-.012-1.03 1.094-2.022 2.283-2.022zM3.104 6.905v7.937c0 .686.571 1.244 1.273 1.244H16.43c.256 0 .465-.204.465-.454v-1.827h-3.84c-1.308 0-2.372-1.04-2.372-2.317 0-1.278 1.064-2.317 2.372-2.317h3.84V7.738c0-.251-.209-.455-.465-.455H4.377c-.47 0-.909-.14-1.273-.378zm13.79 3.263h-3.839c-.745 0-1.351.592-1.351 1.32 0 .728.606 1.32 1.351 1.32h3.84v-2.64zm-3.65.598c.408 0 .739.323.739.722 0 .399-.331.722-.74.722-.408 0-.74-.323-.74-.722 0-.399.332-.722.74-.722zm1.498-6.852H4.377c-.682 0-1.24.527-1.272 1.186.032.66.59 1.186 1.272 1.186h10.83V4.368c0-.25-.209-.454-.465-.454z" transform="translate(-843 -368) translate(460 159) translate(326 163) translate(57 46)"/>
                    </g>
                </g>
            </g>
        </g>
    </g>
</svg>
