<svg xmlns="http://www.w3.org/2000/svg" width="20" height="20" viewBox="0 0 20 20">
    <g fill="none" fill-rule="evenodd" opacity=".803">
        <g fill="#151A3B">
            <g>
                <g>
                    <path d="M18.18 14.2l-4.312-4.301 3.684-3.678c.504-.504.781-1.174.781-1.887 0-.712-.277-1.382-.781-1.886s-1.174-.781-1.886-.781c-.713 0-1.383.277-1.887.781l-3.673 3.673-4.314-4.303c-.098-.097-.23-.152-.369-.151-.138 0-.27.056-.368.154l-3.238 3.27c-.202.203-.2.532.003.735l4.296 4.285-3.126 3.126c-.063.063-.11.142-.133.229l-1.171 4.207c-.05.181 0 .376.134.509.1.098.232.151.368.151.047 0 .095-.006.142-.02l4.207-1.195c.178-.05.315-.19.362-.37.046-.178-.005-.368-.135-.498L4.11 13.59l9.514-9.514 2.298 2.298-6.398 6.385c-.098.098-.153.23-.153.37 0 .138.056.27.154.368l4.707 4.685c.098.097.23.151.367.151.14 0 .273-.056.37-.154l3.213-3.244c.202-.204.2-.533-.003-.735zM5.4 16.358l-2.462.7.69-2.478L5.4 16.358zm1.453-6.983l-3.93-3.921 2.504-2.529L9.37 6.858 6.853 9.375zm7.508-6.036l.155-.154c.307-.308.715-.477 1.15-.477.434 0 .842.17 1.15.477.306.307.476.715.476 1.15 0 .434-.17.842-.476 1.149l-.156.155-2.299-2.3zm.236 13.737l-3.966-3.949 2.5-2.493 3.946 3.937-2.48 2.505z" transform="translate(-710 -368) translate(460 159) translate(250 209)"/>
                </g>
            </g>
        </g>
    </g>
</svg>
