<svg xmlns="http://www.w3.org/2000/svg" width="20" height="20" viewBox="0 0 20 20">
    <g fill="none" fill-rule="evenodd" opacity=".8">
        <g fill="#151A3B">
            <g>
                <g>
                    <path d="M10 1.667c4.6.005 8.328 3.733 8.333 8.333 0 4.602-3.73 8.333-8.333 8.333-4.602 0-8.333-3.73-8.333-8.333 0-4.602 3.73-8.333 8.333-8.333zm0 1.19c-3.945 0-7.143 3.198-7.143 7.143S6.055 17.143 10 17.143c3.943-.004 7.139-3.2 7.143-7.143 0-3.945-3.198-7.143-7.143-7.143zm.568 2.56c.377 0 .682.331.682.74v5.186c0 .409-.305.74-.682.74H6.932c-.377 0-.682-.331-.682-.74 0-.41.305-.741.682-.741h2.954V6.157c0-.409.306-.74.682-.74z" transform="translate(-843 -508) translate(786 462) translate(57 46)"/>
                </g>
            </g>
        </g>
    </g>
</svg>
