<svg xmlns="http://www.w3.org/2000/svg" width="20" height="20" viewBox="0 0 20 20">
    <g fill="none" fill-rule="evenodd" opacity=".8">
        <g fill="#151A3B">
            <g>
                <g>
                    <path d="M16.563 9.563c0-5.496.014-5.146-.035-5.272.105-.27-.04-.573-.305-.652L9.66 1.685c-.084-.025-.173-.025-.258 0L2.84 3.64c-.201.06-.34.251-.34.47 0 .217.139.409.34.469l2.473.735v2.213c0 1.897.94 3.545 2.308 4.353l-.259.539c-1.265.075-2.447.636-3.355 1.6-.972 1.03-1.507 2.39-1.507 3.827 0 .27.21.488.469.488h13.125c.259 0 .468-.218.468-.488 0-1.437-.535-2.796-1.507-3.827-.908-.963-2.09-1.525-3.355-1.6l-.258-.54c1.368-.807 2.308-2.455 2.308-4.352V5.313l1.875-.558v4.808c-.546.202-.938.744-.938 1.381v.977c0 .27.21.488.47.488h1.874c.26 0 .469-.219.469-.488v-.977c0-.637-.392-1.18-.938-1.38zm-7.5 7.794h-5.6c.222-2.146 1.889-3.838 3.947-3.964l1.652 2.582v1.382zm-.866-4.495l.29-.605c.334.1.684.152 1.044.152s.71-.053 1.044-.152l.29.605-1.334 2.085-1.334-2.085zm3.455.531c2.059.126 3.726 1.818 3.948 3.964H10v-1.382l1.652-2.582zm-2.12-1.96c-1.591 0-2.92-1.355-3.22-3.145.99.46 2.097.703 3.22.703 1.121 0 2.228-.243 3.218-.703-.3 1.79-1.629 3.144-3.219 3.144zm3.27-4.458c-.027.141-.107.26-.22.317-.923.473-1.978.722-3.05.722-1.074 0-2.13-.25-3.052-.722-.153-.078-.23-.26-.23-.424V5.592c3.402 1.013 3.187.957 3.281.957.094 0-.121.056 3.281-.957 0 1.402.004 1.311-.01 1.383zm-3.27-1.422L4.674 4.108l4.856-1.445 4.856 1.445-4.856 1.445zm7.03 5.88h-.937v-.489c0-.27.21-.488.469-.488.258 0 .468.219.468.488v.488z" transform="translate(-577 -368) translate(460 159) translate(117 209)"/>
                </g>
            </g>
        </g>
    </g>
</svg>
