<svg xmlns="http://www.w3.org/2000/svg" width="20" height="20" viewBox="0 0 20 20">
    <g fill="none" fill-rule="evenodd" opacity=".8">
        <g fill="#151A3B">
            <g>
                <g>
                    <path d="M16.872 15.222c-.279-1.382-1.387-2.434-2.745-2.688.87-1.013 1.294-2.252 1.294-3.478V7.038c0-2.962-2.432-5.371-5.421-5.371-2.989 0-5.42 2.41-5.42 5.37v1.801c0 1.36.49 2.671 1.347 3.686-1.383.236-2.516 1.298-2.799 2.698L2.5 18.333h15l-.628-3.111zm-2.437-8.184v2.018c0 1.34-.6 2.577-1.651 3.418h-.645c-.259 0-.483-.149-.591-.364 1.127-.563 1.901-1.72 1.901-3.054V5.573h-.492c-1.359 0-2.464-1.095-2.464-2.441V2.67c2.214.243 3.942 2.109 3.942 4.367zM10 15.016l-1.24-1.831c.282-.184.504-.45.63-.764.199.035.402.053.61.053.208 0 .411-.018.61-.053.126.314.348.58.63.764L10 15.015zm0-3.519c-1.359 0-2.464-1.095-2.464-2.441V6.515c.733-.104 1.41-.438 1.945-.968.202-.2.376-.42.52-.656.523.86 1.418 1.475 2.463 1.624v2.541c0 1.346-1.105 2.441-2.464 2.441zm-4.435-4.46c0-2.257 1.728-4.123 3.942-4.366v.46c0 .65-.257 1.264-.723 1.726-.466.462-1.084.716-1.74.716H6.55v3.483c0 1.333.774 2.49 1.901 3.054-.108.215-.332.364-.591.364h-.594c-1.068-.879-1.702-2.225-1.702-3.636v-1.8zm-1.47 8.376c.229-1.137 1.245-1.962 2.416-1.962h1.242l1.754 2.59v1.316H3.702l.393-1.944zm6.398 1.944V16.04l1.754-2.59h1.242c1.17 0 2.187.825 2.416 1.962l.393 1.944h-5.805z" transform="translate(-710 -368) translate(460 159) translate(250 209)"/>
                </g>
            </g>
        </g>
    </g>
</svg>
