<svg xmlns="http://www.w3.org/2000/svg" xmlns:xlink="http://www.w3.org/1999/xlink" width="60" height="60" viewBox="0 0 60 60">
    <defs>
        <circle id="oue0j6tzca" cx="30" cy="30" r="30"/>
    </defs>
    <g fill="none" fill-rule="evenodd">
        <g>
            <mask id="4hkr0zmzwb" fill="#fff">
                <use xlink:href="#oue0j6tzca"/>
            </mask>
            <use fill="#F2F2F6" fill-rule="nonzero" xlink:href="#oue0j6tzca"/>
            <path fill="#434866" d="M29.5 13.5c6.5 0 8.985 5.7 9.025 7.15l.001.11-.114 4.02.005.144.004.218v.102l-.004.234-.008.202-.005.072.001.014.01.16.015.438c.018.619.017 1.266-.005 1.932l.014-.013c.556-.48 1.186-.644 1.82-.27 1.1.647.982 2.985.072 4.41-.75 1.173-1.827 1.705-2.575 1.177l-.025.11c-.044.187-.09.37-.137.552l-.074.27-.091.317c-.442 1.486-1.023 2.766-1.754 3.809l-.002.08c.011.02.019.042.023.065l.002.034v6.655l.01.04c.208.744 1.342 1.505 3.1 2.202l.14.055c.74.287 1.533.543 2.326.765l.323.089.154.04.398.101.18.043c.045.01.084.034.112.066l.155.083.267.149.285.166.25.152.184.114.196.124.102.066.212.139.223.15.23.158.12.084.243.174.25.183.129.096.26.198c.174.135.352.277.533.425l.272.227.275.237C49.201 54.068 52 57.545 52 62.025H8c0-5.392 4.054-9.33 6.892-11.427l.258-.188.25-.178.242-.167.118-.08.226-.151.11-.072.21-.134.197-.125.271-.165.163-.097.214-.124.31-.172.134-.07.056.022.186-.033c1.637-.31 2.965-.867 4.015-1.6.582-.405 1.041-.839 1.391-1.271.097-.12.18-.233.249-.336l.082-.13.03-.05v-6.628c0-.043.012-.082.033-.115-.7-.955-1.276-2.116-1.734-3.456l-.084-.254-.1-.318c-.099-.32-.19-.651-.277-.99l-.037-.149c-.746.582-1.85.052-2.615-1.144-.91-1.423-1.025-3.763.07-4.41.626-.37 1.248-.214 1.8.254-.016-.3-.028-.589-.035-.864l-.005-.205-.005-.379v-.36l.001-.172.008-.374.007-.164-.003-.137v-.14c.003-.455.033-.928.096-1.411v-3.319C20.5 18.5 22.486 13.5 29.5 13.5zm-5.472 25.73v6.3c0 .033-.007.065-.022.094l-.043.081c-.051.09-.125.204-.223.339l-.107.14-.06.076c-.374.462-.863.923-1.478 1.353-1.003.699-2.242 1.243-3.74 1.577l11.333 4.706 12.08-4.77-.202-.052-.407-.111c-.805-.226-1.61-.486-2.364-.778l-.284-.112-.273-.114c-1.655-.703-2.713-1.468-2.943-2.326l-.016-.07-.005-.044V41.27c-.21.636-.49 1.16-.805 1.59-1.394 1.825-3.912 2.343-5.909 1.233l-.104-.06c-1.298-.738-2.365-1.874-3.135-2.877l-.166-.22-.156-.215c-.05-.07-.1-.14-.146-.208l-.136-.2-.184-.28-.16-.256-.136-.225-.11-.19c-.01-.02-.021-.038-.031-.055l-.068-.079zm-1.051-20.295c-.774.381-.722 2.465-.568 3.314.14.923-.054 2.058-.347 3.113l-.083.285-.043.14-.087.278-.045.136-.092.265-.092.256-.045.125-.092.24-.09.227-.086.214-.122.29-.11.254c.012.253.027.516.046.786.117 1.637.352 3.248.733 4.753 1.232 4.87 3.718 7.765 7.8 7.765s6.517-2.894 7.664-7.763c.426-1.809.631-3.68.685-5.42l-.09-.196-.101-.229-.072-.169-.073-.181-.076-.194-.077-.204-.076-.215c-.026-.073-.05-.148-.076-.224l-.074-.233-.072-.241c-.329-1.144-.553-2.526-.303-3.81l.028-.137C37 20 36.506 19.937 36.5 20c-4.5 2-13.516-1.044-13.523-1.065zm9.804 14.819c.067.088.05.214-.04.281-.805.608-1.785.942-2.804.954-1.064-.037-2.098-.364-2.99-.946-.093-.06-.12-.185-.059-.278.06-.093.185-.12.278-.059.83.543 1.794.847 2.776.881.924-.01 1.82-.316 2.558-.873.088-.066.214-.049.28.04zm-13.705-5.376c-.829.49-.726 2.569.071 3.816.709 1.109 1.64 1.492 2.146.892-.167-.745-.3-1.51-.402-2.288-.113-.197-.234-.364-.36-.506l-.03.02c-.082.055-.164.12-.24.194-.397.384-.481.82-.067 1.323.037.045.03.112-.015.15-.045.036-.112.03-.15-.015-.492-.6-.385-1.156.085-1.611.084-.082.174-.153.264-.215l-.08-.07c-.39-.322-.784-.399-1.125-.336l-.067.016c-.056.018-.116-.012-.134-.068-.019-.055.011-.115.067-.134l.038-.01.057-.013c.448-.082.97.041 1.459.527.025.012.045.028.058.052l.006.015.012.013c.056.06.11.125.163.194-.037-.316-.069-.635-.096-.955l-.036-.455-.037-.044c-.076-.09-.165-.181-.262-.265-.433-.374-.878-.49-1.325-.227zm19.64.227c-.098.084-.186.174-.263.265l-.047.057-.01.013c-.024.45-.059.905-.105 1.365.074-.095.15-.182.229-.26.487-.482 1.005-.604 1.451-.522l.057.013c.016.003.029.007.038.01.056.019.086.079.068.134-.019.056-.079.086-.134.068l-.055-.014-.012-.002c-.363-.067-.784.025-1.196.4.096.066.187.138.272.22.468.456.575 1.012.082 1.612-.038.045-.105.051-.15.014s-.052-.104-.014-.15c.414-.502.33-.938-.066-1.323-.076-.074-.157-.138-.239-.194l-.038-.026c-.12.133-.235.29-.343.471-.09.788-.215 1.582-.38 2.37.515.542 1.42.151 2.112-.932.798-1.25.903-3.326.071-3.816-.448-.264-.894-.148-1.328.227zm-9.622-.24c.1 0 .183.074.199.17l.002.032v3.324c0 .074.013.147.038.209.11.246.374.38.637.331l.052-.012.798-.216c.107-.028.217.035.246.142.026.095-.021.193-.107.234l-.034.012-.796.215c-.468.133-.963-.098-1.165-.549-.038-.094-.061-.193-.068-.293l-.003-.075v-3.322c0-.111.09-.201.201-.201zm-3.047-1.316c.439 0 .794.355.794.794 0 .439-.355.794-.794.794-.439 0-.794-.355-.794-.794 0-.439.355-.794.794-.794zm7.401 0c.439 0 .795.355.795.794 0 .439-.356.794-.795.794-.438 0-.794-.355-.794-.794 0-.439.356-.794.794-.794zm-1.766-3.219l1.796.137c.391.038.773.141 1.13.306l.132.065 1.555.88H32.43c-.428 0-.808-.272-.946-.677l-.108-.314c-.054-.157.03-.328.187-.381.038-.013.079-.019.12-.016zm-4.072 0l-1.768.137c-.386.038-.763.141-1.115.306l-.13.065-1.535.88h3.802c.43 0 .81-.274.948-.68l.105-.312c.053-.157-.031-.327-.188-.38-.039-.013-.08-.018-.12-.015z" mask="url(#4hkr0zmzwb)"/>
        </g>
    </g>
</svg>
