<svg xmlns="http://www.w3.org/2000/svg" xmlns:xlink="http://www.w3.org/1999/xlink" width="60" height="60" viewBox="0 0 60 60">
    <defs>
        <circle id="a6kmn59x6a" cx="30" cy="30" r="30"/>
        <circle id="vxussr925c" cx="30" cy="30" r="30"/>
    </defs>
    <g fill="none" fill-rule="evenodd">
        <g>
            <g>
                <mask id="pu99apmnsb" fill="#fff">
                    <use xlink:href="#a6kmn59x6a"/>
                </mask>
                <use fill="#F2F2F6" fill-rule="nonzero" xlink:href="#a6kmn59x6a"/>
                <g mask="url(#pu99apmnsb)">
                    <g>
                        <path fill="#FFF" fill-rule="nonzero" d="M0.95 1.8H396.95V397.8H0.95z" transform="translate(-2 -91)"/>
                    </g>
                </g>
            </g>
            <mask id="o5tp1p1hud" fill="#fff">
                <use xlink:href="#vxussr925c"/>
            </mask>
            <use fill="#F2F2F6" fill-rule="nonzero" xlink:href="#vxussr925c"/>
            <path fill="#151A3B" d="M30.033 5c8.938-.057 13.607 5.779 13.302 12.119-.15 2.53-.419 5.051-.805 7.556.305-.345.667-.64 1.073-.87.483-.298 1.063-.396 1.617-.273.401.12.748.375.982.722.458.661.608 1.488.412 2.269-.281 1.14-.872 2.181-1.708 3.007-.305.325-.643.616-1.01.87-.28.206-.632.288-.974.227-.114-.036-.22-.091-.312-.163-.795 4.32-2.448 7.308-5.289 9.345-.107.72-.247 1.432-.394 2.145l-.22 1.068c-.183.89-.355 1.784-.462 2.688-.03.183-.055.366-.075.55 1.342.064 2.314.534 3.254 1.147l.269.179.134.091.268.188.689.487.286.198.146.098.3.197c.51.241 1.001.517 1.472.825.354.247.484.706.32 1.099l-.03.064c-.058.127-.123.253-.193.378.042-.007.087-.002.13.014.221.102.441.202.66.3l1.615.721c1.483.668 2.898 1.35 4.226 2.3 3.972 2.833 5.04 7.007 4.797 10.884-.011.142-.135.249-.277.24-.013-.001-.027-.003-.04-.006l-49.893-.909c-.026.005-.054.006-.082.003-.14-.021-.238-.152-.218-.293.286-2.305.984-4.54 2.062-6.6 2.188-3.834 6.378-6.681 10.713-8.092-.07-.095-.14-.188-.212-.28-.08-.136-.133-.286-.157-.442-.016-.122.027-.245.116-.33.435-.305.904-.558 1.398-.754.668-.347 1.283-.8 1.926-1.188l.211-.127.22-.128.227-.129c.847-.47 1.839-.896 2.804-.788.046-1.684-.186-3.399-.449-5.06l-.17-1.06c-.003-.032.001-.063.01-.091-1.342-1.13-2.426-2.523-3.096-4.092-.489-1.147-.762-2.308-1.01-3.481l-.201-.963c-.068-.322-.137-.645-.213-.97l-.03-.124-.01.011c-.327.341-.829.44-1.258.256l-.07-.033c-1.05-.557-1.861-1.476-2.284-2.583l-.05-.14c-.446-1.191-.467-2.507.135-3.468.45-.75 1.34-1.104 2.175-.877l.09.027c.498.137.948.396 1.313.747-.005-.207-.006-.436-.004-.682l.007-.38.006-.2.014-.41.029-.642.023-.44.046-.791.146-2.314.03-.535.015-.343.004-.102c.07-2.013 1.159-4.962 3.135-7.424C23.619 6.98 26.474 5.025 30.033 5zm.256.52h-.256c-3.395.02-6.104 1.89-7.993 4.244-1.63 2.032-2.646 4.42-2.936 6.284.032.02.048.022.06.02l.018-.001c.006 0 .014.005.026.017l.006.007-.003-.051-.001-.052c-.01-.156.001-.312.033-.466 0-.003-.003-.002-.006-.001l-.01.003c-.005.001-.005-.004.016-.035.02-.03.033-.039.047-.043l.033-.008.023-.01.003-.004.022.012.02.021.032.025c.005.004.01.009.014.015l.012.025v.033c-.005.06-.008.12-.009.18l.026-.009.017.004.04.02c.033.02.051.024.063.024l.019-.002c.01-.002.022.002.055.04.01.014.017.03.02.049l.013.054.016.053c.033.128.09.247.136.371.002.02.002.041 0 .062.002.023.002.047 0 .07l.002.042.077.003c.033.021.05.026.062.026l.019-.003c.01-.001.022.003.055.04l.002.024-.002.025.033.107c.033.128.09.243.132.367v.066c.002.023.002.047 0 .07.006.116.006.231 0 .347.01.021.008.047-.006.066-.015.019-.04.028-.063.022-.024-.005-.042-.024-.047-.047-.068-.074-.131-.13-.192-.197l-.014-.017c.001.071 0 .143-.004.214.006.03-.01.06-.04.071-.03.01-.061-.002-.076-.03-.09-.099-.173-.165-.251-.268-.02-.025-.037-.053-.05-.082-.018-.044-.032-.09-.041-.137-.018-.057-.032-.116-.042-.176l-.002.065c.006.028.01.055.013.079l.002.032v.137l.025.033c.01.023.019.048.025.074.012.05.045.099.045.148.02.068.042.134.067.2l.028-.03c.006-.005.01-.006.013-.005l.015.003c.008 0 .018 0 .036-.005l.03-.01h.07c.038.025.056.029.068.028l.02-.002c.009.001.021.009.049.04.004.015.004.03 0 .045.012.037.021.074.029.112.033.127.09.243.136.367l.001.03-.001.032v.416c.009.032-.007.065-.037.079-.033.01-.07-.005-.083-.038l-.054-.058-.107-.105-.009.01-.005.004c.03.082.065.161.093.244.009.02.015.041.02.062.002.023.002.047 0 .07.004.076.006.151.005.227.02.023.036.042.05.062.015.015.028.033.04.052l.013.03c.01.019.012.028.01.036l-.008.027-.002.024c.031.032.031.084 0 .116-.015.016-.036.025-.058.025-.022 0-.043-.01-.058-.025-.05 0-.058.012-.095 0-.018-.007-.033-.019-.046-.034l-.076-.09-.03-.046v-.02l.057-.08c-.06-.058-.115-.11-.169-.18-.02-.025-.037-.053-.05-.082l-.023-.068-.017-.069c-.028-.095-.046-.193-.056-.292l-.01-.153.004-.054v-.07l.029-.03.009-.008c-.016-.028-.03-.059-.042-.09-.022-.056-.04-.113-.057-.172l-.022-.088c-.034-.119-.06-.24-.078-.362-.006-.083-.006-.166 0-.248-.002-.01-.002-.022 0-.033l.008-.019.017-.028-.025-.04c-.012-.02-.022-.043-.029-.066-.02-.068-.034-.139-.042-.21-.024-.024-.047-.048-.071-.076l-.043-.054-.008.208-.004.1.024-.034c0-.008.033-.053.033-.033 0 .007-.004.008-.007.007l.007.014c.029.037.016.07.029.1.012.028.04.032.04.06.003.013.003.026 0 .038-.002.248.022.495.07.738.02.1.041.198.065.296l.089.331c.015.054.028.11.039.165l.014.083v.033c.021.044.003.097-.041.12l.011.023.014.002.02-.003c.01-.001.02.002.054.04.003.016.003.032 0 .049l.023.073c.003.012.006.023.006.034.033.128.09.247.136.371l.001.031-.001.031v.417c.002.008.002.017.001.025l.01.01.01-.06.006-.054.004-.114c.003-.056.01-.111.037-.156l.027-.035.034-.033c.006-.006.008-.007.01-.006l.004.009c.005.007.02.015.067.005l.005-.015c.002-.005.005-.01.006-.008l.002.007v.02c.044.022.06.018.067.013l.007-.007c.001 0 .004.001.01.008l.027.04.003.029-.003.029v.614c.002.026.002.053 0 .079-.02.062-.045.123-.074.181 0 .033-.015.063-.039.082l-.01.007v.035c.005.115.005.231 0 .346.006.016.005.033-.002.048s-.02.026-.036.03c-.015.007-.032.007-.047 0s-.027-.02-.031-.036l-.065-.069-.125-.124-.062-.071c-.018-.027-.034-.054-.05-.083-.017-.045-.031-.092-.04-.14-.028-.095-.047-.192-.056-.29l-.004-.054-.014.064c-.006.024-.013.047-.021.07.002.01.002.019 0 .029 0 .008 0 .01-.003.01l-.019.008-.02.015c.001.02-.006.04-.02.053l-.012.01-.008.009-.005.003.003-.007c-.01.004-.021.006-.032.006-.02 0-.04-.006-.055-.02-.015-.015-.023-.034-.023-.054l-.01-.002c-.009-.003-.022-.01-.032-.027v-.021c-.023-.07-.04-.142-.05-.214-.002-.06-.001-.12.003-.18-.043-.04-.085-.084-.126-.128.003.158.017.315.042.47l.028.155c.017.1.039.198.063.296l.033.135.006-.032c.012-.064.027-.127.047-.189.012-.04.028-.08.045-.12v-.024l.021-.014.03-.022.007-.008c.001.008.007.019.036.024l.026.004v.02c.033.018.05.02.057.018l.004-.005v.503h.021c.033.021.05.027.062.028l.019-.002c.008 0 .016 0 .032.016l.023.024.003.012.005-.004.021-.012c.031-.017.038-.018.04-.014v.013c.002.004.006.007.018.006l.025-.005.053-.02c0-.008.021-.005.038-.002l.02.005c.05.027.068.027.077.023l.009-.004c.002 0 .004.002.01.009l.028.038.001.013-.001.012v.796c-.015.05-.036.096-.062.14-.017.021-.037.04-.058.058 0 .03-.024.054-.053.054-.022 0-.041-.014-.05-.033-.031.007-.063-.011-.074-.042l-.04-.041-.076-.075.008.027.013.056.04.123.093.235c.016.003.033.008.045.013l.014.008h.008l.013-.003.009-.004.017.033c.017.026.017.042.013.055l-.01.025c-.002.004-.003.009-.003.014v.825c.006.043.006.086 0 .128 0 .037-.033.05-.053.087.002.055-.04.103-.095.107-.02 0-.038-.004-.054-.012.002.022.002.044 0 .066.004.068.005.137.005.205.029.028.036.053-.001.064l-.004.081c.007.016.006.033 0 .048-.008.015-.021.026-.037.03-.032.012-.067-.005-.078-.036l-.038-.04v.246c0 .19.038.383.025.573-.002.044-.01.087-.024.128-.017.03-.035.059-.054.087 0 .049-.038.09-.087.094-.009 0-.017 0-.025-.003l.025.065c.009.02.016.041.02.062.003.024.003.047 0 .07.007.116.007.231 0 .347.012.033-.004.069-.036.082-.033.009-.067-.01-.079-.041l-.059-.061-.112-.11-.01.006c0 .066-.054.12-.12.12-.045 0-.084-.025-.104-.062.011.144.025.289.042.433v.103l.003.05-.003.049-.022.032.025.09c.19.64.257 1.302.051 1.957-.063.21-.153.41-.267.595.043.034.076.082.09.139.105.426.198.851.287 1.275l.197.95c.244 1.159.51 2.305.992 3.434 1.382 3.234 4.603 5.684 8.18 6.509.089.02.16.087.187.174.026.088.004.183-.058.25-.063.067-.156.095-.245.075-1.762-.407-3.44-1.192-4.872-2.262l.115.73c.265 1.712.493 3.48.432 5.214.032.055.043.123.027.19-.008.031-.022.059-.04.083-.018.36-.05.718-.098 1.074l-.04.267c-.007.097-.069.182-.16.22-.09.036-.194.02-.268-.044-.063-.055-.096-.136-.09-.218l.026-.163c-.256.718-.013 1.563.468 2.218.658.89 1.395 1.717 2.203 2.474.074.071.151.142.23.213l.48.425c.525.466 1.038.957 1.306 1.569.56 1.366.947 2.796 1.155 4.257.084.489.143.981.178 1.476.008.02.012.046.012.07.029-.053.058-.111.083-.169.105-.229.192-.478.27-.713l.132-.398c.027-.082.054-.158.08-.225.265-.887.483-1.788.652-2.698.256-.994.652-1.897 1.497-2.433.135-.084.283-.182.441-.292l.245-.173c.083-.06.17-.123.257-.188l.267-.203.274-.215.28-.225.28-.235c1.033-.874 2.056-1.897 2.493-2.697.09-.155.155-.323.19-.499.018-.092.002-.187-.045-.268-.036-.042-.077-.077-.123-.105 0 .034-.006.068-.019.1-.035.087-.113.148-.206.16-.092.014-.185-.024-.242-.097-.274-.37-.419-.818-.416-1.276l.003-.106c.004-.106.01-.212.017-.318-.019-.036-.03-.077-.03-.12.002-.057.02-.11.053-.152.022-.244.053-.488.092-.73.109-.915.283-1.818.469-2.719l.224-1.08c.148-.72.29-1.442.396-2.17l-.115.564c-.38.24-.778.466-1.196.678l-.23.114-.239.116-.25.115c-1.567.708-3.691 1.365-6.112.975-.09-.014-.167-.075-.2-.16-.033-.086-.018-.183.04-.254.057-.072.148-.107.239-.093 2.36.376 4.42-.29 5.923-.983l.245-.116.235-.115.113-.057c3.921-1.982 6.009-5.25 6.895-10.437l.04-.238c-.063-.221-.096-.45-.1-.68.041-1.145.392-2.259 1.015-3.221.233-.472.671-.81 1.187-.916.346-.044.676.156.797.483.096.246.137.511.12.775-.028.455-.158.898-.38 1.295-.237.459-.688.768-1.2.825-.142.012-.268-.09-.285-.23-.012-.143.093-.268.235-.281.329-.037.62-.226.788-.507l.037-.066c.182-.327.288-.691.31-1.065.014-.182-.011-.365-.075-.536-.042-.118-.16-.192-.285-.177-.325.025-.551.3-.716.554l-.071.114c-.574.874-.899 1.888-.94 2.933.003.23.04.457.11.676.037.176.16.322.326.388.203.018.404-.044.561-.173.335-.232.643-.499.92-.797.764-.753 1.306-1.702 1.567-2.742.165-.639.05-1.317-.317-1.865-.528-.71-1.275-.664-1.935-.297-.654.37-1.18.93-1.504 1.605l-.059.128h-.029c-.023.097-.1.172-.196.193-.098.022-.199-.014-.26-.092-.062-.078-.074-.185-.03-.275.025-.058.051-.116.08-.174-.011-.033-.015-.07-.01-.106.076-.46.148-.921.217-1.382-.01.006-.022.01-.034.012h-.007c-.005.075-.01.156-.024.214l-.012.038c-.029.07-.029.145-.029.215-.003.063-.016.125-.037.185-.02.046-.029.025-.054.046-.002.064-.055.115-.12.115-.022 0-.044-.007-.062-.018l-.003.035c0 .037-.004.074-.012.11l.02.01c.023.009.034.007.04.004l.007-.006c.002 0 .004.001.01.008l.025.039.004.02-.004.02v.182c-.028.128-.028.273-.028.413-.007.04-.027.078-.036.117l-.006.04c0 .027-.013.053-.033.071-.02.019-.047.029-.074.028-.055-.003-.099-.048-.099-.104l-.03-.092c-.004-.016-.007-.031-.007-.048-.014-.112-.019-.224-.016-.337l.006-.128c-.053-.012-.093-.06-.093-.116-.025-.025-.05-.025-.05-.058-.01-.046-.01-.094 0-.14-.004-.064-.004-.127 0-.19-.006.006-.013.008-.02.008-.02.002-.038-.003-.052-.016-.015-.013-.023-.03-.022-.05-.024-.027-.043-.058-.058-.09-.002-.02-.002-.04 0-.058-.017-.202-.017-.405 0-.607-.009-.036-.009-.074 0-.111.016-.039.027-.048.04-.053l.024-.006c0-.02.002-.038.006-.057-.004-.063-.004-.126 0-.19.004-.061.011-.123.02-.184l.017-.092c.006-.044.015-.087.026-.13l.013-.04c-.003-.031 0-.063.006-.094-.004-.061-.004-.123 0-.185l.008-.058.022-.114c-.046-.014-.08-.058-.08-.109-.024-.029-.053-.029-.053-.062-.008-.046-.008-.093 0-.14-.004-.062-.004-.124 0-.185.003-.047.008-.093.015-.139-.008-.004-.015-.01-.021-.017-.014-.016-.02-.037-.018-.059l-.024-.162c-.003-.027-.005-.054-.005-.081-.002-.035-.002-.069 0-.103.024-.116.024-.231.024-.343.021-.045.021-.09.021-.136.007-.03.017-.061.029-.09l.027-.054c-.034-.02-.056-.057-.056-.1l-.015-.013-.027-.019c-.007-.006-.012-.014-.012-.029-.008-.045-.008-.091 0-.136-.004-.063-.004-.127 0-.19.007-.093.02-.185.038-.276l.019-.098.026-.096v-.02h.029l.009-.003c-.026-.022-.036-.057-.026-.088-.012-.12-.012-.24 0-.36.021-.14.057-.278.105-.412l.04-.099c.02-.054.04-.107.064-.16-.016-.002-.03-.01-.044-.021-.04-.036-.043-.096-.008-.136l.02-.04c-.01-.016-.015-.035-.016-.055-.025-.03-.053-.03-.053-.062-.007-.047-.007-.094 0-.14-.005-.062-.005-.124 0-.186l.01-.07.025-.138c.004-.023.006-.046.006-.068.006-.045.014-.09.026-.133l.02-.065h.028l.07-.003h.012c0-.028.002-.056.004-.085l-.057.055c-.022.018-.053.018-.074 0-.01-.01-.015-.022-.015-.035 0-.013.005-.026.015-.035l.05-.201.016-.051c.012-.037.04-.074.04-.111.016-.037.034-.073.054-.108l.015-.033c.007-.018.016-.033.03-.033l.055-.03c.004-.002.005 0 .005.001v.01c0 .004.004.008.011.012l.004-.01c.072-.2.168-.39.285-.568.029-.045.06-.087.095-.128 0-.02.024-.058.053-.062l.03.008.073.046h.025c.015 0 .012.007.007.014l-.007.01.058.042v.02c-.015.048-.036.094-.062.136-.078.153-.157.306-.223.466-.044.108-.079.215-.112.323l-.086.288c-.015.04-.031.08-.048.118l.042-.068.043-.075.107-.186-.02.108c.027-.176.076-.348.144-.512.06-.16.135-.313.221-.46l.08-.128c-.001-.01 0-.02.005-.03l-.002-.037.002-.038c0-.085.008-.171.024-.255l.015-.122.037-.26.013-.08.001-.013v-.045l.036-.033c.01-.01.013-.01.015-.006l.007.01c.008.007.026.013.074.004 0-.012.03.02.03.02.086.043.048 0 .071.019l.04.035c.007.044.007.089 0 .132-.024.148-.06.292-.108.434-.015.05-.035.098-.058.145l.038.024h.024c.015 0 .012.007.008.014l-.008.01.054.042-.016.04.016.02.016.018c.027.036.048.028.055.035l.003.01v.025c.004.052.006.104.006.156l.009-.04c.123-5.836-4.2-11.114-12.297-11.266l-.244-.003zm-8.51 40.834c-.575.237-1.127.527-1.65.866-.655.392-1.274.85-1.954 1.204-.434.172-.852.38-1.25.623 0 .039.026.1.048.144l.026.05c.298.378.574.773.825 1.184.151.344.293.696.433 1.052l.208.536.208.539c.454 1.168.938 2.333 1.65 3.355h.03c.044-.002.089-.009.132-.021.153-.046.303-.102.45-.17.874-.362 1.774-.661 2.692-.894.416-.105.838-.185 1.263-.24.593-.088 1.2-.011 1.753.223.567.284.996.812 1.38 1.337-.177-.622-.388-1.235-.634-1.836-.242-.55-.711-.993-1.193-1.415l-.36-.313c-.118-.104-.234-.208-.344-.313-.83-.777-1.588-1.628-2.265-2.541-.805-1.1-1.001-2.605.059-3.593-.51-.061-1.031.015-1.506.223zm14.348.418l-.01.176c-.017.264.031.527.138.765.01-.013.022-.024.034-.035.07-.059.166-.076.253-.045.26.073.472.264.573.515.098.391.024.805-.202 1.139-.543.996-1.955 2.33-3.214 3.334l-.276.217-.136.104-.264.198-.253.183c-.206.146-.397.274-.567.381-.735.462-1.052 1.262-1.275 2.124l-.025.13c.376-.494.828-.928 1.34-1.285.603-.416 1.358-.544 2.063-.35.882.277 1.737.634 2.553 1.068l.263.137c.184.096.383.196.587.275.252.131.533.192.817.178.032-.021.062-.044.09-.07.055-.052.107-.108.154-.166l.07-.09.102-.141.101-.146.304-.46.064-.094.05-.066c.26-.32.557-.644.869-.974l.475-.5.318-.338c.687-.737 1.34-1.504 1.705-2.313.144-.318-.07-.52-.343-.697-.172-.112-.37-.212-.567-.306l-.289-.138c-.14-.068-.271-.135-.381-.204-.282-.18-.547-.363-.805-.546l-.507-.362c-.25-.179-.498-.352-.75-.515-.893-.656-1.957-1.031-3.06-1.083zM27.204 35.23c.074-.104.21-.136.322-.083l.036.02c.412.265.89.408 1.378.413.794.002 1.583-.122 2.339-.367.065-.019.135-.011.194.021.06.033.104.087.123.153.04.136-.037.28-.173.321-.809.26-1.654.391-2.504.388-.586-.004-1.158-.176-1.65-.495-.059-.04-.1-.101-.112-.171-.013-.07.004-.143.047-.2zm1.29-12.964c.062-.116.2-.168.322-.122.122.046.191.176.161.304-.24.607-.443 1.228-.61 1.86-.12.462-.235.92-.33 1.386-.32 1.244-.442 2.532-.36 3.815.02.245.05.489.096.73.035.206.132.397.276.549.031.03.064.058.097.084.018.01.034.022.049.037l-.009-.007c.417.302 1.018.368 1.513.368.274.013.548-.007.816-.06l.009-.006c.544-.234 1.234-.491 1.908-.627.05-.29.06-.587.035-.882v-.355c0-.03.001-.067.004-.11l.011-.138.016-.15.018-.147c-.001-.032.011-.063.034-.085.022-.023.054-.035.086-.034.032-.001.064.01.087.033.023.023.036.054.036.086l.023.189.057.362c.01.06.017.12.024.18v.305c.01.153.01.308 0 .462-.005.073-.014.146-.025.219.217-.027.43-.037.63-.026.924.057 1.797.444 2.636.878l.333.175.658.35c.218.114.433.223.647.322.19.09.4.177.602.26.525.259 1.079.456 1.65.585.27.081.561.019.774-.162l.03-.028c.032-.132.025-.27-.02-.4-.1-.23-.367-.35-.805-.309-.08.01-.153.05-.206.111-.031.02-.049.055-.045.091.009.021.025.039.045.05.144.07.309.083.462.037.097-.025.2.008.265.085.064.078.078.185.036.276-.043.091-.134.15-.235.15-.281.062-.575.016-.825-.128-.586-.42-.103-1.13.454-1.183.75-.075 1.171.21 1.332.622.235.565-.078 1.427-.878 1.877-.375.19-.795.27-1.213.235-.582-.048-1.156-.169-1.708-.359-.936-.348-1.89-.646-2.858-.89-.565-.087-1.134-.14-1.705-.159l-.002.02c-.017.098-.09.178-.186.204-1.708.68-4.042.961-5.832.446-.07-.02-.128-.066-.161-.129-.013-.023-.021-.048-.026-.074l-.12.02-.415.08c-.277.06-.555.132-.834.209l-.63.175c-.842.232-1.694.442-2.562.395-.523-.023-1.038-.138-1.522-.338-.597-.225-1.05-.722-1.22-1.337-.142-.517-.068-1.065.195-1.522.048-.113.117-.218.204-.309.336-.443.912-.63 1.444-.47.261.081.42.346.367.615-.022.185-.12.354-.271.464-.151.11-.341.153-.525.117-.139-.033-.226-.17-.198-.31.033-.137.17-.224.31-.193.074.011.144-.035.164-.107.029-.032.042-.082.016-.096l-.016-.003c-.326-.084-.67.038-.87.31-.102.096-.16.231-.16.372 0 .142.058.276.16.374.213.173.468.286.738.33.468.09.945.115 1.42.074 1.22-.087 2.345-.423 3.47-.788l.518-.169c.39-.127.781-.254 1.178-.37-.214-.312-.283-.698-.327-1.068l-.035-.327c-.091-1.337.031-2.679.363-3.976.1-.475.219-.94.339-1.411.145-.54.314-1.075.508-1.6l.119-.314zm3.26 10.714l-.154.006c-1.318.009-2.633.107-3.937.295 1.241.22 2.662.092 3.897-.246l.194-.055zm-14.87-9.509l-.112-.034c-.642-.212-1.346.048-1.695.627-.504.802-.481 1.889-.134 2.892l.043.12c.357 1.041 1.093 1.91 2.063 2.433.255.13.566.076.763-.132.23-.23.398-.513.49-.825.26-.82.005-1.652-.337-2.419l-.1-.217c-.169-.487-.586-.846-1.093-.94-.45-.029-.705.396-.825.747-.296.871-.002 1.834.73 2.392.198.148.384.198.462.177.079-.02.137-.099.137-.194.035-.25-.024-.504-.165-.713-.04-.11 0-.234.098-.3.097-.065.227-.056.314.023.193.294.282.644.252.994-.014.216-.112.417-.273.561-.235.194-.627.252-1.15-.132-.912-.692-1.28-1.888-.916-2.973.186-.545.648-1.143 1.349-1.098.628.097 1.166.492 1.449 1.053l-.002-.083v-.923c-.316-.489-.791-.855-1.347-1.036zm1.973.972l.012.09c.013.105.023.212.032.327l.015.152c.016.007.026.009.034.009l.019-.002c.003 0 .006 0 .01.002-.003-.099.001-.198.012-.297.003-.052.008-.104.014-.156-.022 0-.044-.012-.055-.033-.032-.03-.063-.061-.093-.092zm17.09-2.367c.094.035.173.1.223.186.07.128.115.268.132.412.058.406-.033.82-.255 1.164-.068.1-.155.188-.256.255-.104.07-.231.096-.355.075-.114-.024-.214-.09-.28-.186-.086-.138-.146-.29-.178-.45-.052-.308-.013-.625.112-.911.086-.217.251-.392.462-.491l.029-.025h.02c.106-.06.233-.07.347-.029zm-11.206-.033l.02.021c.06 0 .117.013.17.037.1.045.18.128.218.231.04.088.066.181.079.276.043.349-.004.702-.136 1.027-.058.154-.146.295-.26.413-.102.088-.24.12-.371.087-.114-.031-.212-.105-.273-.207-.054-.089-.097-.184-.127-.284-.153-.43-.112-.906.11-1.304.114-.204.338-.32.57-.297zm17.192.68l-.004-.066-.03.03c0 .036-.019.067-.048.085.03.047.056.098.077.15l.002.02-.002.021c-.008.158-.024.315-.049.47-.002.055-.01.11-.02.164l-.015.056.043.036v.025l-.007.073-.018.153c.009-.004.02-.005.028-.002l.014.007c.009.002.016.007.021.015.005.008.006.017.003.026l.006.004c-.016-.077-.027-.154-.034-.23-.007-.07-.007-.141 0-.211.012-.17.057-.334.057-.5l.014-.071c-.017-.084-.03-.169-.038-.254zm-22.656.32l-.005.04c.007.101.009.203.007.305l-.003.06c.017.03.032.06.045.093l.008.027.009.109c-.017-.168-.017-.336 0-.503l.005-.065-.066-.066zm23.055-1.09l-.004.01-.019.02c-.005.249-.005.488-.034.724.01.049-.005.104-.012.158l-.005.072c.043-.319.083-.637.122-.956-.015 0-.029-.006-.04-.017l-.008-.01zm-23.567-.676l-.006-.021-.03.6c.008.001.02 0 .04-.006l.024-.009h.087l.022.014-.002-.294c-.022-.032-.042-.065-.059-.1l-.023-.053c-.02-.043-.037-.086-.053-.13zm22.948-1.025l-.034.083c-.014.032-.027.065-.04.1-.002.02-.014.04-.03.052-.012.008-.024.013-.038.014l-.021.133c-.003.022-.005.043-.005.065-.003.065-.017.129-.041.19-.007.018-.012.025-.018.028l-.02.007c-.005.002-.01.005-.016.01 0 .011-.002.022-.005.033.02.045.038.088.038.14l.001.045-.001.05h.029l.067-.014.063-.006c-.014-.022-.026-.046-.035-.07-.006-.047-.006-.094 0-.141-.008-.09-.008-.182 0-.272.006-.059.017-.117.03-.175l.023-.085c.016-.063.034-.125.053-.187zm-18.407.414c.707-.682 1.784-.805 2.627-.301.056.039.095.099.106.166.012.068-.004.137-.044.192-.074.104-.211.137-.323.083l-.036-.02c-.632-.374-1.435-.275-1.959.239-.06.079-.162.116-.26.096-.097-.02-.175-.095-.199-.193-.023-.097.01-.199.088-.262zm11.198-.293c.839-.682 2.018-.753 2.933-.177.101.038.168.135.168.244 0 .108-.068.205-.17.243-.102.037-.216.007-.287-.075-.687-.436-1.569-.404-2.22.073l-.077.059v.016c-.067.074-.17.104-.265.077-.095-.028-.167-.107-.184-.205-.018-.097.022-.197.102-.255zm8.12-.698l.051-.102c-.078.152-.153.305-.219.466-.041.106-.079.214-.113.322.007.006.016.01.036.008l.024-.004.053-.021.009-.007.024-.005.014.023.015.022c.015.024.026.035.035.04l.037-.371.034-.371zm-.609-.86l-.041.032c-.037.02-.075.037-.116.05-.01.01-.025.015-.039.017h-.005l-.045.11-.022.058c-.002.016-.01.031-.02.043l.016-.047c-.062.157-.116.321-.165.486 0 .042 0 .083-.037.124-.037.103-.087.194-.12.297.001.017-.003.032-.01.046.005-.01.013-.018.023-.02.006-.003.013-.003.02-.001l.008.004c.01.003.017.01.021.019l-.004.022c.025-.176.074-.348.144-.511.074-.2.17-.39.285-.57.03-.044.06-.086.095-.127 0-.01.004-.021.012-.033zm-23.076-.432l-.05.74.027-.002c.007 0 .016.004.032.02l.005.005c-.012-.073-.018-.147-.02-.22l-.003-.052.004-.052v-.07l.035-.038c.008-.007.012-.01.016-.01l.022.002c.004 0 .01 0 .016-.002l-.023-.08c-.024-.08-.044-.16-.061-.241zm23.34.14l-.103.13c-.039.05-.082.095-.13.136l.01-.004.033.029c.016.013.033.025.051.035l.028.014h.004c.04-.112.076-.226.107-.34zm.01-.702l-.07.1-.08.103-.004.01c-.003.021-.014.04-.03.052-.013.027-.025.056-.036.084-.028.07-.053.14-.078.212l.113-.189.061-.11c.009-.016.017-.031.023-.045l.048-.1.052-.117zm.48.056l-.033.055c-.023.037-.047.073-.073.108l-.004.097c-.008.076-.018.151-.03.226l.014.01c.007.003.015.005.028.004l.025-.005.038-.014.035-.481z" mask="url(#o5tp1p1hud)"/>
        </g>
    </g>
</svg>
