<svg xmlns="http://www.w3.org/2000/svg" xmlns:xlink="http://www.w3.org/1999/xlink" width="60" height="60" viewBox="0 0 60 60">
    <defs>
        <circle id="b9ras9f2va" cx="30" cy="30" r="30"/>
    </defs>
    <g fill="none" fill-rule="evenodd">
        <g>
            <mask id="feeyja9kdb" fill="#fff">
                <use xlink:href="#b9ras9f2va"/>
            </mask>
            <use fill="#F2F2F6" fill-rule="nonzero" xlink:href="#b9ras9f2va"/>
            <path fill="#151A3B" d="M31.26 16.777l-.02-.096c-.023-.178.022-.36.13-.509.157-.138.37-.196.575-.155.384.068.753.209 1.084.416 1.144.77 1.983 1.916 2.373 3.24l-.069-.215c.249-.28.532-.528.843-.738.244-.17.428-.124.52-.035.059.054.095.13.1.21.007.187-.054.37-.172.516l-.1.132c.612-.007 1.214.19 1.706.565.268.182.415.496.385.818-.048.2-.19.361-.378.434.565.453.977 1.11 1.327 1.758.736 1.317 1.137 2.795 1.168 4.303.011 1.334-.373 2.65-.33 3.985l.001-.157c.037-.004.074-.006.11-.007.318-.02.608.176.71.476.189.508.031 1.237-.035 1.759-.176 1.452-.545 2.875-1.099 4.229-.148.39-.348.758-.594 1.096-.125.182-.3.323-.501.407-.176.7-.467 1.366-.861 1.97-.227.33-.525.598-.763.922-.028.039-.07.065-.117.072l.034-.01c-.233.68-.537 1.326-.985 1.839.009.033.009.07-.002.104-.547 1.26-.71 2.53-.793 3.834l-.197-.033c1.297.175 2.031.698 3.015 1.593.861.761 1.889 1.31 3 1.603.075.016.129.082.13.158.003.043-.009.086-.035.12-.043.056-.09.109-.14.158-.086.081-.177.156-.273.224-.096.068-.194.133-.295.194 1.282.6 2.722.748 3.942 1.513 2.432 1.53 3.942 5.144 4.34 8.033.018.067-.005.139-.059.183-.053.045-.127.055-.19.027-.064-.03-.105-.092-.106-.161-.385-2.795-1.822-6.3-4.178-7.775-.627-.394-1.313-.621-2.005-.832-.026.024-.06.039-.095.043-1.698.218-3.339.875-5.037 1.102-1.5.198-3.26.049-4.656.688-.024.011-.05.017-.074.017-.397.232-.782.514-1.154.861-.35.325-.741.672-1.019 1.084.005.018.005.035.003.052-.215 1.755-.272 3.525-.172 5.29.012.068-.015.137-.07.178-.056.04-.13.047-.19.015-.062-.032-.1-.095-.099-.164-.102-1.788-.043-3.581.175-5.359l-.071.633c-.03-.011-.057-.03-.078-.056-.473-.603-.935-1.285-1.46-1.888-.468-.59-1.073-1.056-1.762-1.36l-.04-.014c-1.536-.227-3.17.16-4.705.16-1.993 0-3.941-.367-5.924-.438-.032-.002-.063-.012-.089-.028-.824.363-1.636.759-2.39 1.284-2.145 1.486-3.405 4.41-4.2 6.937-.019.061-.069.107-.13.121-.063.014-.128-.006-.172-.053-.043-.047-.058-.113-.039-.174.818-2.582 2.129-5.571 4.338-7.115 1.893-1.32 4.16-1.822 6.065-3.101l-.055.033c-.085-.176-.146-.365-.18-.561-.015-.212.098-.412.286-.51.351-.183.72-.331 1.099-.442.872-.428 1.486-1.102 2.272-1.65.461-.276.952-.5 1.463-.666l-.267.094c-.13-1.043-.312-2.08-.545-3.106v-.05c-.201-.157-.393-.334-.57-.532-.32-.396-.57-.843-.739-1.32-.047-.004-.093-.029-.125-.069-.402-.426-.737-.909-.996-1.434-.175-.501-.284-1.023-.327-1.552l.004.04c-.248-.076-.471-.22-.643-.416-.31-.342-.555-.74-.72-1.17-.594-1.495-1.185-2.944-.603-4.568.087-.25.206-.487.356-.706.091-.14.204-.264.333-.37.118-.105.26-.178.41-.216.106-1.151-.257-2.144-.574-3.235-.287-.92-.468-2.008 0-2.897l-.056.118c-.029-.058-.05-.12-.064-.184-.05-.148-.07-.304-.058-.46.069-.458.335-.885.613-1.26l-.171.015c-.177.017-.349-.063-.45-.209-.07-.119-.09-.26-.055-.393.045-.18.128-.35.244-.496.401-.455.857-.859 1.357-1.202.388-.27.723-.607.99-.995-.13.008-.26-.027-.37-.098-.117-.12-.141-.302-.06-.448.204-.37.46-.71.762-1.007.835-.885 1.843-1.588 2.961-2.066.389-.161.79-.292 1.2-.39-.077-.03-.148-.07-.213-.12-.05-.04-.083-.096-.095-.158-.01-.06.007-.122.046-.17.153-.182.351-.322.574-.407.308-.107.623-.192.944-.252 1.431-.336 2.724-.215 3.87.602zm4.328 28.262l-.11.153c-1.236 1.662-3.402 3.656-5.831 4.084-2.344.413-4.815-2.71-5.692-3.95l.038.178c.158.778.286 1.561.386 2.348.06.003.118.04.147.098.036.092-.007.196-.098.236l-.01.003c.07.582.12 1.165.157 1.75.003.098-.074.181-.173.186-.047.002-.093-.014-.128-.046s-.056-.076-.058-.123l-.02-.296c-.03.113-.03.234.003.35.075.288.219.554.419.775.416.493 1.05.729 1.572 1.067.898.588 1.893 1.392 2.464 2.353.347.573.671 1.202.99 1.804.028.057.092.235.16.396.02.066.055.126.075.166l.034-.02c.05-.038.098-.08.141-.126.174-.193.334-.399.48-.614.76-1.015 1.236-2.238 2.027-3.224.655-.818 1.561-1.263 2.238-2.037.123-.132.227-.28.31-.44.023-.036.04-.075.05-.115-.066-.03-.108-.096-.105-.171.031-.555.051-1.102.082-1.641-.024-.034-.035-.076-.03-.12.005-.036.02-.067.042-.092.062-.995.167-1.969.44-2.931zm-11.516 3.274l-.217.085c-.281.12-.555.257-.818.413-.803.56-1.432 1.242-2.321 1.678-.16.078-.608.175-.927.339-.077.037-.148.086-.21.146-.036.025-.058.067-.057.112.087.453.342.856.715 1.128.576.443 1.237.764 1.942.94.756.151 1.525.222 2.295.213.8-.009 1.596.12 2.353.379l-.088-.028.113.016c.048.008.089.035.115.072.783.345 1.411.967 1.977 1.658-.192-.357-.388-.714-.591-1.059-.545-.915-1.498-1.675-2.356-2.234-.547-.36-1.21-.617-1.65-1.148-.235-.266-.404-.585-.493-.93-.104-.372.007-.772.287-1.038-.016-.25-.041-.496-.07-.742zm11.415-.014l-.019.363c-.019.39-.035.784-.058 1.182l.019-.335.019.028c.098.183.113.4.04.594-.097.243-.24.466-.42.657-.673.769-1.574 1.208-2.228 2.025-.6.751-1.02 1.64-1.517 2.467l-.127.11c1.862-1.722 4.016-1.943 6.337-2.522.867-.228 1.706-.55 2.502-.961.263-.125.516-.272.754-.44.07-.028.118-.068.167-.108-1.064-.31-2.044-.856-2.87-1.595-.867-.782-1.52-1.272-2.599-1.465zm4.714 3.935c-.822.422-1.688.754-2.582.99-1.047.265-2.058.444-3.023.727.905-.097 1.835-.104 2.679-.217 1.701-.227 3.342-.884 5.04-1.102l-.578.095c-.413-.13-.821-.272-1.214-.459-.066-.026-.113-.084-.12-.153l.004.016c-.067.035-.136.07-.206.103zm-20.668-.239l-.45.282c-.79.462-1.627.822-2.464 1.184 1.78.108 3.537.405 5.333.405.696 0 1.412-.08 2.13-.145-.666-.014-1.328-.088-1.98-.22-.757-.19-1.466-.533-2.083-1.01-.19-.139-.353-.307-.486-.496zm7.196-29.121l-.034.017c-.027.015-.052.034-.075.054-.066.066-.127.137-.18.213-.333.448-.7.87-1.097 1.262-.287.273-.616.51-.923.766-1.205.996-2.852 2.177-2.952 4.39-.002.027-.01.053-.023.076-.113 1.377-.12 2.727-.064 4.07.01.02.017.04.023.062.018.05.012.104-.013.147.086 1.894.292 3.776.498 5.703.08.954.248 1.899.5 2.823.146.578.417 1.118.791 1.583.495.552 1.107.928 1.77 1.197 1.672.453 3.145.64 4.427.657.922-.03 1.86-.085 2.77-.247.934-.19 1.701-.462 2.31-.736.443-.222.868-.495 1.269-.834 1.096-.926 1.411-2.584 1.764-3.947.51-2.032.824-4.104.943-6.187-.024-.037-.032-.082-.022-.127l.037-.154c.077-1.595.04-3.197-.114-4.792l.031.39c-.014-.025-.022-.053-.023-.083.002-.069.002-.137.001-.205l-.01-.102c0-.017 0-.034.003-.05-.075-1.488-.868-2.856-2.14-3.66-.544-.316-1.052-.69-1.517-1.113-.224-.207-.383-.471-.46-.76l-.06.106c-.863 1.526-2.155 2.843-3.99 2.614-.637-.082-1.248-.305-1.787-.655-.164-.097-.316-.21-.457-.338-.055-.056-.085-.131-.083-.21.018-.132.109-.243.235-.286.066-.027.134-.043.204-.05l-.089-.06c-.398-.28-.756-.614-1.064-.992-.019-.022-.047-.068-.081-.127-.02-.012-.035-.028-.048-.048-.082-.118-.168-.236-.255-.355l-.015-.012zm1.444 19.436l.048.012c.723.493 1.549.384 2.332.135.046-.016.096-.012.138.01.043.023.075.061.089.107.014.045.01.095-.012.137-.022.042-.06.073-.106.087-.89.284-1.824.379-2.645-.18-.055-.072-.06-.165-.012-.233.049-.069.138-.095.216-.063zm-6.983-2.358l-.086.02c.045.453.143.9.292 1.331.16.326.352.634.572.921-.21-.843-.354-1.7-.429-2.565l.005.028c-.084.128-.21.22-.354.265zm13.543-9.817c.152.033.297.092.428.175.123.077.2.21.206.356.001.137-.061.267-.17.352-.116.091-.25.158-.392.198-.104.031-.211.05-.32.057.637.014 1.271.03 1.91.104.513.06.932.178 1.167.47.191.267.268.598.212.921-.008.077-.05.147-.115.19-.076.048-.158.087-.243.115-.066.022-.133.039-.201.051-.035.004-.068.015-.098.032-.03.03-.052.066-.066.106-.203.516-.224 1.147-.341 1.695-.035.33-.187.634-.428.861-.215.14-.465.22-.723.23-.352.025-.731-.03-1.041-.023-.703 0-1.695.066-2.352-.287-.348-.247-.598-.607-.71-1.019-.158-.472-.352-.996-.449-1.523l-.026-.012c-.626-.341-1.403-.473-2.029-.054l.044-.026c-.07.426-.209.85-.345 1.25l.02-.042.144-.264c.045-.076.147-.099.228-.053.08.046.114.146.076.23-.144.253-.278.54-.39.778-.112.238-.221.48-.322.723-.255.617-.594 1.604-.505 2.367.005.224.086.431.22.595.024.006.045.02.063.037.02.02.036.044.044.07.126.116.283.196.46.23.174.046.355.067.536.06.289-.002.577-.03.86-.083.096-.022.192.035.219.13.023.096-.036.194-.132.218-.302.059-.608.09-.915.091l.228-.007c-.151.207-.285.426-.4.656-.023.042-.06.073-.106.087-.045.014-.094.01-.136-.013-.087-.047-.12-.156-.074-.243.125-.248.27-.485.433-.71l-.157.229c-.143-.008-.286-.03-.425-.065-.09-.016-.177-.042-.26-.076l-.314.154-.353.175c-.087.047-.196.015-.244-.072-.023-.042-.029-.091-.015-.137.013-.046.045-.084.087-.107.232-.126.476-.223.708-.347l-.226.113-.044-.04.104-.004c-1.102.014-2.34.287-3.207 1.064-.224.185-.418.404-.574.649-.071.097-.1.22-.078.338.028.073.084.13.155.16.5.273 1.134.19 1.65.027.198-.058.39-.132.574-.224.054-.026.137-.115.192-.15.04-.024.085-.038.132-.04.053 0 .104.022.14.06.039.042.059.097.055.153-.002.069-.019.136-.049.198 0 .014-.014.031-.02.049-.004.012-.004.025 0 .037.023.106.13.123.233.129.15.002.298-.024.438-.077.165-.067.321-.15.468-.25.057-.037.15-.146.207-.19.036-.03.08-.05.126-.057.062-.009.124.014.166.06.039.046.057.105.049.164-.004.05-.02.1-.046.143l-.04.072c.003.028.019.054.043.07.037.012.078.012.115 0 .069-.018.136-.042.2-.073.193-.089.388-.212.528-.287.073-.036.154-.054.236-.051.217.042.423.125.608.247.138.095.3.151.468.163.036.002.072-.002.106-.014 0-.038 0-.11.017-.124.017-.083.093-.142.178-.137.978.017 1.684.166 2.653-.092.208-.047.411-.115.606-.201.106-.04.198-.11.267-.2.016-.034.016-.073 0-.107-.017-.05-.04-.099-.07-.143-.137-.196-.299-.373-.481-.528-.715-.654-1.684-1.12-2.64-.996h-.044c-.146.112-.302.21-.466.293l.127-.071c.21.161.404.341.581.538.034.034.053.08.053.127s-.019.093-.053.126c-.07.068-.182.068-.252 0-.208-.232-.443-.44-.7-.617-.045-.024-.078-.067-.09-.117-.011-.05 0-.102.03-.144.005-.008.01-.015.017-.021.012-.052.047-.098.097-.122.19-.097.37-.214.534-.35.416-.43.341-1.093.224-1.641-.02-.097.041-.191.137-.213.047-.01.096-.001.135.025.04.026.068.066.078.113.118.552.17 1.2-.116 1.7.947-.009 1.884.457 2.592 1.106.248.208.457.458.616.74.086.153.086.34 0 .493-.106.147-.25.262-.416.333-.215.094-.44.169-.668.224-.952.255-1.661.135-2.582.106v.035c-.01.032-.026.061-.049.086-.114.109-.27.166-.427.157-.23-.01-.453-.082-.646-.209-.142-.095-.3-.163-.467-.2-.018 0-.104.042-.164.074-.191.112-.392.208-.6.287-.154.062-.327.055-.476-.02-.083-.053-.146-.133-.178-.227-.15.098-.31.18-.476.247-.228.087-.475.116-.717.083-.213-.024-.386-.181-.43-.39-.002-.01-.002-.02 0-.029-.177.082-.36.152-.545.21-.606.189-1.349.26-1.931-.058-.152-.073-.269-.203-.324-.361-.042-.142-.036-.293.017-.43.17-.362.418-.681.726-.936.839-.754 1.996-1.08 3.083-1.138-.088-.164-.139-.352-.146-.549-.094-.823.259-1.882.531-2.545.026-.063.053-.124.08-.185-.097.12-.211.224-.338.314-.657.36-1.65.302-2.353.287-.31 0-.688.05-1.04.023-.258-.01-.508-.088-.724-.23-.24-.226-.392-.531-.427-.86-.12-.545-.138-1.179-.345-1.695-.011-.04-.033-.077-.063-.106-.03-.017-.063-.028-.097-.032-.068-.012-.136-.03-.201-.052-.086-.027-.168-.065-.244-.114-.064-.043-.106-.113-.115-.19-.055-.323.021-.655.213-.92.235-.288.654-.41 1.167-.471.86-.1 1.722-.095 2.61-.124.4-.011.8.01 1.197.06.278.022.552.069.82.141.297.084.549.282.7.55.654-.327 1.577-.255 2.21.058l-.069-.031.062-.101c.153-.222.379-.385.64-.459.27-.072.544-.12.821-.14.241-.031.483-.051.725-.06-.085-.012-.166-.046-.237-.098-.08-.057-.1-.168-.043-.25.02-.027.048-.05.08-.063.337-.554.985-.838 1.621-.708zm3.425 8.645c-.1.482-.209.961-.33 1.439-.094.364-.187.748-.294 1.134l.123-.141.18-.236c.37-.571.641-1.2.804-1.862l-.042.158c-.22-.042-.399-.217-.435-.45zm-11.762 1.287c.083-.055.195-.031.25.051.027.04.036.088.026.135-.01.046-.038.087-.078.112l-.287.195.012-.003c-.08.052-.185.032-.24-.044-.056-.076-.043-.183.03-.242.092-.072.187-.138.287-.204zm3.958-.838c.053-.035.12-.038.177-.01.057.03.094.087.097.15.017.156.017.31.017.465.011.07-.018.138-.075.178-.057.04-.132.044-.192.01-.06-.035-.096-.1-.092-.17v-.465h-.014c-.003-.064.028-.124.082-.158zm-10.227-6.41l-.026.022c-.029.019-.063.029-.1.028-.022-.003-.043-.01-.062-.02-.099.026-.19.075-.27.143-.1.081-.187.178-.256.287-.131.19-.235.398-.31.617-.55 1.538.035 2.9.597 4.303.15.389.368.746.646 1.056.155.18.366.303.6.347.217.023.324-.138.387-.33.068-.251.09-.512.069-.772-.009-.091-.02-.218-.035-.344-.037.163-.11.316-.212.448-.127.163-.337.24-.54.198-.167-.041-.312-.144-.407-.287-.117-.18-.213-.373-.287-.574-.344-.795-.62-1.893-.487-2.771.042-.316.146-.62.306-.895.127-.229.396-.339.646-.264.135.052.25.144.333.264.17.257.3.54.384.837l.008.03c-.03-.44-.056-.88-.074-1.322l.029.079c-.092-.279-.232-.54-.414-.769-.039 0-.075-.016-.104-.042-.035-.032-.057-.077-.059-.124l-.07-.05c-.089-.051-.188-.084-.292-.096zM40.514 31.6c-.203.006-.4.066-.574.172-.705.426-.957 1.17-1.141 1.955-.007.164-.016.329-.027.493l.075-.159c.123-.277.284-.536.48-.769.103-.116.25-.186.407-.192.25.018.454.208.49.456.06.29.076.587.046.881-.045.835-.24 1.655-.574 2.421-.09.254-.217.493-.378.709-.04.042-.09.07-.147.083-.071.01-.145-.005-.206-.043-.092-.068-.166-.16-.213-.264-.124-.362-.134-.753-.028-1.121.07-.295.166-.583.287-.861.038-.092.143-.135.235-.098.044.019.079.054.097.098.017.044.017.094-.002.138-.112.258-.202.524-.27.797-.092.292-.092.606 0 .898.01.02.021.038.034.055.102-.173.187-.355.256-.543.321-.725.509-1.503.553-2.295.03-.252.02-.508-.031-.757-.029-.1-.063-.192-.158-.198-.029.002-.056.014-.077.034-.052.039-.097.084-.135.135-.133.19-.248.39-.345.6-.539 1.044-.636 2.39-.702 3.56-.033.31-.018.624.045.93.038.12.095.223.227.203.198-.048.37-.17.48-.341.224-.31.407-.65.541-1.01.543-1.323.905-2.714 1.076-4.134.06-.473.227-1.13.055-1.59-.057-.156-.21-.256-.376-.243zm-20.478 2.892c-.133.227-.217.479-.247.74-.123.817.14 1.839.46 2.582.057.145.124.287.2.424.063.1.132.195.235.216.104.02.187-.052.241-.141.076-.14.121-.295.132-.453.063-.5.001-1.006-.18-1.475-.041-.091-.091-.177-.15-.258-.02-.02-.037-.043-.057-.06v.037c-.014.044-.025.089-.032.135-.018.223.028.447.132.645.021.043.024.092.008.137-.015.044-.048.08-.09.101-.09.044-.198.006-.242-.083-.137-.265-.193-.564-.163-.86.017-.131.061-.257.129-.37.044-.07.115-.118.195-.135.063-.013.129-.004.186.025.05.03.095.07.132.115-.051-.2-.109-.399-.166-.59-.063-.221-.153-.433-.267-.632-.063-.106-.129-.2-.212-.227-.083-.025-.18.038-.244.127zm6.165-2.892c-.86.028-1.721.02-2.582.12-.401.05-.743.11-.93.342-.12.178-.169.395-.137.608l.126.052c.083.028.155.037.215.054.175.038.314.17.362.341.212.534.235 1.188.358 1.753.026.132.061.261.107.388.033.1.095.189.177.255.213.128.461.187.71.17.286 0 .599-.035.86-.03.648 0 1.569.084 2.174-.25.27-.2.461-.49.54-.817.235-.697.573-1.509.479-2.269.002-.02.006-.041.014-.06h-.011c-.025-.017-.045-.04-.058-.066-.105-.2-.288-.347-.505-.408-.245-.066-.497-.108-.751-.126-.38-.05-.764-.069-1.148-.057zm6.438.057c-.254.018-.506.06-.752.126-.217.061-.4.208-.505.408-.012.027-.032.05-.057.066.003.02.003.04 0 .06-.089.76.244 1.572.48 2.27.077.327.268.616.538.817.606.333 1.527.258 2.175.25.255 0 .56.031.86.028.249.018.496-.04.71-.17.081-.066.143-.155.177-.254.045-.127.08-.256.106-.388.124-.573.147-1.219.359-1.753.047-.172.187-.303.361-.341.06-.017.132-.026.216-.054l.129-.052c.031-.213-.018-.43-.138-.608-.187-.233-.528-.287-.93-.342-.86-.1-1.72-.092-2.582-.12-.383-.012-.767.008-1.147.057zm1.48 1.334c.091.078.162.176.207.287.094.211.129.445.1.674-.02.173-.107.331-.244.44-.082.06-.187.082-.287.06-.136-.044-.243-.15-.286-.287-.023-.057-.04-.116-.052-.175-.06-.229-.06-.47 0-.698.018-.089.05-.175.092-.255.037-.07.105-.117.183-.129.103-.013.207.017.287.083zm-7.94-.086c.077.012.146.06.183.13.042.08.073.166.092.255.058.23.055.47-.009.7-.009.058-.023.116-.043.172-.043.136-.15.244-.287.287-.1.022-.204 0-.287-.06-.136-.108-.224-.267-.244-.44-.03-.23.005-.463.1-.674.046-.11.117-.209.207-.287.08-.066.184-.096.287-.083zm5.725-16.545c-.111-.011-.212-.017-.27.043-.02.029-.031.063-.03.098-.005.097.009.194.04.287.031.1.076.197.131.287.027.044.032.096.019.142l.033.033c.071.068.074.18.006.252-.068.071-.181.074-.253.006-1.185-1.148-2.562-1.348-4.11-.987-.303.057-.6.136-.89.238-.12.046-.232.109-.333.187.037.02.078.037.112.051.112.044.227.08.344.11h.213c.042 0 .083.012.12.034.054.034.087.094.086.158.001.058-.024.114-.069.152-.069.051-.15.085-.235.097-.155.029-.37.032-.453.052-.441.097-.873.233-1.291.404-1.074.458-2.04 1.133-2.84 1.983-.229.229-.435.478-.617.746-.034.062-.062.127-.083.195h.02c.063 0 .127-.007.189-.02.07-.02.14-.045.207-.075.165-.069.326-.147.481-.235.086-.036.184-.001.229.08.044.081.02.183-.056.235-.149.085-.302.16-.46.227 0 .023-.008.045-.02.066-.313.54-.742 1.003-1.256 1.357-.477.328-.912.713-1.294 1.147-.077.098-.135.21-.17.33-.02.046-.02.098 0 .144.024.043.078.043.156.043.358-.02.707-.126 1.015-.31.043-.02.092-.024.137-.008.044.016.081.048.101.091.022.042.026.091.01.136-.014.045-.047.082-.09.102-.152.089-.312.161-.477.217l-.013.021c-.313.4-.71.875-.778 1.409-.008.105.008.211.046.31.005.03.014.06.025.088.056.03.088.085.093.143.021.027.048.05.077.07.092.039.195.039.287 0 .277-.095.53-.251.74-.456.213-.192.405-.406.574-.637.036-.055.1-.086.165-.08.065.005.123.047.148.108.026.06.016.13-.026.181-.183.253-.392.485-.626.692-.253.243-.556.427-.889.54-.177.056-.37.042-.536-.04l-.048-.03c-.286.75-.106 1.625.114 2.379.352 1.196.74 2.28.573 3.56l.025-.25.024.003c.088.011.173.034.253.068.002-.31.014-.62-.018-.928-.006-.064.021-.126.073-.164.052-.037.12-.044.178-.018.058.026.098.08.105.144.046.456 0 .918.026 1.374l-.004-.15c.028.031.054.066.078.102l.087.117c-.027-1.158-.004-2.323.094-3.505.002-.015.006-.029.011-.042l-.005.093c.109-2.332 1.813-3.597 3.081-4.647.304-.25.62-.485.907-.755.385-.375.739-.782 1.055-1.216.083-.115.18-.219.287-.31.027-.023.056-.043.086-.06-.175-.262-.324-.543-.387-.858-.033-.184-.042-.37-.026-.557.005-.354.165-.688.436-.915.407-.25.916-.265 1.337-.04.068.02.118.075.13.144.01.07-.02.139-.077.179-.058.04-.133.042-.193.007-.304-.174-.677-.174-.982 0-.185.166-.29.405-.286.654-.014.153-.007.308.02.459.074.369.284.683.502.985.027.022.05.05.071.08.07.087.144.207.205.31l.016.025.01.015c.042.073.077.131.1.157.286.353.62.665.992.927l.127.079.283.156c.107.06.204.137.287.227.037.045.05.105.037.161-.014.057-.055.103-.109.126-.023.003-.048.003-.071 0l-.104-.023-.218-.038c-.081-.013-.164-.017-.247-.013l-.123.013.052.043c.109.08.235.158.261.172.497.323 1.06.53 1.647.606 1.819.226 3.02-1.242 3.818-2.777.03-.057.086-.094.15-.097.01-.024.026-.044.046-.06.038-.03.086-.044.134-.038.047.003.091.024.123.06.03.035.047.082.043.129 0 .357.152.698.42.935.445.407.934.764 1.457 1.065 1.467.932 2.338 2.565 2.295 4.303l.001-.196c.108 1.173.154 2.349.138 3.523.046-.101.1-.198.16-.291-.01-.028-.014-.06-.01-.09.015-.115.038-.232.038-.347.003-.048.026-.092.063-.123.037-.03.084-.045.132-.04.099.009.172.096.163.195l-.005-.053c.112-.104.236-.199.376-.283.09-.056.187-.101.287-.137-.03-1.311.33-2.606.33-3.914l-.014.476c-.028.076-.106.125-.19.115-.048-.006-.09-.03-.12-.068-.029-.038-.042-.085-.035-.133.009-.097.026-.193.051-.287.012-.047.042-.087.083-.112.042-.025.091-.032.138-.02.035.01.064.03.086.055v-.026c-.034-1.445-.42-2.86-1.124-4.122-.376-.698-.818-1.409-1.478-1.825-.023-.015-.044-.031-.06-.051-.16-.013-.318-.052-.468-.115-.092-.033-.142-.134-.111-.227.015-.045.047-.082.09-.103.042-.021.091-.024.136-.009.212.093.446.122.674.083.135-.04.213-.103.233-.192.003-.188-.095-.364-.256-.462-.502-.386-1.139-.555-1.767-.47-.046.009-.094 0-.134-.027-.04-.026-.066-.067-.075-.114-.011-.055.004-.108.036-.149-.009-.05.003-.103.038-.146.078-.092.155-.187.227-.287.044-.059.077-.125.098-.195l.005-.02-.057.031c-.364.245-.687.548-.955.895-.06.079-.172.095-.253.037-.037-.028-.06-.069-.068-.112-.014-.018-.025-.04-.032-.063-.367-1.246-1.157-2.325-2.235-3.05-.285-.179-.601-.301-.933-.36zm-.944 16c-.574-.3-1.446-.359-1.996.006l.065-.039.014.195c0 .05 0 .101-.002.152.61-.271 1.31-.178 1.914.095l-.007-.23zm8.208-1.684c.098.006.174.088.173.186-.006.107-.006.213 0 .319.004.099-.071.183-.17.19-.047.002-.093-.013-.129-.045-.035-.03-.057-.075-.06-.122v-.353c.001-.048.022-.093.057-.126s.081-.05.13-.049zm-12.623-.52c.267.087.515.222.732.4.037.025.062.064.072.109.013.02.023.044.028.068.028.115.005.236-.063.333-.064.082-.16.132-.264.14-.206-.004-.41-.032-.61-.082h-.583c-.179.015-.358-.021-.516-.104-.089-.05-.15-.138-.17-.238-.015-.13.037-.26.138-.344.19-.161.418-.273.663-.324.192-.014.385 0 .573.043zm12.998.317c.06-.033.135-.03.192.01.056.041.085.11.073.179v.126c0 .1-.08.18-.18.18-.1 0-.181-.08-.181-.18v-.144c-.001-.072.035-.137.096-.17zm-6.026.427c.063 0 .132-.017.203-.02.179-.001.357.008.534.028.148.019.298.007.442-.034.082-.024.16-.058.232-.103.04-.026.083-.052.08-.1-.002-.019-.01-.035-.025-.047-.022-.02-.046-.036-.072-.051-.483-.24-1.069-.103-1.394.327zm-7.534-.45c-.134.034-.26.092-.373.172-.03.024-.06.051-.086.08.102.043.214.058.324.043h.322c.095-.006.19-.006.286 0 .095 0 .287.077.462.086h.086c.013-.008.024-.018.035-.029h-.014c-.168-.143-.363-.25-.574-.315-.154-.034-.311-.047-.468-.038zm-5.64-.433c.056-.04.129-.047.19-.016.061.03.1.093.1.161.011.124.028.247.028.37.004.064-.026.125-.079.16-.053.036-.12.04-.177.012-.058-.028-.095-.085-.1-.148-.008-.121-.03-.241-.03-.362-.013-.067.014-.136.069-.177zm18.762-1.005c.099 0 .18.08.181.178.017.287.017.574.017.86-.011.09-.088.159-.179.159s-.168-.068-.18-.158c-.017-.287-.017-.574-.017-.861.003-.097.081-.175.178-.178zm.758-.395c.091.013.158.093.155.186-.035.192-.035.398-.035.594-.001.047-.022.092-.057.124s-.082.048-.13.045c-.098-.005-.175-.088-.171-.187.008-.203.008-.424.037-.628.023-.09.11-.147.201-.134zm-20.154.134c.045-.015.094-.012.137.009.042.02.075.058.09.103l.025.069c.017.044.015.094-.005.137-.02.043-.056.076-.1.092-.093.033-.195-.014-.23-.106-.009-.026-.029-.049-.029-.074-.032-.095.018-.197.112-.23zm1.05-.135c.047.002.091.023.123.058s.049.081.046.129v.155c-.011.09-.088.158-.18.158-.09 0-.167-.068-.178-.158v-.164c0-.049.02-.095.057-.129.035-.034.083-.051.132-.049zm18.34-.437c.097-.016.188.05.204.147l.026.141c.017.098-.048.192-.146.21-.047.008-.095-.003-.134-.03-.039-.028-.065-.07-.073-.117-.008-.049-.026-.097-.026-.146-.015-.098.05-.19.148-.205zm-18.82-.342c.094.01.164.09.161.185-.013.078-.023.157-.028.236-.002.098-.082.177-.18.177-.1-.001-.179-.082-.179-.18 0-.092.015-.181.015-.27h.014c.016-.093.102-.158.197-.148zm.537-.325c.098.019.162.111.147.21-.02.108-.035.217-.05.326-.013.098-.102.167-.2.155-.048-.005-.091-.03-.12-.067-.03-.038-.042-.086-.035-.134.014-.115.029-.23.052-.344.017-.097.11-.162.206-.146zm18.582-.792c.099-.002.18.076.184.175.002.18.025.358.025.536.005.1-.07.184-.169.19-.1.003-.183-.073-.19-.172-.005-.181-.025-.365-.025-.546-.002-.098.076-.18.175-.183zm-.622.117l.05.014c.063.028.105.09.107.159.009.057.026.117.04.175.022.095-.034.191-.129.218-.095.023-.192-.034-.218-.13-.02-.07-.036-.14-.049-.212-.017-.067.006-.138.059-.182.052-.045.126-.056.19-.028zm.189-1.976c.079-.064.195-.05.258.029.067.08.13.164.186.252.055.083.032.195-.051.25-.04.026-.088.035-.134.025-.047-.01-.087-.037-.113-.077-.05-.077-.105-.15-.163-.221h-.012c-.063-.08-.05-.195.029-.258zM23.668 23.3l.054.017c.088.046.123.153.078.241-.263.45-.627.83-1.064 1.113-.08.046-.18.025-.234-.048-.055-.073-.047-.175.018-.238.394-.25.723-.59.961-.99.046-.088.154-.123.241-.078zm7.109-3.058c.089-.034.189.006.229.092.04.087.006.19-.077.235-.104.053-.214.096-.327.126-.096.022-.193-.036-.218-.132-.011-.047-.003-.096.022-.137.025-.04.066-.07.113-.08.09-.026.176-.06.258-.104zm-.271-.932l.051.012c.068.026.112.09.113.163.001.072-.042.138-.108.166-.715.476-1.483.41-2.238.086-.085-.038-.127-.136-.095-.224.04-.09.145-.132.236-.094.64.275 1.294.35 1.899-.055.05-.052.126-.069.193-.042z" mask="url(#feeyja9kdb)"/>
        </g>
    </g>
</svg>
