<svg xmlns="http://www.w3.org/2000/svg" xmlns:xlink="http://www.w3.org/1999/xlink" width="60" height="60" viewBox="0 0 60 60">
    <defs>
        <circle id="tqexxza0ya" cx="30" cy="30" r="30"/>
    </defs>
    <g fill="none" fill-rule="evenodd">
        <g>
            <mask id="nzlja38pxb" fill="#fff">
                <use xlink:href="#tqexxza0ya"/>
            </mask>
            <use fill="#F2F2F6" fill-rule="nonzero" xlink:href="#tqexxza0ya"/>
            <path fill="#151A3B" d="M31.475 16.01l.316-.007c1.048-.017 2.056.024 3.07.354.632.174 1.247.405 1.838.692.385.19.71.482.937.844l.048.08-.009.013c.008.014.013.03.017.044.035-.01.075-.009.113.004.81.247 1.57.631 2.25 1.136.367.346.679.747.923 1.19.892 1.35 1.427 2.903 1.557 4.515l.012.167c.039.493.06.993.07 1.498l.007.38.007.57.006.956.004.383.006.383c.036 1.85.18 3.686.906 5.368.17.4.362.786.561 1.168l.172.327.26.488.172.325c.48.924.916 1.864 1.093 2.93.078.355.137.714.178 1.076.05.401-.07.805-.331 1.114-.468.538-1.346 1.268-2.04 1.416-.083.023-.171-.005-.226-.07-.041-.053-.06-.12-.051-.186.01-.06.027-.119.05-.175.028-.053.051-.11.068-.167.048-.213.086-.425.121-.638.088-.639.02-1.29-.199-1.897-.193-.537-.478-1.036-.842-1.475-.032-.037-.065-.072-.1-.105.128.21.236.43.323.66.355 1.103.46 2.61.067 3.743-.127.312-.336.585-.605.789-.383.286-.788.54-1.211.761-.173.113-.353.214-.539.304-.079.037-.17.037-.25 0-.162-.132-.26-.328-.269-.538-.034-.208-.04-.466-.042-.704v-.369l-.004-.1c-.002-.062-.006-.113-.013-.151-.081-.45-.253-.812-.447-1.165l-.239-.424c-.1-.179-.2-.364-.288-.564-.265-.678-.39-1.404-.366-2.132-.004-.435.04-.87.131-1.297-.707 1.182-.532 2.363-.118 3.545l.062.172.032.087.067.173.068.173.143.346.147.349c.194.4.365.81.51 1.229l.072.21c.123.342.123.716 0 1.058-.203.32-.498.57-.845.718l-.076.03c-.555.231-1.13.411-1.717.539l-.366.089c-.256.061-.533.122-.8.151.171.086.346.17.523.255.497.237 1.007.45 1.52.658l.772.31c.943.382 1.879.777 2.743 1.306 2.422 1.48 3.758 4.563 4.266 7.521l.044.265c.054.352.097.702.13 1.046l.021.257.018.255c.012.074-.02.148-.08.192-.061.043-.142.048-.207.012-.066-.035-.106-.105-.104-.18-.025-.393-.03-2.005-.847-4.266-.687-1.97-1.805-3.758-3.459-4.768-.79-.484-1.644-.856-2.506-1.208l-.559-.225c-.499 2.302-.591 4.674-.274 7.007l.035.241c.04.274.08.574.117.888l.056.48.085.74.06.49c.06.487.125.955.2 1.361.01.051 0 .103-.03.146-.03.042-.074.071-.125.08-.106.02-.209-.05-.229-.156-.087-.475-.161-1.034-.23-1.61l-.143-1.231c-.038-.322-.076-.633-.116-.92l-.03-.211c-.363-2.426-.29-4.897.217-7.296l.034-.159c-.315-.127-.629-.256-.94-.391.007.588-.087 1.186-.193 1.774l-.096.526c-.021.116-.042.232-.061.346l-.14.836c-.121.72-.242 1.397-.409 2.14l-.096.418-.093.408-.041.175-.022.087-.045.172c-.186.683-.458 1.307-1.087 1.739-.98.676-2.373 1.033-3.886 1.165-2.186.159-4.384-.014-6.518-.514-.708-.147-1.393-.388-2.037-.716-.167-.088-.309-.216-.412-.374-.343-.635-.349-1.374-.294-2.09l.017-.204.02-.201.028-.298c.152-1.652.411-3.293.775-4.911l-.596.376c.002.01.002.022.001.032-.052.812-.238 1.6-.443 2.388l-.226.858c-.037.143-.073.287-.108.43-.067.276-.127.553-.186.83l-.117.557c-.136.649-.278 1.296-.48 1.924l-.325 1-.11.343-.107.348c-.318 1.047-.586 2.137-.6 3.175-.001.107-.089.193-.196.193-.108-.002-.194-.09-.194-.199.016-1.055.286-2.173.609-3.247l.109-.356.055-.177.112-.35.275-.849c.172-.534.299-1.082.416-1.633l.173-.827c.058-.276.119-.55.186-.823.052-.21.106-.419.162-.628l.112-.42c.202-.758.397-1.522.475-2.308-1.017.653-2.013 1.33-2.953 2.12-2.898 2.423-3.787 5.51-3.892 9.151 0 .052-.023.1-.06.136-.037.035-.087.054-.139.053-.107-.003-.192-.092-.191-.2.116-3.757 1.047-6.93 4.037-9.446 1.021-.86 2.109-1.584 3.218-2.29l.557-.352.558-.353.28-.177.28-.179c.662-.421 1.375-.901 1.881-1.521-.004-.02-.004-.042 0-.064.107-.553.096-1.122-.032-1.671.032.428.008.859-.073 1.28-.05.373-.257.706-.57.913-.113.055-.236.083-.361.081-.155 0-.31-.012-.463-.035-.196-.018-.389-.063-.573-.132-.196-.066-.367-.191-.49-.358-.083-.133-.118-.29-.097-.447.006-.061.017-.127.033-.197l.073-.302.019-.084.018-.087c.098-.446.136-.903.11-1.359-.038.425-.115.846-.231 1.257-.075.272-.19.53-.345.767-.082.126-.212.212-.36.237-.059-.001-.116-.017-.166-.046l-.036-.024c-.021-.014-.044-.03-.07-.05l-.078-.062-.238-.2-.063-.048c-.018-.014-.033-.024-.044-.03-.36-.223-.771-.348-1.193-.362l-.09-.002c-.039.003-.077-.007-.11-.026-.473-.044-.942-.168-1.41-.3l-.402-.114c-.401-.112-.804-.216-1.211-.265-.055-.006-.114-.011-.177-.015l-.302-.017c-.14-.008-.284-.02-.42-.046-.227-.027-.44-.121-.614-.269-.064-.072-.11-.158-.133-.252l-.01-.047c-.007-.033-.013-.07-.018-.105l-.02-.153c-.004-.031-.009-.06-.015-.083-.169-.599-.26-1.217-.27-1.839-.003-1.623.397-3.22 1.166-4.65.13-.249.279-.49.431-.73l.277-.432c.274-.434.533-.875.692-1.36.396-1.228.561-2.505.695-3.787l.12-1.185c.124-1.183.274-2.36.608-3.497.325-1.115.98-2.099 1.696-2.997l.188-.233c1.456-1.768 3.203-3.423 5.248-4.5 1.844-.969 3.905-1.345 5.975-1.402zm1.424 24.83l-.03.024-.08.065c-.266.417-.551.82-.853 1.201l-.152.188c-1.38 1.676-3.084 2.855-4.839 2.72-.506-.038-.85-.63-1.083-1.347-.01.105-.026.215-.044.33-.184 1.217-1.09 2.072-2.06 2.755l-.158.11-.158.106-.158.103-.158.102-.42.267c-.405 1.729-.691 3.484-.855 5.253l-.048.46-.018.187c-.058.66-.065 1.34.251 1.925.117.144.27.254.444.318.5.226 1.02.404 1.552.533l.2.046c1.06.248 2.137.414 3.22.497.416-.981.553-2.053.627-3.117l.02-.32c.017-.099.106-.17.207-.164.1.006.18.088.184.189-.073 1.158-.196 2.343-.63 3.44.919.053 1.843.047 2.764-.02 1.44-.126 2.77-.457 3.7-1.097.37-.267.645-.644.787-1.077.152-.467.277-.942.374-1.424.158-.66.274-1.26.38-1.871l.09-.53.138-.828.03-.175.131-.706c.108-.594.201-1.198.183-1.792 0-.027.005-.053.015-.077L36.21 47l-.204-.097-.101-.05-.2-.099c-.099-.05-.197-.1-.293-.152l-.191-.106c-.82-.465-1.523-1.035-1.972-1.964-.27-.656-.408-1.36-.406-2.07-.04-.541-.021-1.085.057-1.622zm3.385-3.738l-.043.075c-.524.893-1.191 1.709-1.936 2.436-.011.199.003.399.041.594.026.127.075.248.146.356.06.09.134.173.218.245.085.069.175.132.269.19.02.012.04.024.059.038.181.133.343.29.482.466.144.184.241.4.282.63.045.249.037.504-.021.75-.121.512-.415.986-.538 1.5-.042.168-.058.343-.046.516.008.15.027.3.059.447.034.176.078.348.125.52l.041.15.021.003c.315.025.678-.045 1.018-.126l.391-.097.091-.022c.263-.056.522-.124.779-.203-.009-.011-.014-.023-.014-.06l.004-.016.02-.03c.004-.004.005-.01.005-.014.068-.153.116-.313.146-.477l.016-.099c.035-.198.05-.399.046-.6-.024-.455-.147-.9-.361-1.303-.065-.12-.143-.23-.223-.338l-.162-.218c-.027-.036-.053-.073-.078-.111-.074-.108-.137-.224-.188-.345-.085-.211-.12-.44-.105-.667.015-.194.04-.387.072-.578l.027-.143c.045-.213.055-.43.033-.646-.019-.111-.058-.218-.116-.315-.093-.151-.196-.297-.307-.436-.078-.105-.148-.216-.21-.331-.1-.21-.16-.436-.178-.667l-.005-.087v-.19c.01-.272.056-.54.14-.797zm-2.05 2.58c-.329.316-.672.616-1.023.897l.09-.073c.025.04.036.088.028.137-.107.592-.138 1.194-.094 1.793-.003.66.122 1.314.369 1.927.358.745.895 1.23 1.524 1.622-.093-.214-.17-.434-.23-.659-.087-.339-.093-.694-.016-1.036.054-.204.133-.402.216-.598l.124-.294c.08-.197.154-.394.198-.599.047-.196.053-.399.019-.597-.03-.17-.1-.328-.207-.463-.132-.148-.274-.287-.425-.415-.019-.015-.036-.032-.052-.05-.083-.095-.153-.192-.228-.294-.078-.1-.147-.206-.205-.318-.064-.136-.103-.283-.116-.433-.01-.179 0-.358.025-.535l.003-.012zM22.889 37.96l-.001.046c-.002.04-.005.08-.012.121-.01.156-.039.31-.086.458 0 .015-.005.03-.011.044l-.024.044c-.004.007-.008.014-.01.022-.045.09-.097.176-.153.261l-.172.255c-.056.084-.11.17-.158.26-.052.094-.087.197-.104.303-.044.404-.002.813.122 1.2l.014.023.044.094.067.153c.046.107.089.212.13.32.11.35.184.711.223 1.076.066.558.035 1.122-.092 1.669-.011.063-.025.123-.038.18l-.059.24-.016.072c-.035.102-.035.212 0 .313.043.091.145.161.328.237.15.056.309.092.469.104.1.017.202.027.304.03l.102.003c.064.004.127-.007.186-.033.212-.155.349-.392.377-.654.083-.476.098-.962.043-1.442 0-.042-.016-.108-.038-.186l-.098-.314c-.022-.074-.042-.146-.055-.213-.03-.12-.03-.244 0-.364l.004-.01c-.16-.38-.245-.788-.252-1.2-.001-.15.024-.297.075-.437l.023-.055.047-.106c.049-.08.086-.166.111-.256-.066-.079-.13-.159-.194-.24-.478-.645-.835-1.32-1.096-2.018zm16.417-3.32l-.131.16c-.205.274-.444.52-.711.733-.208.165-.48.228-.74.17-.203-.065-.364-.222-.433-.423-.05-.131-.085-.267-.104-.405-.178.73-.46 1.423-.819 2.077l.016.002c.011.003.021.01.027.021.004.008.005.016.005.024l-.003.011c-.054.209-.088.423-.1.638-.014.14-.014.282 0 .423.04.227.132.442.27.627l.05.065.17.204c.128.146.243.303.345.468.08.131.135.277.161.428.04.24.015.479-.02.718l-.05.308c-.02.136-.038.272-.043.408-.009.176.02.351.084.514.044.095.096.185.156.27l.082.115.17.227c.084.114.166.23.235.355.291.542.43 1.153.401 1.768-.007.15-.03.299-.07.444-.047.17-.122.333-.22.479.186-.065.371-.136.554-.213.298-.104.555-.303.732-.565.08-.256.07-.531-.03-.78-.156-.475-.343-.939-.56-1.389l-.152-.363-.074-.182-.073-.181-.07-.182-.069-.181-.065-.182c-.477-1.36-.67-2.715.213-4.066.18-.326.418-.617.702-.86.11-.155.203-.32.28-.494.106-.227.13-.484.067-.726-.03-.086-.07-.168-.118-.245-.022-.038-.043-.078-.062-.119v-.024c-.003-.026-.003-.051-.003-.077zM24.637 24.353l-.078.055c-2.168 1.55-3.782 3.927-3.696 6.641.069.928.193 1.851.372 2.764l.061.304c.223 1.035.27 2.1.14 3.152-.125.743-.433 1.46-.77 2.172l-.364.763-.142.305-.07.153-.081.188c-.416.972-.69 1.963-.369 3.035l.014.044c.432.024.853.147 1.23.359l.087.05.036.023.057.04.071.054.079.061.118.095.07.058.053.046c.008-.006.015-.013.022-.021.031-.037.06-.076.083-.119.098-.176.175-.363.229-.557.264-.934.314-1.915.148-2.871-.01-.033-.01-.067-.002-.1-.042-.15-.081-.304-.117-.457-.06-.29-.074-.587-.037-.88.023-.153.075-.3.153-.434.07-.111.15-.216.24-.312.122-.126.233-.262.333-.406.114-.162.195-.345.237-.539.021-.12.034-.24.039-.36-.388-1.167-.52-2.39-.506-3.63-.03.017-.066.026-.103.024-.151-.02-.287-.102-.374-.227-.144-.202-.262-.422-.351-.653l-.037-.1c-.342-.915-.47-2.344-.027-3.243.093-.255.318-.437.587-.474.211-.006.416.076.565.226.069.065.13.136.183.212l.05-.302.026-.153.054-.306c.301-1.64.772-3.36 1.787-4.68zm-.242 16.119l-.004.064c-.001.061-.009.123-.021.183-.033.116-.054.235-.065.355.004.338.067.674.186.99.03.088.071.186.105.27l-.01-.014c.052.062.1.127.142.197.126.214.234.44.323.672.156.451.231.924.224 1.397.086-.199.149-.41.185-.635.142-.881.054-1.413-.16-2.133l-.06-.201-.103-.325c-.006-.017-.01-.034-.01-.052-.255-.245-.499-.502-.732-.768zm15.1-6.07l-.054.07c.007.005.013.012.019.02l.026.006.044.009c.013.003.027.008.043.02.04.028.076.063.105.104.086.109.148.234.183.369.107.433.027.891-.22 1.262-.05.085-.103.169-.159.25-.005.025-.013.05-.025.073l-.017.033-.069.123c-.015.026-.028.051-.035.07l-.092.225c-.03.076-.059.152-.083.23-.152.503-.225 1.027-.215 1.553-.024.673.09 1.344.333 1.972.088.199.184.382.282.56l.176.315c.233.416.448.83.544 1.37.005.031.009.072.011.12l.003.106.004.474c.002.124.005.252.014.374l.005.072c.008.113.026.225.054.334.004.018.01.035.019.051.023-.01.045-.02.067-.032l.139-.081.066-.041.14-.088.01-.005c.302-.157.594-.332.874-.524-.005-.033-.009-.065-.012-.098-.003-.032-.003-.065 0-.097.072-.424.072-.857 0-1.28-.084-.49-.245-.965-.422-1.442l-.23-.613c-.205-.548-.393-1.103-.473-1.687-.038-.298-.038-.6 0-.899.113-.683.264-1.36.452-2.026.114-.424.157-.863.13-1.3-.014-.24-.077-.476-.184-.692-.066-.13-.147-.252-.232-.372l-.172-.24-.084-.123-.043-.068c-.191.513-.502.993-.838 1.434l-.084.11zm-4.764-17.66c-.969-.316-1.934-.353-2.936-.335l-.318.007c-2.01.043-4.012.404-5.802 1.345-2.002 1.055-3.706 2.673-5.13 4.403l-.094.117-.187.236c-.649.83-1.236 1.721-1.532 2.732-.352 1.193-.5 2.43-.627 3.67l-.087.86c-.137 1.338-.3 2.67-.716 3.95-.16.494-.423.946-.7 1.39l-.281.444c-.155.246-.307.493-.44.747-.74 1.374-1.127 2.911-1.125 4.473.016.59.107 1.174.27 1.741.006.024.011.053.016.085l.023.16.01.056c.002.027.007.054.014.08l.012.039c.003.012.009.024.016.035.118.096.26.155.412.17.133.024.273.037.41.045l.293.016c.061.003.119.008.172.014.35.042.698.125 1.044.22-.047-.226-.07-.457-.065-.689.004-.193.024-.386.06-.576.169-.776.476-1.516.906-2.185.267-.439.566-.861.789-1.319.282-.538.382-1.154.285-1.754-.032-.217-.077-.432-.125-.646l-.098-.425-.046-.21-.156-.76c-.078-.376-.152-.748-.215-1.124-.07-.42-.127-.843-.16-1.276-.04-.52-.04-1.043 0-1.564.112-1.211.43-2.394.943-3.498.213-.472.456-.93.726-1.37.645-1.015 1.397-1.957 2.245-2.81.008-.008.021-.008.03 0 .003.004.005.009.005.014 0 .005-.002.01-.005.013-.808.885-1.522 1.852-2.13 2.885-.257.442-.49.898-.699 1.365-.49 1.087-.785 2.25-.875 3.44-.032.506-.02 1.015.033 1.52.045.436.113.837.196 1.243.073.371.157.74.245 1.11l.178.747c.083.428.207.867.269 1.308.047.308.052.622.013.931-.054.362-.165.714-.328 1.042-.114.231-.249.455-.389.678l-.21.333c-.071.11-.141.222-.208.334-.337.527-.6 1.098-.784 1.696-.073.264-.121.534-.142.807-.023.27-.011.541.035.808.004.007.008.016.01.025l.363.103c.362.101.725.194 1.091.243-.266-1.006-.07-1.949.287-2.869l.082-.204c.042-.101.086-.203.131-.304.066-.15.135-.297.206-.446l.285-.592.14-.296c.302-.644.57-1.292.68-1.963.114-.946.08-1.904-.1-2.839l-.037-.186c-.218-1.03-.365-2.073-.442-3.122-.084-2.853 1.611-5.368 3.89-6.99l.19-.132c.442-.302.906-.57 1.38-.801.717-.466 1.506-.708 2.34-.925l.597-.152c1.1-.3 2.227-.498 3.364-.59.034 0 .066.006.094.02l-.056.064c.071-.084.147-.165.226-.242.41-.394.847-.76 1.308-1.093.67-.513 1.377-.976 2.115-1.386.34-.184.694-.343 1.058-.474l.183-.064c.073-.028.148-.051.224-.069-.014-.01-.027-.024-.037-.04l-.015-.023c-.193-.33-.48-.594-.823-.761-.57-.272-1.164-.493-1.774-.66zm6.758 17.87l.003.093c.004.172-.006.344-.027.516-.016.15-.038.28-.067.42-.04.187-.087.374-.137.562l-.103.377c-.211.63-.297 1.296-.253 1.959.078.625.282 1.214.496 1.796l.142.386c.188.515.361 1.028.439 1.559.073.42.066.85-.02 1.267l-.015.064.024-.018c.213-.158.38-.37.484-.614.369-1.06.27-2.465-.07-3.498-.11-.267-.242-.524-.393-.77-.102-.178-.175-.372-.215-.574l-.046-.074c-.032-.063-.06-.13-.08-.197-.057-.213-.079-.434-.067-.654l.028-.346.053-.507c.008-.085.015-.169.02-.253.009-.138.009-.276 0-.415-.01-.252-.044-.502-.104-.748-.027-.111-.057-.222-.092-.331zm-3.9-16.272l-.002.007c-.01.02-.03.034-.051.04-.024.016-.048.032-.073.045-.037.018-.076.032-.116.043-.582.216-1.143.486-1.674.808-.591.36-1.163.753-1.712 1.176-.525.372-1.018.789-1.472 1.246l-.054.058c.24.58.56 1.123.948 1.616.174.209.355.409.538.606l.22.234.332.348c.624.657 1.224 1.324 1.625 2.181.34.708.405 1.41.44 2.127l.024.509c.014.299.034.601.075.909.067.554.257 1.026.475 1.494l.111.233.113.235.112.238c.224-.57.523-1.101.976-1.533.124-.124.262-.232.41-.323-.024-.014-.047-.03-.069-.048-.007-.008-.013-.018-.018-.027-.085-.177-.148-.363-.19-.555l-.018-.096c-.11-.547-.174-1.101-.193-1.658-.017-.27-.022-.538-.057-.808-.032-.268-.089-.533-.17-.79-.065-.203-.156-.396-.269-.577-.295-.431-.613-.847-.952-1.246-.219-.278-.4-.584-.539-.91-.005-.015.002-.033.017-.04.015-.005.032.002.04.016.152.312.344.604.57.867.355.391.689.802.999 1.23.125.188.228.39.307.603.082.239.146.483.194.732.019.098.037.203.054.304l.029.19c.021.149.054.278.054.418l.019.207.032.415c.03.51.12 1.013.27 1.501.02.042.035.086.042.132.002.023 0 .04-.003.057.1-.052.204-.096.313-.132.248-.082.52-.055.748.075.39.227.517.737.556 1.162l.009.114c.008.284-.032.56-.108.828l.049.017c.005.003.011.01.016.017l.008.013c.177.231.342.472.495.72l.052.092.099.178.047.09c.144.202.27.417.375.642.101.204.185.415.25.633.067.22.112.446.135.675.012.152.012.305 0 .458 0 .339-.067.68-.086 1.014-.014.175-.008.351.019.525.013.072.034.142.062.21l-.008-.003c.044.01.085.03.12.06.019.013.04.033.063.055l.068.068c.022.022.042.041.058.054.185.126.355.274.506.439.396.476.705 1.017.915 1.598.238.668.312 1.384.216 2.086-.038.22-.076.444-.124.662v.015l-.006.028c.33-.165.639-.367.922-.6l.01-.125.036-.428.022-.274c.03-.412.041-.824-.023-1.243-.075-.557-.23-1.1-.458-1.614-.218-.485-.466-.955-.743-1.408-.436-.69-.825-1.41-1.165-2.153-.087-.204-.151-.417-.194-.635-.08-.5-.135-1.004-.164-1.51-.023-.319-.083-.634-.18-.94-.139-.414-.371-.776-.616-1.132l-.246-.356c-.136-.198-.267-.4-.379-.613-.101-.19-.184-.39-.248-.595-.121-.425-.19-.863-.204-1.305-.015-.33-.015-.665-.011-.994l.01-.727v-.233c0-.023.019-.042.041-.043.011 0 .022.003.03.01.009.009.013.02.013.03.008.133.014.27.02.411l.022.65c.011.294.026.592.055.883.034.423.118.841.25 1.246.073.187.163.367.27.538.123.212.27.413.418.61l.223.297c.073.098.144.198.212.299.418.558.667 1.225.718 1.921.014.123.024.247.034.37l.029.372c.02.246.046.492.096.733.034.186.086.368.156.544.337.726.72 1.43 1.144 2.11.282.468.533.954.75 1.456.233.548.386 1.126.456 1.717.034.41.022.824-.035 1.232-.027.227-.063.452-.096.677.127-.12.248-.246.362-.378.19-.232.276-.534.234-.832-.012-.197-.05-.398-.09-.595l-.06-.293-.025-.142c-.174-1.05-.605-1.974-1.082-2.88l-.17-.32-.257-.48-.17-.32c-.197-.376-.387-.756-.554-1.149-.659-1.544-.846-3.216-.908-4.909l-.012-.376-.004-.189-.01-.565-.012-1.14c-.008-.718-.02-1.43-.065-2.131l-.026-.349c-.099-1.606-.617-3.157-1.504-4.5-.22-.408-.504-.778-.84-1.098-.644-.478-1.366-.843-2.134-1.076-.036-.013-.066-.035-.089-.063zm-5.56 3.54c-1.037.095-2.063.281-3.068.557l-.56.141c-.553.142-1.086.293-1.589.519-.016.055-.057.1-.112.123-.205.085-.408.176-.61.275-.173.116-.34.247-.504.395-1.223 1.115-1.817 2.734-2.18 4.353l-.055.256-.052.255-.049.255-.046.253-.043.251-.083.51-.065.413-.062.414-.04.276-.037.277-.036.277-.033.277-.015.138-.029.278-.013.138-.024.277c-.195 2.446.031 4.863 1.573 6.957.6.759 1.29 1.445 2.05 2.042.014.013.025.028.033.044.026.007.05.02.07.037.596.482 1.367.693 2.126.581.795-.105 1.565-.347 2.277-.716.755-.408 1.463-.897 2.113-1.458 1.806-1.447 3.387-3.377 3.885-5.676-.006-.029-.005-.06.004-.089l.05-.19.009-.05c.003-.019.01-.037.018-.054l.13-.494c.065-.249.135-.498.214-.743-.034-.02-.06-.052-.077-.09-.039-.09-.078-.178-.119-.266l-.121-.26-.18-.385c-.238-.513-.447-1.027-.527-1.634-.04-.297-.057-.59-.068-.878l-.018-.493c-.027-.695-.08-1.376-.407-2.06-.347-.74-.847-1.33-1.38-1.9l-.215-.227-.217-.226c-.289-.302-.578-.607-.85-.934-.391-.496-.717-1.04-.969-1.62l-.028-.067-.036-.027c-.013-.009-.022-.013-.029-.015h-.005v-.017zm-6.76 15.294c.075-.072.194-.072.269 0 1.025.945 2.734.934 3.81.073.084-.063.202-.05.27.03.061.084.047.201-.033.269-1.213.985-3.146.985-4.306-.092-.04-.035-.063-.085-.065-.137-.002-.053.018-.105.055-.143zm2.386-6.178c.069-.007.136.024.176.08.04.057.047.13.019.194-.21.46-.392.94-.57 1.421l-.21.577c-.07.192-.141.383-.214.572l-.047.11-.156.353c-.07.161-.137.327-.187.487-.078.22-.12.428 0 .576.123.122.287.194.46.199.167.02.336.025.504.013.099.012.173.096.173.196s-.074.183-.173.195c-.154.01-.308.008-.461-.005l-.115-.011c-.281-.019-.543-.151-.724-.366-.128-.19-.173-.425-.124-.65.116-.424.271-.838.463-1.234.073-.191.144-.384.215-.578l.213-.583c.143-.389.29-.776.452-1.153l.124-.28h.024c.029-.064.09-.107.158-.113zm11.606-.14c-.216.098-.413.235-.582.403-.314.308-.567.672-.748 1.074l.034-.035.033-.033c.156-.157.338-.286.539-.379.158-.072.336-.09.506-.051.38.093.624.467.554.853-.055.51-.272.99-.619 1.367-.144.163-.37.223-.576.154-.183-.099-.295-.29-.295-.494l.002-.045c0-.108.086-.196.194-.199.107 0 .195.087.196.194 0 .047.007.093.022.137 0 .024.016.046.035.054.018.006.038.006.056 0 .038-.016.072-.04.1-.07.28-.305.454-.692.497-1.103 0-.21-.045-.399-.269-.455-.078-.019-.16-.012-.233.018l-.036.017c-.16.073-.306.174-.43.299-.47.544-.725 1.24-.719 1.959.002.181.024.362.067.538.038.13.09.253.216.288.146.027.297-.015.409-.113.238-.191.451-.413.632-.66l.183-.223.123-.153.06-.078.121-.158c.476-.64.881-1.36.859-2.157-.003-.19-.033-.38-.089-.562-.04-.157-.136-.295-.27-.388-.164-.086-.357-.093-.527-.021l-.045.021zM22 29.732c-.102.019-.188.105-.269.27-.4.812-.269 2.106.04 2.933.071.196.161.384.27.562.031.05.068.096.11.137l.022.02c.006.006.013.01.021.01.032.002.063.011.09.028.007-.23.018-.46.034-.69-.023.006-.048.007-.073.003-.102-.015-.197-.063-.269-.138-.076-.08-.14-.17-.19-.269-.213-.42-.225-.915-.033-1.345.156-.34.377-.423.538-.388.093.033.175.087.241.155l.07-.482c-.016-.02-.028-.046-.035-.073l-.004-.028c-.024-.202-.112-.39-.25-.538l-.07-.07c-.067-.06-.153-.095-.243-.097zm.216 1.515c-.016.01-.03.023-.04.038-.031.038-.057.08-.076.126-.144.317-.138.682.016.993.02.039.041.076.066.11l.06.078c.01.013.022.022.038.022.024 0 .046.005.067.013.022-.261.05-.524.08-.786-.019-.024-.031-.053-.036-.085-.014-.101-.035-.2-.062-.299-.015-.06-.042-.118-.078-.17-.01-.014-.022-.028-.035-.04zm9.336-1.305c.081-.066.2-.055.269.024.064.083.052.201-.027.27-.098.08-.201.154-.31.219.007.016.013.033.018.05.068-.003.136-.011.203-.025.106-.016.206.057.222.163.017.106-.056.206-.163.222-.075.015-.152.025-.23.03-.013.185-.072.365-.173.524-.046.073-.105.138-.173.192-.07.054-.156.082-.244.078-.038-.003-.074-.013-.108-.03h-.014c-.082-.024-.15-.083-.185-.162-.041-.096-.066-.199-.073-.304-.017-.15-.007-.302.03-.45.032-.203.14-.387.304-.513.046-.033.104-.044.159-.03.037-.01.075-.012.113-.009.136-.068.264-.151.382-.25zm-6.82-.471c.093-.056.213-.026.27.067l.062.102c.065.102.14.195.255.224l.04.008c.023.002.044.009.064.018h-.018c.053-.003.106.008.153.033.068.038.119.1.143.172.024.088.036.179.035.27.007.234-.034.468-.121.686-.074.215-.304.333-.522.269-.08-.02-.146-.073-.183-.145-.042-.085-.067-.176-.076-.27-.018-.144-.01-.29.02-.432-.06-.008-.12-.02-.178-.036-.104-.028-.197-.085-.27-.164-.031-.042-.044-.095-.036-.146.008-.052.037-.098.08-.129.081-.064.2-.054.269.025.022.021.05.037.08.045l.03.006c.04.008.08.014.12.018-.104-.079-.19-.179-.254-.295l-.03-.06c-.027-.044-.035-.097-.022-.147.013-.05.045-.093.09-.12zm6.718-1.839c.36-.026.71.131.93.418.063.085.047.203-.034.27-.084.063-.203.049-.27-.033-.138-.186-.36-.289-.591-.274-.214.013-.409.127-.526.304l-.026.042-.003.006c-.051.094-.17.13-.264.078-.094-.051-.129-.17-.078-.264.177-.315.5-.52.862-.547zm-6.508.238c.52-.525 1.268-.603 1.774 0 .044.053.057.126.033.192-.024.065-.08.113-.15.125-.068.012-.137-.014-.182-.067-.342-.41-.848-.331-1.2.021-.078.073-.199.072-.275-.002-.071-.076-.071-.194 0-.27z" mask="url(#nzlja38pxb)"/>
        </g>
    </g>
</svg>
