<svg xmlns="http://www.w3.org/2000/svg" xmlns:xlink="http://www.w3.org/1999/xlink" width="60" height="60" viewBox="0 0 60 60">
    <defs>
        <circle id="r57ahrreua" cx="30" cy="30" r="30"/>
    </defs>
    <g fill="none" fill-rule="evenodd">
        <g>
            <mask id="smdrow9nib" fill="#fff">
                <use xlink:href="#r57ahrreua"/>
            </mask>
            <use fill="#F2F2F6" fill-rule="nonzero" xlink:href="#r57ahrreua"/>
            <path fill="#434866" d="M37.054 16.397c.455.798.733 1.659.838 2.53l.052.03.013.233.019.247.023.254.032.3.03.251.024.18.04.285.032.2.053.316.04.218.065.339.05.233c.308.352.55.691.712.989l.05.098.015.038c.045.183.073.37.085.56l.006.144v.988c.414.988.96 1.948 1.68 2.737l.137.146c3.644 3.763 4.318 13.613-7.118 13.469v4.961l.01.04c.201.718 1.264 1.43 2.912 2.066l.135.051c.697.262 1.444.493 2.192.691l.155.04.294.075.493.115.052.011c.016.003.03.008.044.014h.238c.021 0 .042.003.063.01l.038.016.32.173.222.127c.285.165.597.356.928.571 1.104.717 2.207 1.562 3.238 2.529C48.222 55.444 50 58.649 50 62.247c0 .102-.075.187-.173.203l-.033.003H10.206c-.114 0-.206-.092-.206-.206 0-3.598 1.78-6.803 4.737-9.575 1.032-.967 2.137-1.812 3.241-2.529.332-.215.643-.406.929-.571l.14-.08.234-.13.105-.057c.029-.037.071-.064.13-.074 1.659-.288 3.057-.804 4.214-1.481.644-.377 1.171-.78 1.591-1.182.117-.111.218-.216.304-.313l.084-.096.05-.062v-5.206c-1.67-1.148-2.866-3.077-3.647-5.611l-.047-.155-.091-.315-.004-.014c-.728.774-1.924.266-2.699-.98-.874-1.405-.995-3.66.07-4.287.62-.363 1.232-.204 1.772.264l.035.03-.014-.203-.045-.198-.035-.167-.02-.096-.041-.22-.043-.244-.041-.266c-.028-.185-.054-.383-.078-.594l-.021-.206-.018-.185-.038-.009c-.115-.035-.196-.135-.209-.248l-.001-.039v-2.965c0-.354.096-.701.28-1.01.126-.199.258-.393.396-.582l-.001.007c.022-.074.046-.147.07-.22.068-.208.144-.414.229-.618l.087-.203c.09-.204.188-.406.296-.605l.076-.138.048-.083.072-.123c.055-.09.112-.18.171-.27l.069-.102c.08-.117.164-.232.251-.346l.146-.183.053-.065.064-.076.077-.088.11-.122.143-.15.13-.13.127-.123.103-.094.141-.125.147-.123.197-.156.128-.096.122-.088.18-.124.237-.153c.613-2.289 2.408-4.14 4.783-4.768 2.953-.783 6.063.519 7.578 3.171zm-10.882 29.77c0 .043-.013.085-.038.12l-.038.05-.076.094-.019.022c-.107.125-.238.265-.394.414-.443.423-.996.846-1.668 1.24-.7.409-1.483.76-2.353 1.042l-.253.079h17.156l-.064-.018c-.432-.126-.86-.263-1.274-.41l-.307-.113-.138-.053-.269-.106c-1.624-.659-2.668-1.395-2.897-2.248l-.017-.07-.004-.043v-3.594c-.355.799-.956 1.23-1.499 1.464l-.129.053c-.063.024-.126.046-.187.065l-.12.036-.113.03-.107.024-.1.02-.092.015-.082.012-.104.012-.114.008-.03.001c-1.955.131-3.316-1.104-4.095-2.116l-.104-.14-.05-.068-.094-.134-.085-.128-.079-.122-.07-.115-.093-.157v4.834zm.466-22.284l.102.2c.671 1.27 1.83 2.712 3.795 3.544l.155.064-.19-.016-.224-.026-.234-.034-.133-.022-.218-.04-.238-.049-.17-.038-.177-.044-.092-.023-.187-.051-.096-.028-.197-.06c-.067-.02-.134-.042-.202-.065l-.207-.071-.105-.038-.056.274-4.252.46 1.014-.718c.26-.165.547-.281.848-.342l1.261-.204c-.932-.495-1.88-1.205-2.645-2.22-.339.212-.665.443-.978.693-.164 1.373-.657 2.582-1.113 3.454l-.113.21-.11.196-.054.093-.103.173-.098.156-.09.14c.008.147.018.297.03.45.106 1.425.31 2.831.635 4.156l.084.33.086.317c.756 2.698 1.954 4.72 3.665 5.877.034.01.065.032.09.058 1.052.688 2.296 1.052 3.748 1.052 1.429 0 2.65-.353 3.679-1.02.03-.052.085-.09.148-.099 1.746-1.202 2.923-3.333 3.616-6.183.036-.148.07-.296.103-.445l.114-.563.042-.223.03-.174.03-.193.048-.324.068-.49.09-.7.031-.27.032-.36c.02-.253.037-.504.05-.753l-.077-.108-.088-.127-.047-.071-.101-.157c-.173-.278-.374-.637-.57-1.072-2.001.246-3.885-.2-5.575-.993l-.053-.006-.004-.02c-1.875-.89-3.51-2.2-4.797-3.457zm6.264 11.243c.054.093.023.213-.07.267-1.735 1.007-3.875 1.007-5.61 0-.093-.054-.125-.174-.07-.267.054-.094.173-.125.267-.071 1.613.936 3.603.936 5.216 0 .093-.054.213-.023.267.07zm7.054-5.248c-.435-.257-.868-.144-1.29.22-.063.055-.123.112-.177.17l-.078.088-.06.073-.105.898-.051.409c.092-.115.19-.218.292-.307.47-.411.968-.513 1.398-.44l.057.011.038.01c.054.017.085.075.069.13-.017.054-.075.084-.13.068l-.025-.007-.044-.008c-.364-.062-.787.02-1.196.365l.036.024c.088.06.177.131.26.212.456.442.56.985.08 1.57-.036.043-.1.05-.145.013-.044-.036-.05-.1-.014-.145.403-.49.321-.915-.065-1.29-.074-.072-.153-.135-.233-.19l-.061-.04-.015-.008c-.128.133-.249.292-.361.477l-.049.35-.048.329-.047.288-.044.244-.22 1.084.016.02c.486.518 1.39.185 2.04-.75l.053-.08.049-.075c.767-1.232.873-3.24.07-3.713zm-20.405.007c-.805.474-.697 2.479.07 3.713.69 1.108 1.65 1.474 2.135.81.024-.033.057-.057.092-.07l.04.152c-.143-.542-.265-1.098-.368-1.664l-.06-.343c-.149-.307-.313-.557-.491-.753l-.035.023c-.08.054-.16.117-.233.189-.388.375-.469.8-.064 1.29.036.044.03.109-.014.145-.044.037-.11.03-.146-.014-.481-.584-.377-1.127.08-1.57.056-.053.114-.103.172-.147l.091-.066-.006-.006c-.376-.339-.759-.436-1.096-.392l-.085.014-.043.01c-.054.019-.112-.01-.13-.065-.018-.054.011-.112.065-.13l.038-.01.055-.012c.434-.08.938.037 1.411.505l.02.02c.008.006.016.014.023.023l-.043-.043c.12.118.234.257.342.416-.068-.466-.123-.937-.168-1.412l-.018-.023-.024-.033-.051-.063-.013-.016c-.074-.088-.16-.176-.254-.258-.421-.364-.854-.477-1.292-.22zm9.768 1.413c.097 0 .178.07.193.164l.002.031v1.449c-.01.174.068.341.207.446.124.093.282.127.44.09l.06-.017.42-.112c.105-.027.212.035.24.14.025.093-.023.19-.11.228l-.03.01-.406.108c-.288.099-.606.049-.85-.135-.225-.17-.358-.434-.363-.706l.001-.063v-1.438c0-.107.088-.195.196-.195zm-2.983-2.36c.427 0 .773.346.773.773 0 .427-.346.773-.773.773-.427 0-.773-.346-.773-.773 0-.427.346-.773.773-.773zm7.206 0c.427 0 .773.346.773.773 0 .427-.346.773-.773.773-.427 0-.773-.346-.773-.773 0-.427.346-.773.773-.773zm-3.99-10.197c-3.415-.006-6.594 1.741-8.418 4.622-.131.221-.207.47-.223.725l-.003.095v2.756l.08-.11c1.934-2.643 4.953-4.279 8.22-4.456l.176-.009.383-.01c2.304-.042 4.363.61 6.169 1.775 1.218.787 2.186 1.712 2.903 2.613l.03.037v-2.933c-.002-.126-.013-.251-.032-.376l-.022-.123-.022-.103-.031-.06c-.355-.66-1.164-1.569-2.233-2.343l-.13-.092-.132-.091c-1.787-1.21-4.025-1.917-6.714-1.917z" mask="url(#smdrow9nib)"/>
        </g>
    </g>
</svg>
