<svg xmlns="http://www.w3.org/2000/svg" xmlns:xlink="http://www.w3.org/1999/xlink" width="60" height="60" viewBox="0 0 60 60">
    <defs>
        <circle id="jf9zjk3cca" cx="30" cy="30" r="30"/>
    </defs>
    <g fill="none" fill-rule="evenodd">
        <g>
            <mask id="l5vhskxppb" fill="#fff">
                <use xlink:href="#jf9zjk3cca"/>
            </mask>
            <use fill="#F2F2F6" fill-rule="nonzero" xlink:href="#jf9zjk3cca"/>
            <path fill="#151A3B" d="M29.981 5.607l.282-.113.267-.106c.71-.276 1.433-.495 2.253-.333.963.194 1.585 1.144 2.545 1.33.467.09.931.05 1.395-.01l.398-.054c.53-.072 1.06-.127 1.594 0 .567.135.955.477 1.326.848l.277.28c.217.22.442.433.708.606.047.03.116.1.203.2l.112.133.126.159.139.181.149.201.238.33.336.476.34.493 1.194 1.759.023.032c.17.24.443.413.732.575l.373.207c.205.116.398.24.548.39.44.415.621.893.797 1.425l.134.409c.063.186.132.378.218.575.11.252.15.512.175.773l.037.471c.02.209.049.415.116.616.054.155.127.291.204.421l.174.285c.131.22.244.445.262.736.04.653-.338 1.252-.293 1.905.018.246.08.485.152.721l.13.423c.097.329.17.658.12 1-.011.277-.096.535-.191.79l-.116.305c-.076.204-.142.41-.167.626-.022.181-.227.41-.482.652l-.143.132-.335.3-.138.129c-.202.19-.37.368-.434.518l-.017.048c-.082.279-.234.532-.398.78l-.2.298c-.132.198-.258.398-.348.611-.033.08-.062.174-.091.273l-.087.313c-.08.284-.177.57-.345.734-.079.078-.209.126-.364.158.15.154.258.347.31.563.11.302.179.617.207.937.122.977-.419 2.662-1.35 3.698-.501.555-1.11.924-1.78.94-.018.122-.057.242-.117.353-.22.356-.48.686-.775.982-.306.301-.626.585-.955.855-.167.19-.342.374-.518.541-.293.294-.649.519-1.04.658-.293.216-.59.423-.901.63-.04.028-.086.044-.131.05-.834.96-1.746 1.852-2.727 2.666l.024.017c.078.064.116.164.1.263-.03.181-.048.393-.061.621l-.034.721c-.012.248-.027.499-.054.739-.006.095-.017.19-.032.284l.077.016c1.003.217 1.208.81 1.224 1.537v.153l-.003.155-.01.239-.022.408-.007.165-.002.083c-.023 1.162.171 2.464 1.117 3.239.127.1.26.194.396.28-1.62 2.316-4.07 3.79-6.755 4.797l-.23.085c-.104.028-.182.112-.204.217-.02.105.018.212.102.279.072.057.166.075.252.051l.043-.016c2.905-1.058 5.554-2.635 7.288-5.144.814.348 1.654.63 2.513.843 1.82.48 3.602 1.098 5.33 1.847 1.387.644 2.787 1.41 3.688 2.657 1.112 1.504 1.459 3.616 1.605 5.593l.029.422.024.415.02.408.034.788c.107 1 .15 2.004.13 3.009-.095 1.109-.778 1.615-1.621 1.996l-.19.082-.194.08-.192.076-.517.201-.258.106c-2.757 1.162-5.782 1.712-8.754 2.129l-.742.101-.738.098c-8.128 1.165-16.387 1.07-24.486-.283-1.885-.406-3.746-.911-5.577-1.514-.157-.046-.32-.086-.488-.123l-.34-.071-.348-.07-.349-.073c-.581-.129-1.154-.3-1.628-.636-.32-.23-.325-.548-.257-.88l.031-.133.088-.334.03-.13c.248-1.221.559-2.424.901-3.604.838-2.86 2.158-6.04 4.441-8.08 1.225-1.099 2.725-1.957 4.219-2.73l.559-.285.83-.418c.14-.073.286-.144.436-.214l.305-.14.79-.358.32-.15c.957-.456 1.883-1 2.424-1.84.028-.048.053-.098.072-.15.198 1.519.324 3.041.486 4.573.014.093.073.175.158.216.008.051.03.1.063.14 1.113 1.207 2.6 1.553 4.185 1.63.108.018.216-.028.279-.117.062-.09.068-.207.014-.303-.053-.095-.157-.15-.266-.143-1.433-.068-2.793-.356-3.797-1.446-.022-.023-.048-.042-.077-.054l-.058-.564-.168-1.686c-.15-1.495-.316-2.983-.598-4.466.014-.186.053-.37.117-.545.208-.549.691-.91 1.196-1.21l.203-.116.201-.112c-.123-.371-.264-.736-.424-1.094-.02-.068-.011-.139.018-.198-.62-.38-1.202-.862-1.735-1.455-.797-.89-1.45-1.899-1.937-2.99-1.01-2.28-1.286-4.813-1.215-7.353l-.05.055c-.215.214-.53.293-.82.207-.62-.247-1.089-.768-1.27-1.41-.447-1.184-.673-2.677-.21-3.892l.057-.139c.195-.55.704-.93 1.288-.96.108.008.214.03.314.065l-.07-.33-.1-.494-.093-.488-.058-.317-.08-.46-.048-.292-.082-.538-.048-.355-.034-.305-.016-.171-.005-.075c-.025-.541.07-1.08.18-1.616l.095-.46c.079-.384.15-.767.175-1.15.013-.149.022-.3.03-.453l.022-.465.02-.47c.038-.868.102-1.75.379-2.53.137-.38.374-.713.624-1.043l.252-.33c.208-.276.406-.56.543-.88.298-.685.565-.991.903-1.275l.14-.114.391-.306c.029-.022.058-.046.087-.07l.185-.154c.128-.11.266-.235.415-.382.14-.14.279-.279.416-.419l.806-.831c.665-.683 1.322-1.327 2.049-1.833l.22-.147c.3-.193.577-.414.848-.642l.538-.458c.54-.453 1.098-.873 1.808-1.085.425-.128.861-.089 1.298-.032l.328.043c.328.041.655.07.977.025.505-.073.98-.25 1.451-.439zm3.695 37.252l-.07.056c-3.228 2.602-8.138 4.106-11.93 2.268.313.772.546 1.574.697 2.394.007.055-.001.11-.025.159 2.55.886 5.948.187 8.358-.632.576-.166 1.141-.366 1.694-.6.322-.137.606-.35.828-.62.191-.335.3-.71.316-1.095.025-.22.041-.447.054-.673l.031-.663c.012-.213.025-.414.047-.594zm-8.223-28.11l-.139.004c-.529.042-.848.298-1.133.603l-.13.143-.194.22c-.196.221-.41.434-.696.584-.195.102-.376.161-.548.204l-.168.038-.243.051c-.343.077-.656.186-.978.608-.993 1.328-1.802 2.776-2.412 4.305-.315.878-.595 1.769-.84 2.669-.096.41-.179.824-.248 1.242-.085.435-.203.861-.335 1.283l-.043.221-.076.485-.075.49-.073.494-.104.748-.065.504c-.436 3.535-.53 7.283.897 10.495.466 1.038 1.087 1.998 1.843 2.847 2.67 2.97 6.683 2.939 10.115 1.529l.289-.123c.383-.167.757-.352 1.121-.55l.271-.153c.27-.154.532-.317.786-.486l.253-.172c.124-.087.247-.176.368-.266l.238-.182.117-.093c1.867-1.463 3.494-3.207 4.825-5.168l.155-.23c.48-.907.904-1.842 1.272-2.8.026-.068.076-.12.136-.151 0-.018 0-.037.004-.056.174-.84.44-1.657.79-2.44-.033-.018-.05-.139-.06-.28l-.006-.124-.003-.18v-.124c0-.11.011-.216.025-.321l.046-.312c.033-.24.047-.476-.04-.719-.1-.272-.272-.52-.454-.765l-.182-.245c-.21-.287-.4-.579-.468-.909-.063-.334-.013-.639.053-.937l.045-.198c.105-.46.195-.912-.098-1.437-.353-.512-.625-1.075-.806-1.67-.04-.178-.064-.355-.084-.53l-.04-.394c-.048-.478-.119-.944-.43-1.378-.285-.402-.68-.596-1.1-.75l-.195-.068-.246-.083c-.37-.125-.736-.264-1.044-.523-.253-.222-.424-.498-.579-.784l-.152-.287c-.153-.287-.313-.568-.549-.798-.274-.268-.62-.346-.979-.399l-.36-.05c-.241-.037-.479-.087-.697-.2-.352-.175-.64-.433-.921-.703l-.36-.35c-.325-.306-.669-.59-1.115-.749-.293-.112-.59-.046-.89.044l-.226.069c-.263.08-.529.147-.794.1-.26-.047-.495-.147-.724-.263l-.227-.12-.225-.121c-.34-.18-.686-.336-1.095-.34zM20.895 36.45c1.315-.364 2.72-.153 3.87.575l.126.083.141-.017c1.608-.176 3.412.278 4.024.907l.05.056h-.004c-1.484.574-3.081.796-4.666.648-1.12-.19-2.162-.688-3.013-1.436l-.14-.127-.388-.689zm21.644-6.482c-.352.215-.667.486-.932.802-.262.295-.48.626-.649.982-.156.364-.295.735-.414 1.113.087-.175.181-.35.283-.527.132-.23.292-.442.478-.631.518-.523.955-.586 1.252-.45.322.174.535.497.572.858l.005.078c.055.508-.064 1.02-.338 1.45-.204.317-.53.534-.901.6-.074.014-.15-.001-.212-.044-.062-.042-.104-.108-.117-.181-.022-.137.056-.268.182-.316l.043-.013c.275-.064.502-.257.608-.518.134-.28.188-.592.158-.901-.013-.121-.048-.239-.104-.347-.024-.061-.07-.11-.13-.14-.064-.026-.135-.026-.198 0-.172.073-.326.182-.45.32-.153.157-.285.333-.393.523-.224.365-.402.757-.531 1.166-.106.326-.156.667-.149 1.01 0 .14.027.274.149.315.716.234 1.351-.117 1.86-.68.793-.896 1.224-2.056 1.207-3.253-.02-.269-.075-.534-.166-.788-.135-.329-.298-.509-.496-.563-.215-.035-.436.013-.617.135zm-17.387-.432c.097-.125.277-.147.401-.05.124.097.147.277.05.401-.1.132-.2.268-.301.406l-.15.207c-.382.505-.686 1.066-.9 1.662-.154.518-.14 1.04.382 1.351.369.21.788.315 1.212.306.1-.01.197.034.256.115.06.08.07.187.03.279-.041.092-.128.155-.228.165-.26.016-.523-.01-.775-.076l-.126-.037c-.222-.06-.436-.15-.635-.265-.556-.312-.85-.947-.725-1.572.182-.821.545-1.59 1.063-2.253.102-.144.204-.286.31-.427l.163-.212h-.027zm-10.058-2.063c-.35.04-.644.282-.752.617-.482 1.103-.253 2.504.162 3.603.17.424.45.937.9 1.068.128.025.258-.023.338-.123l.027-.04c.126-.171.217-.365.27-.571.15-.566.18-1.156.093-1.733l-.03-.173c-.049-.357-.237-.68-.522-.9-.297-.19-.49.094-.599.378-.132.386-.15.802-.054 1.198.048.223.182.417.374.54.088.05.143.142.144.242.001.1-.051.194-.138.246-.086.051-.193.053-.28.004-.33-.2-.563-.525-.645-.901-.116-.468-.104-.956.032-1.416l.04-.125c.114-.406.44-.717.851-.81.18-.019.361.02.516.11l.043.028c-.073-.26-.146-.542-.217-.837-.014-.014-.025-.029-.035-.045-.102-.199-.296-.334-.518-.36zm17.193.46c.14.04.26.136.329.265.075.14.121.293.135.45-.01.331-.101.653-.264.94l-.065.105c-.148.272-.45.422-.757.374h-.054c-.124.005-.245-.047-.328-.14-.172-.206-.234-.482-.167-.743.014-.07.032-.139.054-.207.047-.22.142-.428.28-.608l.049-.063c.092-.123.207-.229.338-.31.134-.084.298-.107.45-.064zM22.22 26.495c.105.05.184.141.216.253.025.109.03.221.015.332l-.015.082c-.051.35-.208.675-.45.932-.071.078-.157.141-.253.185-.114.054-.246.054-.36 0-.074-.037-.136-.093-.18-.162-.093-.13-.137-.29-.122-.45.021-.319.137-.623.333-.874.041-.063.09-.12.145-.172.091-.07.2-.113.315-.126.114-.045.241-.045.356 0zm17.594-7.711l-.013-.003-.012-.009-.002.001v.01c0 .007-.001.009-.002.01l-.006-.005.008.023c.018.05.009.072.04.112.084.11.197.188.316.262l.177.111c.058.039.114.08.165.127.366.272.584.698.59 1.154-.03.352-.101.7-.212 1.036-.108.366-.142.75-.099 1.13.017.125.06.244.126.351.058.099.132.19.212.277l.247.262c.135.147.257.302.316.488.05.218.067.44.054.663-.004.12-.012.247-.022.374l-.07.746-.011.168v.329c0 .022.018.04.04.04.023 0 .04-.018.04-.04l-.001-.012-.008-.02c-.004-.012-.004-.03.01-.063.027-.067.027-.14.027-.22l.057-.416c.03-.217.059-.443.079-.662l.017-.215h.018c.022-.235.01-.472-.036-.703-.06-.214-.198-.392-.346-.563l-.15-.17c-.098-.113-.192-.228-.26-.353-.047-.084-.077-.175-.09-.27-.03-.347.01-.696.116-1.027.124-.356.201-.727.23-1.103-.006-.54-.271-1.042-.712-1.352-.199-.16-.411-.304-.635-.428-.025-.018-.052-.031-.081-.04-.039-.007-.078-.007-.117 0zM17.78 20.848h-.038c-.085.064-.163.136-.234.216-.155.203-.261.439-.31.69-.037.157-.054.315-.066.478l-.027.51c-.012.177-.03.364-.065.565-.146.397-.341.774-.581 1.122-.05.107-.085.22-.104.338-.032.17-.032.343 0 .513.057.216.126.428.208.636l.101.247.04.078c.012.026.02.053.02.08.005.021.018.04.036.052.02.012.042.016.063.01.022-.004.041-.017.053-.035.008-.013.012-.027.013-.042l-.003-.021c-.006-.077-.02-.152-.04-.226-.072-.279-.212-.55-.27-.828-.025-.142-.025-.287 0-.428.14-.397.33-.774.567-1.122.052-.105.088-.218.108-.333.1-.604.04-1.077.135-1.55.043-.18.105-.357.185-.524l.063-.124h.014l.042-.089.08-.186.002-.013.009-.012-.001-.002zm13.782 4.099c1.107-.02 2.2.24 3.18.757.23.112.37.324.329.477-.04.153-.266.185-.491.077-.797-.428-1.69-.645-2.595-.631-.23.002-.446-.113-.572-.306-.117-.185-.054-.374.149-.374zm9.608-10.072c-.022-.002-.035.003-.044.01l-.024.018c-.004.002-.008.003-.013.003l-.014-.002-.012-.01-.001.002v.038l-.003.024-.007.021c-.001.007 0 .017.01.04.022.059.094.081.144.122.564.378 1.089.81 1.567 1.292.312.369.501.826.54 1.307-.001.453-.045.906-.13 1.351-.023.217-.009.436.04.649.059.23.163.44.276.644l.17.306c.084.152.161.306.217.469.07.188.093.39.067.59-.033.234-.147.439-.276.638l-.197.298c-.064.1-.123.201-.17.307-.056.118-.094.244-.113.374-.048.362.026.693.11 1.018l.074.278c.06.23.108.462.108.704.017.28-.038.559-.162.81-.01.012-.01.03 0 .041.013.008.029.008.04 0 .156-.254.241-.545.249-.842.006-.235-.036-.463-.087-.69l-.063-.274c-.072-.32-.132-.647-.071-1 .038-.234.158-.436.293-.632l.208-.293c.068-.099.132-.2.184-.305.044-.089.08-.182.107-.277l.023-.097h.014c.038-.242.016-.489-.063-.72-.059-.169-.135-.326-.215-.479l-.16-.303c-.105-.201-.2-.404-.251-.624-.041-.179-.05-.363-.027-.545.087-.47.132-.946.135-1.423-.053-.547-.28-1.062-.649-1.469-.498-.495-1.06-.923-1.671-1.27-.05-.036-.1-.095-.153-.1zm-19.025 8.503l.097.006c.59.027 1.166.18 1.692.447l.142.075c.172.077.258.272.198.45-.108.141-.309.17-.45.064-.431-.237-.91-.373-1.402-.397-.247-.025-.495.041-.698.185-.16.103-.37.077-.5-.063-.157-.144-.189-.347-.072-.45.287-.216.637-.327.993-.317zm14.827-5.008v.023l.085.043.077.043.105.055.03.012c.402.154.74.44.96.81.269.604.474 1.233.612 1.88.015.048.033.096.054.143.031.074.066.147.105.217l.062.103c.005.013.015.023.028.028.008.004.017.005.026.003l.013-.004h.014c.019-.018.02-.047.004-.067-.02-.079-.034-.155-.048-.23l-.024-.113-.04-.144c-.127-.667-.342-1.313-.64-1.923-.222-.378-.566-.667-.973-.82l-.104-.036h-.067c-.092-.015-.186-.022-.28-.023zm-17.05-4.207c-.105.02-.208.052-.306.095-.228.117-.425.285-.576.49-.302.397-.455.857-.811 1.352-.124.171-.296.296-.477.412l-.218.136c-.11.068-.215.138-.31.218-.09.076-.17.164-.238.261-.094.137-.163.29-.203.45-.04.224-.07.449-.086.675l-.013.226v.217c-.007.029.003.059.025.079.022.02.053.027.08.018.022-.007.04-.022.05-.04l.007-.021c.028-.073.049-.149.063-.226.05-.279.045-.58.113-.86.029-.14.084-.275.162-.396.128-.187.317-.317.515-.441l.198-.124c.099-.062.195-.127.282-.201.091-.075.173-.162.243-.257.112-.17.204-.335.288-.492l.16-.305c.079-.148.156-.289.244-.423l.092-.131h.014c.13-.19.285-.363.46-.514l.154-.13c.028-.023.057-.045.088-.068zm3.19-1.95h-.027c-.106.02-.208.052-.307.094-.228.117-.425.285-.576.491-.1.133-.184.272-.265.417l-.16.298c-.108.203-.226.417-.386.637-.122.17-.293.296-.474.411l-.219.137c-.109.068-.216.138-.312.217-.09.076-.17.164-.238.262-.094.136-.162.289-.199.45-.042.223-.07.448-.087.675l-.012.226v.212c-.006.046.023.09.068.103.022.006.046.001.064-.012.013-.008.023-.02.029-.034l.006-.021c.024-.072.044-.146.059-.22.054-.28.045-.586.112-.861.029-.142.086-.277.167-.397.117-.17.285-.296.464-.412l.218-.137c.109-.069.216-.14.313-.22.092-.074.173-.16.24-.258.112-.17.205-.335.29-.492l.161-.305c.105-.197.208-.382.336-.554.145-.181.313-.342.5-.477.054-.042.102-.087.156-.131l.088-.068-.01-.031zm11.549-1.775c-.36-.397-.887-.598-1.419-.54-.256.009-.51.04-.761.094-.032 0-.062.008-.09.023-.034.02-.043.038-.06.06l-.021.025.023.017.035.029c.012.008.025.013.045.013.276.006.552-.012.824-.054.455-.04.902.137 1.208.477.204.282.379.584.522.901.14.3.333.572.568.804l.103.097h.014c.086.112.195.204.32.27.132.044.275.062.42.076l.22.02c.219.02.434.053.616.166.18.126.342.277.478.45.116.139.231.294.344.449l.222.305.106.144.103.133c.036.05.073.095.109.137l.102.116c.017.014.042.014.059 0 .008-.008.012-.018.012-.03 0-.01-.004-.021-.012-.029l-.024-.041-.026-.04-.126-.19-.294-.447c-.106-.159-.217-.322-.33-.475l-.115-.15c-.14-.196-.31-.37-.504-.517-.176-.11-.375-.156-.577-.187l-.364-.05c-.12-.018-.237-.042-.347-.083-.088-.031-.169-.079-.239-.14-.252-.244-.454-.534-.595-.855-.14-.348-.325-.677-.55-.978zM27.99 11.47c-.465-.154-.977-.055-1.351.26-.153.101-.299.211-.437.33l-.148.132-.021.017c-.008.007-.017.017-.03.035-.025.036-.03.072-.03.1l-.001.045h.103c.12-.039.223-.119.325-.205l.154-.131c.052-.043.105-.082.161-.115.323-.26.756-.338 1.149-.207.281.136.543.308.779.513.26.22.57.373.9.45.11.026.221.026.33 0 .1-.024.2-.065.3-.113l.301-.15c.168-.08.337-.146.511-.146.155.013.307.048.452.103l.107.046c.114.046.232.1.349.158l.347.172c.113.055.221.108.322.152.05.022.098.041.143.058l.127.045.014-.031c.02.008.045-.002.054-.023.006-.016.002-.033-.01-.045l-.085-.054-.659-.366c-.173-.095-.352-.188-.521-.265-.19-.094-.397-.153-.608-.175-.196-.012-.39.063-.582.15l-.191.089c-.128.058-.254.112-.38.14-.082.02-.167.02-.248 0-.297-.078-.573-.221-.806-.42-.245-.222-.522-.407-.82-.55z" mask="url(#l5vhskxppb)"/>
        </g>
    </g>
</svg>
