<svg xmlns="http://www.w3.org/2000/svg" width="138" height="69" viewBox="0 0 138 69">
    <g fill="none" fill-rule="evenodd">
        <g fill="#151A3B">
            <g>
                <path d="M42 11.829v28.585h14v16.757H39v-13.8l-29 .056V11.829h32zM53 43.37H42v10.843h11V43.371zM39 14.786H13v25.628h26V14.786zm33.263 3.392c3.774 0 6.14 2.597 6.187 6.632v1.075h-9.698v.167c0 2.355 1.436 3.911 3.694 3.911 1.573 0 2.745-.765 3.148-1.91l.024-.071h2.676c-.392 2.47-2.767 4.233-5.913 4.233-4.034 0-6.474-2.69-6.474-6.96 0-4.247 2.48-7.077 6.356-7.077zm13.8 0c3.161 0 5.225 1.709 5.361 4.158l.005.088h-2.65c-.157-1.313-1.136-2.136-2.715-2.136-1.527 0-2.546.733-2.546 1.814 0 .83.6 1.402 2.017 1.74l.098.023 2.232.501c2.806.644 3.877 1.725 3.877 3.68 0 2.47-2.337 4.169-5.574 4.169-3.392 0-5.446-1.621-5.746-4.143l-.01-.09h2.793c.261 1.415 1.24 2.11 2.963 2.11 1.697 0 2.741-.695 2.741-1.801 0-.856-.487-1.367-1.913-1.702l-2.329-.537c-2.61-.592-3.903-1.827-3.903-3.796 0-2.419 2.14-4.078 5.3-4.078zm35.75 0c3.773 0 6.14 2.597 6.186 6.632l.001.123v.952h-9.698v.167c0 2.355 1.435 3.911 3.694 3.911 1.572 0 2.744-.765 3.147-1.91l.025-.071h2.675c-.391 2.47-2.767 4.233-5.913 4.233-4.033 0-6.474-2.69-6.474-6.96 0-4.247 2.48-7.077 6.357-7.077zm-9.01-4.787v18.567h-2.741v-2.303h-.052c-.81 1.544-2.376 2.534-4.373 2.534-3.472 0-5.77-2.727-5.77-7 0-4.27 2.298-6.986 5.744-6.986 1.934 0 3.478.942 4.263 2.387l.044.084h.052V13.39h2.833zm-55.306 0c3.342 0 5.535 1.827 5.535 4.632 0 1.938-1.43 3.676-3.267 4.025l-.088.015v.103c2.558.283 4.281 2.072 4.281 4.542 0 3.235-2.365 5.21-6.3 5.25H49.98V13.39h7.518zm39.717 5.031v13.536h-2.82V18.422h2.82zm9.167 2.123c-2.232 0-3.629 1.801-3.629 4.645 0 2.856 1.397 4.645 3.629 4.645 2.167 0 3.616-1.814 3.616-4.645 0-2.805-1.45-4.645-3.616-4.645zm-49.615 2.947h-3.864v6.111h4.034c2.637 0 4.033-1.068 4.033-3.075 0-1.978-1.394-3.006-4.083-3.036h-.12zm15.497-3.076c-1.94 0-3.312 1.435-3.49 3.432l-.008.094h6.866c-.065-2.072-1.397-3.526-3.368-3.526zm49.55 0c-1.94 0-3.312 1.435-3.49 3.432l-.008.094h6.866c-.066-2.072-1.397-3.526-3.368-3.526zm-65.02-4.67h-3.89v5.545h3.276c2.532 0 3.929-1.029 3.929-2.869 0-1.696-1.162-2.645-3.213-2.675l-.103-.001zm39.012-2.702c.9 0 1.618.708 1.618 1.595 0 .875-.718 1.596-1.618 1.596-.901 0-1.632-.72-1.632-1.596 0-.887.731-1.595 1.632-1.595z" transform="translate(-90 -100) translate(90 100)"/>
            </g>
        </g>
    </g>
</svg>
