<?xml version="1.0" encoding="UTF-8"?>
<svg width="32px" height="32px" viewBox="0 0 32 32" version="1.1" xmlns="http://www.w3.org/2000/svg" xmlns:xlink="http://www.w3.org/1999/xlink">
    <title>Group 7</title>
    <g id="Page-1" stroke="none" stroke-width="1" fill="none" fill-rule="evenodd">
        <g id="Group-9-Copy-2" transform="translate(-16.000000, -19.000000)">
            <g id="Group-23" transform="translate(16.000000, 19.000000)">
                <rect id="Rectangle" fill="#FFFFFF" x="0" y="0" width="32" height="32"></rect>
                <g id="Icons/Image" transform="translate(5.000000, 5.000000)" fill="#151A3B" opacity="0.202613467">
                    <path d="M19.1869291,0.333333333 C20.5562633,0.333333333 21.6666667,1.44251241 21.6666667,2.81368301 L21.6666667,2.81368301 L21.6666667,19.177135 C21.6666667,20.5489178 20.5562633,21.6666667 19.1869291,21.6666667 L19.1869291,21.6666667 L2.82225283,21.6666667 C1.45291862,21.6666667 0.333333333,20.5489178 0.333333333,19.177135 L0.333333333,19.177135 L0.333333333,2.81307088 C0.333333333,1.44312454 1.45230649,0.333333333 2.82225283,0.333333333 L2.82225283,0.333333333 Z M7.45865858,8.33485413 L7.32361787,8.35050999 C6.87309038,8.43204742 6.50458828,8.78717325 6.37236826,9.2676376 L6.37236826,9.2676376 L3.03308579,16.5716392 C2.96207874,16.8324242 3.00676421,17.1100558 3.15367535,17.3283874 C3.30058649,17.5453713 3.53258366,17.6666667 3.77927194,17.6666667 L3.77927194,17.6666667 L17.8013277,17.6666667 C18.0878045,17.6666667 18.3504081,17.5022441 18.486913,17.2246125 C18.6228058,16.9483287 18.6099511,16.616788 18.4532459,16.3519599 L18.4532459,16.3519599 L15.8645493,11.9907182 C15.688868,11.6942184 15.4127975,11.4880164 15.0975507,11.4192823 C14.7835282,11.3498744 14.457263,11.4219778 14.1915987,11.6207674 L14.1915987,11.6207674 L12.9423567,13.551385 C12.4055189,13.9543551 11.6740239,13.8094746 11.2963398,13.2252353 L11.2963398,13.2252353 L8.4915614,8.88757884 C8.22712135,8.47854397 7.77414535,8.26964642 7.32361787,8.35050999 Z M14.3333333,4.33333333 C13.2287638,4.33333333 12.3333333,5.22876383 12.3333333,6.33333333 C12.3333333,7.43790283 13.2287638,8.33333333 14.3333333,8.33333333 C15.4379028,8.33333333 16.3333333,7.43790283 16.3333333,6.33333333 C16.3333333,5.22876383 15.4379028,4.33333333 14.3333333,4.33333333 Z" id="Combined-Shape"></path>
                </g>
            </g>
        </g>
    </g>
</svg>