<svg xmlns="http://www.w3.org/2000/svg" width="24" height="24" viewBox="0 0 24 24">
    <defs>
        <linearGradient id="opsiwzo11a" x1="50%" x2="50%" y1="0%" y2="100%">
            <stop offset="0%" stop-color="#89CAF0"/>
            <stop offset="100%" stop-color="#5D9FE8"/>
        </linearGradient>
    </defs>
    <g fill="none" fill-rule="evenodd">
        <g fill="url(#opsiwzo11a)" fill-rule="nonzero" transform="translate(-728 -321)">
            <g>
                <g>
                    <g>
                        <g>
                            <g>
                                <path d="M12 4c4.418 0 8 3.582 8 8s-3.582 8-8 8-8-3.582-8-8 3.582-8 8-8zm3.638 4.697c-.408-.318-1.002-.24-1.314.158l-3.262 4.419-1.554-1.061c-.405-.316-.988-.244-1.31.167-.318.408-.243.998.155 1.31l2.17 1.54c.07.055.145.098.224.13.403.25.94.157 1.232-.215l3.823-5.136c.317-.406.247-.991-.164-1.312z" transform="translate(460 70) translate(60 215) translate(16 28) translate(184) translate(8 8)"/>
                            </g>
                        </g>
                    </g>
                </g>
            </g>
        </g>
    </g>
</svg>
