<svg xmlns="http://www.w3.org/2000/svg" width="25" height="24" viewBox="0 0 25 24">
    <g fill="none" fill-rule="evenodd">
        <g fill="#434866">
            <g>
                <g>
                    <path d="M12 7.414c.414 0 .75.336.75.75v3.085l3.086.001c.414 0 .75.336.75.75s-.336.75-.75.75h-3.087l.001 3.086c0 .414-.336.75-.75.75s-.75-.336-.75-.75v-3.087l-3.086.001c-.414 0-.75-.336-.75-.75s.336-.75.75-.75h3.085l.001-3.086c0-.414.336-.75.75-.75z" transform="translate(-1348 -646) translate(736 638) translate(612 8) rotate(135 12 12)"/>
                </g>
            </g>
        </g>
    </g>
</svg>
