<svg xmlns="http://www.w3.org/2000/svg" width="25" height="24" viewBox="0 0 25 24">
    <g fill="none" fill-rule="evenodd">
        <g fill="#434866">
            <g>
                <g>
                    <path d="M16.223 5.219H11.8C11.547 4.508 10.898 4 10.138 4s-1.409.508-1.661 1.219h-.704C6.795 5.219 6 6.059 6 7.094v11.031C6 19.159 6.795 20 7.773 20h8.45c.978 0 1.774-.841 1.774-1.875V7.094c0-1.034-.796-1.875-1.774-1.875zm.592 12.906c0 .345-.266.625-.592.625h-8.45c-.326 0-.59-.28-.59-.625V7.094c0-.345.264-.625.59-.625h1.774v-.594c0-.345.265-.625.59-.625.327 0 .592.28.592.625v4.406c0 .345-.265.625-.591.625-.326 0-.591-.28-.591-.625V7.72H8.365v2.562c0 1.034.795 1.875 1.773 1.875.978 0 1.773-.84 1.773-1.875V6.47h4.312c.326 0 .592.28.592.625v11.031z" transform="translate(-744 -646) translate(736 638) translate(8 8)"/>
                </g>
            </g>
        </g>
    </g>
</svg>
