<svg width="32" height="32" viewBox="0 0 32 32" fill="none" xmlns="http://www.w3.org/2000/svg">
<path fill-rule="evenodd" clip-rule="evenodd" d="M13 18C14.397 18 15.572 18.955 15.905 20.249L23.25 20.25C23.664 20.25 24 20.586 24 21C24 21.414 23.664 21.75 23.25 21.75L15.905 21.751C15.572 23.045 14.397 24 13 24C11.603 24 10.428 23.045 10.095 21.751L8.75 21.75C8.336 21.75 8 21.414 8 21C8 20.586 8.336 20.25 8.75 20.25L10.095 20.249C10.428 18.955 11.603 18 13 18ZM13 19.5C12.172 19.5 11.5 20.172 11.5 21C11.5 21.828 12.172 22.5 13 22.5C13.828 22.5 14.5 21.828 14.5 21C14.5 20.172 13.828 19.5 13 19.5ZM19 13C20.397 13 21.572 13.955 21.905 15.249L23.25 15.25C23.664 15.25 24 15.586 24 16C24 16.414 23.664 16.75 23.25 16.75L21.905 16.751C21.572 18.045 20.397 19 19 19C17.603 19 16.428 18.045 16.095 16.751L8.75 16.75C8.336 16.75 8 16.414 8 16C8 15.586 8.336 15.25 8.75 15.25L16.095 15.249C16.428 13.955 17.603 13 19 13ZM19 14.5C18.172 14.5 17.5 15.172 17.5 16C17.5 16.828 18.172 17.5 19 17.5C19.828 17.5 20.5 16.828 20.5 16C20.5 15.172 19.828 14.5 19 14.5ZM13 8C14.397 8 15.572 8.955 15.905 10.249L23.25 10.25C23.664 10.25 24 10.586 24 11C24 11.414 23.664 11.75 23.25 11.75L15.905 11.751C15.572 13.045 14.397 14 13 14C11.603 14 10.428 13.045 10.095 11.751L8.75 11.75C8.336 11.75 8 11.414 8 11C8 10.586 8.336 10.25 8.75 10.25L10.095 10.249C10.428 8.955 11.603 8 13 8ZM13 9.5C12.172 9.5 11.5 10.172 11.5 11C11.5 11.828 12.172 12.5 13 12.5C13.828 12.5 14.5 11.828 14.5 11C14.5 10.172 13.828 9.5 13 9.5Z" fill="#151A3B"/>
</svg>
