<svg xmlns="http://www.w3.org/2000/svg" width="24" height="24" viewBox="0 0 24 24">
    <path fill="#434866" fill-rule="evenodd" d="M14.221 5.724c.921-.923 2.39-.964 3.358-.12l.13.12.642.645c.92.924.96 2.394.12 3.366l-.12.13-7.775 7.799c-.044.045-.096.081-.153.108l-.088.033-4.64 1.289c-.191.053-.395-.001-.535-.141-.116-.117-.173-.278-.158-.44l.018-.095 1.285-4.653c.017-.06.044-.118.08-.17l.061-.071 7.775-7.8zm-7.096 9.193l-.79 2.859 2.85-.792-2.06-2.067zM13.64 7.86l-6 6.02 2.58 2.587 6-6.02-2.58-2.587zm3.293-1.36c-.499-.5-1.288-.533-1.826-.1l-.11.1-.582.583 2.58 2.587.581-.583c.499-.5.532-1.29.1-1.83l-.1-.112-.643-.644z"/>
</svg>
