<?xml version="1.0" encoding="UTF-8"?>
<svg width="120px" height="120px" viewBox="0 0 120 120" version="1.1" xmlns="http://www.w3.org/2000/svg" xmlns:xlink="http://www.w3.org/1999/xlink">
    <title>Logo-placeholder</title>
    <g id="Logo-placeholder" stroke="none" stroke-width="1" fill="none" fill-rule="evenodd">
        <rect id="Rectangle-Copy-17" fill-rule="nonzero" x="0" y="0" width="120" height="120" rx="1"></rect>
        <g id="Group" transform="translate(40.000000, 40.000000)" fill="#151A3B" opacity="0.202613467">
            <g id="Icons/Image">
                <path d="M30.2336614,6.66666667 C31.9453292,6.66666667 33.3333333,8.05314051 33.3333333,9.76710377 L33.3333333,9.76710377 L33.3333333,30.2214188 C33.3333333,31.9361472 31.9453292,33.3333333 30.2336614,33.3333333 L30.2336614,33.3333333 L9.77781604,33.3333333 C8.06614827,33.3333333 6.66666667,31.9361472 6.66666667,30.2214188 L6.66666667,30.2214188 L6.66666667,9.7663386 C6.66666667,8.05390567 8.06538311,6.66666667 9.77781604,6.66666667 L9.77781604,6.66666667 Z M16.8644517,17.3594736 C16.5339017,16.84818 15.9676817,16.587058 15.4045223,16.6881375 C14.841363,16.7900593 14.3807354,17.2339666 14.2154603,17.834547 L14.2154603,17.834547 L10.0413572,26.964549 C9.95259843,27.2905303 10.0084553,27.6375697 10.1920942,27.9104843 C10.3757331,28.1817141 10.6657296,28.3333333 10.9740899,28.3333333 L10.9740899,28.3333333 L28.5016597,28.3333333 C28.8597556,28.3333333 29.1880101,28.1278051 29.3586413,27.7807656 C29.5285073,27.4354108 29.5124389,27.020985 29.3165574,26.6899498 L29.3165574,26.6899498 L26.0806866,21.2383977 C25.861085,20.8677731 25.5159969,20.6100204 25.1219384,20.5241029 C24.7294102,20.437343 24.3215788,20.5274722 23.9894984,20.7759592 L23.9894984,20.7759592 L22.4279459,23.1892313 C21.7568986,23.6929439 20.8425299,23.5118432 20.3704248,22.7815441 L20.3704248,22.7815441 Z M24.1666667,11.6666667 C22.7859548,11.6666667 21.6666667,12.7859548 21.6666667,14.1666667 C21.6666667,15.5473785 22.7859548,16.6666667 24.1666667,16.6666667 C25.5473785,16.6666667 26.6666667,15.5473785 26.6666667,14.1666667 C26.6666667,12.7859548 25.5473785,11.6666667 24.1666667,11.6666667 Z" id="Combined-Shape"></path>
            </g>
        </g>
    </g>
</svg>