<svg xmlns="http://www.w3.org/2000/svg" width="32" height="32" viewBox="0 0 32 32">
    <g fill="none" fill-rule="evenodd">
        <g>
            <g>
                <g transform="translate(-1392 -64) translate(1156 59) translate(236 5)">
                    <rect width="31" height="31" x=".5" y=".5" fill="#FFF" stroke="#F0F0F6" rx="3"/>
                    <g fill="#151A3B">
                        <path d="M9 14c1.397 0 2.572.955 2.905 2.249l7.345.001c.414 0 .75.336.75.75s-.336.75-.75.75l-7.345.001C11.572 19.045 10.397 20 9 20c-1.397 0-2.572-.955-2.905-2.249L4.75 17.75c-.414 0-.75-.336-.75-.75s.336-.75.75-.75l1.345-.001C6.428 14.955 7.603 14 9 14zm0 1.5c-.828 0-1.5.672-1.5 1.5s.672 1.5 1.5 1.5 1.5-.672 1.5-1.5-.672-1.5-1.5-1.5zM15 9c1.397 0 2.572.955 2.905 2.249l1.345.001c.414 0 .75.336.75.75s-.336.75-.75.75l-1.345.001C17.572 14.045 16.397 15 15 15c-1.397 0-2.572-.955-2.905-2.249L4.75 12.75c-.414 0-.75-.336-.75-.75s.336-.75.75-.75l7.345-.001C12.428 9.955 13.603 9 15 9zm0 1.5c-.828 0-1.5.672-1.5 1.5s.672 1.5 1.5 1.5 1.5-.672 1.5-1.5-.672-1.5-1.5-1.5zM9 4c1.397 0 2.572.955 2.905 2.249l7.345.001c.414 0 .75.336.75.75s-.336.75-.75.75l-7.345.001C11.572 9.045 10.397 10 9 10c-1.397 0-2.572-.955-2.905-2.249L4.75 7.75C4.336 7.75 4 7.414 4 7s.336-.75.75-.75l1.345-.001C6.428 4.955 7.603 4 9 4zm0 1.5c-.828 0-1.5.672-1.5 1.5S8.172 8.5 9 8.5s1.5-.672 1.5-1.5S9.828 5.5 9 5.5z" transform="translate(4 4)"/>
                    </g>
                </g>
            </g>
        </g>
    </g>
</svg>
