<svg xmlns="http://www.w3.org/2000/svg" width="24" height="24" viewBox="0 0 24 24">
    <g fill="none" fill-rule="evenodd">
        <g fill="#151A3B">
            <g>
                <g>
                    <g>
                        <g>
                            <path d="M16.419 11.634c.158 0 .313.062.428.173.092.086.151.2.172.322l.007.093v6.633c0 .298-.118.576-.334.785-.185.182-.422.293-.68.32l-.13.007-7.764.004c-.592 0-1.079-.434-1.14-.989l-.008-.12-.003-6.636c0-.292.222-.536.51-.581l.098-.008 8.844-.003zm-.608 1.177l-7.625.004.003 5.98 7.625-.002-.003-5.982zM15.878 4c.593 0 1.08.433 1.141.988l.007.121-.006 2.694 1.333-.001c.38 0 .739.125 1.028.356l.12.105c.268.26.431.597.468.957l.007.156.004 5.687c0 .418-.169.814-.476 1.112-.307.298-.716.461-1.148.461-.334 0-.607-.265-.607-.589 0-.291.221-.535.509-.58l.098-.009c.108 0 .21-.039.287-.114.056-.054.094-.125.11-.2l.008-.078-.003-5.687c0-.105-.04-.203-.118-.278-.059-.054-.13-.091-.208-.107l-.08-.007-12.705.006c-.198 0-.362.135-.4.316l-.008.08.003 5.687c0 .104.04.203.118.278.059.054.13.091.208.107l.08.007c.333 0 .607.265.607.59 0 .323-.274.588-.608.588-.435 0-.84-.163-1.147-.461-.27-.26-.432-.596-.466-.957l-.007-.156-.003-5.686c0-.42.168-.815.476-1.113.268-.26.615-.418.986-.454l.161-.007H6.97V5.116c0-.298.119-.573.335-.786.185-.182.422-.292.68-.32l.13-.007L15.878 4zm-.067 1.175l-7.625.003v2.63l7.619-.004.006-2.63z" transform="translate(-496 -947) translate(460 70) translate(0 853) translate(24 16) translate(12 8)"/>
                        </g>
                    </g>
                </g>
            </g>
        </g>
    </g>
</svg>
