<svg xmlns="http://www.w3.org/2000/svg" width="24" height="24" viewBox="0 0 24 24">
    <defs>
        <linearGradient id="0ut3lq3yna" x1="50%" x2="50%" y1="100%" y2=".158%">
            <stop offset="0%" stop-color="#D96278"/>
            <stop offset="100%" stop-color="#F38D9D"/>
        </linearGradient>
    </defs>
    <path fill="url(#0ut3lq3yna)" d="M12 4c4.418 0 8 3.582 8 8s-3.582 8-8 8-8-3.582-8-8 3.582-8 8-8zm-1.768 5.172c-.293-.293-.768-.293-1.06 0-.293.292-.293.767 0 1.06L10.94 12l-1.768 1.769c-.293.293-.293.768 0 1.06.292.293.767.293 1.06 0l1.769-1.768 1.767 1.768c.293.293.768.293 1.06 0 .293-.292.293-.767 0-1.06l-1.767-1.769 1.767-1.767c.293-.293.293-.768 0-1.06-.292-.293-.767-.293-1.06 0L12 10.939z"/>
</svg>
