<svg xmlns="http://www.w3.org/2000/svg" width="25" height="25" viewBox="0 0 25 25">
    <path fill="#151A3B" fill-rule="evenodd" d="M12.235 16.78c-.313-.294-.313-.77 0-1.063l3.112-2.967H8.972C8.435 12.75 8 12.414 8 12s.435-.75.972-.75h6.373l-3.11-2.967c-.313-.293-.313-.77 0-1.063.313-.293.82-.293 1.133 0l4.403 4.254c.125.12.199.269.221.423 0 .006 0 .011.002.017.004.023.005.048.006.072v.028c0 .024-.002.049-.005.073L18 12c0 .035-.003.069-.009.102-.021.155-.095.305-.22.424l-4.403 4.254c-.313.293-.82.293-1.133 0z"/>
</svg>
