<svg xmlns="http://www.w3.org/2000/svg" width="24" height="24" viewBox="0 0 24 24">
    <g fill="none" fill-rule="evenodd">
        <g fill="#434866">
            <g>
                <g>
                    <g>
                        <path d="M12 5c3.86 0 7 3.14 7 7s-3.14 7-7 7-7-3.14-7-7 3.14-7 7-7zm0 1.022c-3.296 0-5.978 2.682-5.978 5.978S8.704 17.978 12 17.978s5.978-2.682 5.978-5.978S15.296 6.022 12 6.022zm-.34 2.401c.282 0 .51.23.51.511V12h2.214c.283 0 .511.229.511.51 0 .283-.228.512-.51.512h-2.726c-.282 0-.51-.229-.51-.511V8.934c0-.282.228-.51.51-.51z" transform="translate(-1028 -545) translate(737 469) translate(0 64) translate(291 12)"/>
                    </g>
                </g>
            </g>
        </g>
    </g>
</svg>
