<svg xmlns="http://www.w3.org/2000/svg" width="24" height="24" viewBox="0 0 24 24">
    <path fill="#434866" fill-rule="evenodd" d="M14.536 7.464c1.833 1.834 1.945 4.737.335 6.7l2.493 2.493c.195.195.195.512 0 .707-.195.195-.512.195-.707 0l-2.493-2.492c-1.964 1.609-4.866 1.497-6.7-.336-1.952-1.953-1.952-5.119 0-7.072 1.953-1.952 5.119-1.952 7.072 0zm-.708.708c-1.562-1.563-4.094-1.563-5.656 0-1.563 1.562-1.563 4.094 0 5.656 1.562 1.563 4.094 1.563 5.656 0 1.563-1.562 1.563-4.094 0-5.656z"/>
</svg>
