<svg xmlns="http://www.w3.org/2000/svg" width="24" height="24" viewBox="0 0 24 24">
    <defs>
        <linearGradient id="0hy5yq0v0a" x1="50%" x2="50%" y1="100%" y2="0%">
            <stop offset="0%" stop-color="#54B478"/>
            <stop offset="100%" stop-color="#87D8A5"/>
        </linearGradient>
    </defs>
    <path fill="url(#0hy5yq0v0a)" d="M18.14 4C19.167 4 20 4.832 20 5.86v12.273C20 19.162 19.167 20 18.14 20H5.867C4.84 20 4 19.162 4 18.133V5.86C4 4.832 4.84 4 5.867 4zm-8.785 6l-.112.013c-.338.061-.615.327-.714.688l-2.504 5.478c-.053.195-.02.404.09.567.11.163.284.254.47.254H17.1c.215 0 .412-.123.514-.332.102-.207.092-.455-.025-.654l-1.942-3.271c-.131-.222-.338-.377-.575-.429-.235-.052-.48.002-.68.152l-.936 1.448c-.403.302-.951.193-1.235-.245l-2.103-3.253c-.199-.307-.538-.464-.876-.403zM14.5 7c-.828 0-1.5.672-1.5 1.5s.672 1.5 1.5 1.5S16 9.328 16 8.5 15.328 7 14.5 7z"/>
</svg>
