<svg xmlns="http://www.w3.org/2000/svg" width="24" height="24" viewBox="0 0 24 24">
    <path fill="#8F8DA1" fill-rule="evenodd" d="M19.531 12.781h-.75V8.597c0-.588-.478-1.066-1.065-1.066H15.53V4.47c0-.26-.21-.469-.469-.469h-8c-.258 0-.468.21-.468.469V7.53h-.569C4.913 7.531 4 8.405 4 9.5v8.93c0 .85.688 1.57 1.54 1.57h10.176c.587 0 1.065-.478 1.065-1.065v-.216h.935c.587 0 1.065-.478 1.065-1.066v-.934h.75c.26 0 .469-.21.469-.469v-3c0-.259-.21-.469-.469-.469zM17.716 8.47c.07 0 .128.057.128.128v4.184H16.78v-1.184c0-.581-.47-1.066-1.067-1.066h-.183V8.47h2.185zM7.73 4.938h6.663c.11 0 .2.089.2.2v5.393H13.53V6.5c0-.259-.21-.469-.469-.469h-4c-.258 0-.468.21-.468.469v4.031H7.53V5.137c0-.11.09-.2.2-.2zm3.332 4.593c-.26 0-.47.21-.47.469v.531H9.532V6.97h3.063v3.562H11.53V10c0-.259-.21-.469-.469-.469zM5.25 8.777c.385-.371.802-.308 1.344-.308v2.062h-.569c-.96 0-1.45-1.104-.775-1.754zm10.594 10.158c0 .07-.058.128-.128.128H5.54c-.327 0-.604-.29-.604-.632v-7.272c.545.339 1.007.31 1.386.31h9.393c.07 0 .128.057.128.128v1.184h-1.13c-.79 0-1.433.64-1.433 1.428v1.082c0 .787.643 1.428 1.433 1.428h1.13v2.216zm2-1.282c0 .07-.058.128-.128.128h-.935V16.72h1.063v.934zm1.218-1.872h-4.348c-.273 0-.495-.22-.495-.49V14.21c0-.27.222-.49.495-.49h4.348v2.062z"/>
</svg>
