<svg xmlns="http://www.w3.org/2000/svg" width="24" height="24" viewBox="0 0 24 24">
    <defs>
        <linearGradient id="nn8j3d71ea" x1="50%" x2="50%" y1="100%" y2="0%">
            <stop offset="0%" stop-color="#54B478"/>
            <stop offset="100%" stop-color="#87D8A5"/>
        </linearGradient>
    </defs>
    <path fill="url(#nn8j3d71ea)" d="M17.585 4c.28 0 .505.234.505.522v14.956c0 .288-.226.522-.505.522H5.505C5.226 20 5 19.766 5 19.478V4.522C5 4.234 5.226 4 5.505 4zM15.05 5.044H6.01v2.284h.404c.28 0 .505.234.505.522 0 .288-.226.522-.505.522H6.01v1.04h.405c.28 0 .505.234.505.522 0 .289-.226.522-.505.522H6.01v1.003h.405c.28 0 .505.234.505.522 0 .288-.226.522-.505.522H6.01v1.04h.405c.28 0 .505.234.505.523 0 .288-.226.521-.505.521H6.01v1.041h.405c.28 0 .505.234.505.522 0 .288-.226.522-.505.522H6.01v2.284h9.04V5.044zm2.03 0h-1.02v13.912h1.02V5.044zm-4.853 3.995c.279 0 .505.234.505.522 0 .288-.226.522-.505.522H9.109c-.278 0-.504-.234-.504-.522 0-.288.226-.522.504-.522zm0-2.084c.279 0 .505.233.505.521 0 .289-.226.522-.505.522H9.109c-.278 0-.504-.233-.504-.522 0-.288.226-.521.504-.521z"/>
</svg>
