<svg xmlns="http://www.w3.org/2000/svg" width="24" height="24" viewBox="0 0 24 24">
    <defs>
        <linearGradient id="hen8jcz2oa" x1="50%" x2="50%" y1="100%" y2="0%">
            <stop offset="0%" stop-color="#54B478"/>
            <stop offset="100%" stop-color="#87D8A5"/>
        </linearGradient>
    </defs>
    <path fill="url(#hen8jcz2oa)" d="M18.125 11.607c0-4.946.014-4.631-.032-4.745.098-.244-.037-.516-.285-.587l-6.125-1.758c-.079-.023-.162-.023-.24 0L5.316 6.275C5.13 6.329 5 6.5 5 6.697c0 .197.13.369.317.423l2.308.662v1.991c0 1.708.877 3.19 2.155 3.918l-.242.485c-1.18.068-2.284.573-3.131 1.44C5.5 16.544 5 17.767 5 19.06c0 .242.196.439.438.439h12.25c.241 0 .437-.197.437-.44 0-1.293-.5-2.516-1.407-3.444-.847-.867-1.95-1.372-3.131-1.44l-.242-.485c1.278-.727 2.155-2.21 2.155-3.918v-1.99l1.75-.503v4.327c-.51.181-.875.67-.875 1.243v.879c0 .242.196.439.438.439h1.75c.241 0 .437-.197.437-.44v-.878c0-.573-.366-1.062-.875-1.243zm-7 7.014H5.898c.208-1.93 1.764-3.454 3.685-3.567l1.542 2.323v1.244zm-.808-4.045l.271-.544c.312.089.638.136.975.136.336 0 .662-.047.974-.136l.27.544-1.245 1.876-1.245-1.876zm3.225.478c1.921.113 3.477 1.636 3.685 3.567H12v-1.244l1.542-2.323zm-1.98-1.765c-1.484 0-2.725-1.218-3.003-2.83.924.414 1.956.633 3.004.633 1.047 0 2.08-.219 3.003-.633-.278 1.612-1.52 2.83-3.004 2.83zm3.053-4.012c-.025.127-.1.234-.205.286-.861.425-1.846.65-2.848.65-1.001 0-1.986-.225-2.847-.65-.143-.07-.215-.233-.215-.382V8.033c3.175.911 2.975.862 3.063.862.087 0-.114.05 3.062-.862 0 1.262.003 1.18-.01 1.244zm-3.053-1.279l-4.532-1.3 4.532-1.302 4.533 1.301-4.532 1.301zm6.563 5.291h-.875v-.44c0-.242.196-.439.438-.439.24 0 .437.197.437.44v.44z"/>
</svg>
