<svg xmlns="http://www.w3.org/2000/svg" width="24" height="24" viewBox="0 0 24 24">
    <g fill="none" fill-rule="evenodd">
        <g>
            <path fill="#FFF" d="M0 0H24V24H0z"/>
            <path fill="#D0D1D8" d="M17 4c1.657 0 3 1.343 3 3v10c0 1.657-1.343 3-3 3H7c-1.657 0-3-1.343-3-3V7c0-1.657 1.343-3 3-3h10zm0 1H7c-1.054 0-1.918.816-1.995 1.85L5 7v10c0 1.054.816 1.918 1.85 1.995L7 19h10c1.054 0 1.918-.816 1.995-1.85L19 17V7c0-1.054-.816-1.918-1.85-1.995L17 5zm-1.362 3.697c.41.32.481.906.164 1.312l-3.823 5.136c-.291.372-.83.465-1.232.215-.052-.021-.104-.047-.153-.079l-2.24-1.591c-.4-.312-.474-.902-.155-1.31.296-.38.816-.47 1.212-.233l1.651 1.127 3.262-4.419c.312-.398.906-.476 1.314-.158z"/>
        </g>
    </g>
</svg>
