<svg xmlns="http://www.w3.org/2000/svg" width="24" height="24" viewBox="0 0 24 24">
    <g fill="none" fill-rule="evenodd">
        <g fill="#434866">
            <g>
                <g>
                    <g>
                        <path d="M16.938 6.25H15.5V5.5c0-.276-.224-.5-.5-.5s-.5.224-.5.5v.75h-5V5.5c0-.276-.224-.5-.5-.5s-.5.224-.5.5v.75H7.062C5.925 6.25 5 7.175 5 8.313v8.624C5 18.075 5.925 19 7.063 19h9.875C18.075 19 19 18.075 19 16.937V8.313c0-1.137-.925-2.062-2.063-2.062zm-9.875 1H8.5v.5c0 .276.224.5.5.5s.5-.224.5-.5v-.5h5v.5c0 .276.224.5.5.5s.5-.224.5-.5v-.5h1.438c.585 0 1.062.477 1.062 1.063V9.5H6V8.312c0-.585.477-1.062 1.063-1.062zM16.938 18H7.063C6.476 18 6 17.523 6 16.937V10.5h12v6.438c0 .585-.477 1.062-1.063 1.062z" transform="translate(-1348 -377) translate(737 301) translate(0 32) translate(611 44)"/>
                    </g>
                </g>
            </g>
        </g>
    </g>
</svg>
