<svg xmlns="http://www.w3.org/2000/svg" width="24" height="24" viewBox="0 0 24 24">
    <g fill="none" fill-rule="evenodd">
        <g fill="#434866">
            <g>
                <g>
                    <path d="M11 5h2c1.105 0 2 .895 2 2h2.5c.276 0 .5.224.5.5s-.224.5-.5.5H17v9c0 1.105-.895 2-2 2H9c-1.105 0-2-.895-2-2V8h-.5c-.276 0-.5-.224-.5-.5s.224-.5.5-.5H9c0-1.105.895-2 2-2zm3 2c0-.552-.448-1-1-1h-2c-.552 0-1 .448-1 1h4zm2 1H8v9c0 .552.448 1 1 1h6c.552 0 1-.448 1-1V8zm-2.5 2c.276 0 .5.224.5.5v5c0 .276-.224.5-.5.5s-.5-.224-.5-.5v-5c0-.276.224-.5.5-.5zm-3 0c.276 0 .5.224.5.5v5c0 .276-.224.5-.5.5s-.5-.224-.5-.5v-5c0-.276.224-.5.5-.5z" transform="translate(-1212 -441) translate(1200 373) translate(12 68)"/>
                </g>
            </g>
        </g>
    </g>
</svg>
