<svg xmlns="http://www.w3.org/2000/svg" width="25" height="25" viewBox="0 0 25 25">
    <path fill="#151A3B" fill-rule="evenodd" d="M13.765 8.22c.313.294.313.77 0 1.063l-3.112 2.967h6.375c.537 0 .972.336.972.75s-.435.75-.972.75h-6.373l3.11 2.967c.313.293.313.77 0 1.063-.313.293-.82.293-1.133 0l-4.403-4.254c-.125-.12-.199-.269-.221-.423 0-.006 0-.011-.002-.017-.004-.023-.005-.048-.006-.072v-.028c0-.024.002-.049.005-.073L8 13c0-.035.003-.069.009-.102.021-.155.095-.305.22-.424l4.403-4.254c.313-.293.82-.293 1.133 0z"/>
</svg>
